<?xml version="1.0" encoding="utf-8" standalone="no"?>
<!DOCTYPE svg PUBLIC "-//W3C//DTD SVG 1.1//EN"
  "http://www.w3.org/Graphics/SVG/1.1/DTD/svg11.dtd">
<svg xmlns:xlink="http://www.w3.org/1999/xlink" width="408.866875pt" height="343.5095pt" viewBox="0 0 408.866875 343.5095" xmlns="http://www.w3.org/2000/svg" version="1.1">
 <metadata>
  <rdf:RDF xmlns:dc="http://purl.org/dc/elements/1.1/" xmlns:cc="http://creativecommons.org/ns#" xmlns:rdf="http://www.w3.org/1999/02/22-rdf-syntax-ns#">
   <cc:Work>
    <dc:type rdf:resource="http://purl.org/dc/dcmitype/StillImage"/>
    <dc:date>2025-01-11T12:43:14.693437</dc:date>
    <dc:format>image/svg+xml</dc:format>
    <dc:creator>
     <cc:Agent>
      <dc:title>Matplotlib v3.8.4, https://matplotlib.org/</dc:title>
     </cc:Agent>
    </dc:creator>
   </cc:Work>
  </rdf:RDF>
 </metadata>
 <defs>
  <style type="text/css">*{stroke-linejoin: round; stroke-linecap: butt}</style>
 </defs>
 <g id="figure_1">
  <g id="patch_1">
   <path d="M 0 343.5095 
L 408.866875 343.5095 
L 408.866875 0 
L 0 0 
z
" style="fill: #ffffff"/>
  </g>
  <g id="axes_1">
   <g id="patch_2">
    <path d="M 44.546875 115.68 
L 401.666875 115.68 
L 401.666875 41.76 
L 44.546875 41.76 
z
" style="fill: #ffffff"/>
   </g>
   <g id="matplotlib.axis_1">
    <g id="xtick_1">
     <g id="line2d_1">
      <defs>
       <path id="m45618942d2" d="M 0 0 
L 0 3.5 
" style="stroke: #000000; stroke-width: 0.8"/>
      </defs>
      <g>
       <use xlink:href="#m45618942d2" x="62.759766" y="115.68" style="stroke: #000000; stroke-width: 0.8"/>
      </g>
     </g>
    </g>
    <g id="xtick_2">
     <g id="line2d_2">
      <g>
       <use xlink:href="#m45618942d2" x="141.650635" y="115.68" style="stroke: #000000; stroke-width: 0.8"/>
      </g>
     </g>
    </g>
    <g id="xtick_3">
     <g id="line2d_3">
      <g>
       <use xlink:href="#m45618942d2" x="220.541504" y="115.68" style="stroke: #000000; stroke-width: 0.8"/>
      </g>
     </g>
    </g>
    <g id="xtick_4">
     <g id="line2d_4">
      <g>
       <use xlink:href="#m45618942d2" x="299.432373" y="115.68" style="stroke: #000000; stroke-width: 0.8"/>
      </g>
     </g>
    </g>
    <g id="xtick_5">
     <g id="line2d_5">
      <g>
       <use xlink:href="#m45618942d2" x="378.322998" y="115.68" style="stroke: #000000; stroke-width: 0.8"/>
      </g>
     </g>
    </g>
   </g>
   <g id="matplotlib.axis_2">
    <g id="ytick_1">
     <g id="line2d_6">
      <defs>
       <path id="mf0924e7404" d="M 0 0 
L -3.5 0 
" style="stroke: #000000; stroke-width: 0.8"/>
      </defs>
      <g>
       <use xlink:href="#mf0924e7404" x="44.546875" y="115.298313" style="stroke: #000000; stroke-width: 0.8"/>
      </g>
     </g>
     <g id="text_1">
      <!-- −50 -->
      <g transform="translate(20.584375 118.877219) scale(0.1 -0.1)">
       <defs>
        <path id="ArialMT-2212" d="M 3381 1997 
L 356 1997 
L 356 2522 
L 3381 2522 
L 3381 1997 
z
" transform="scale(0.015625)"/>
        <path id="ArialMT-35" d="M 266 1200 
L 856 1250 
Q 922 819 1161 601 
Q 1400 384 1738 384 
Q 2144 384 2425 690 
Q 2706 997 2706 1503 
Q 2706 1984 2436 2262 
Q 2166 2541 1728 2541 
Q 1456 2541 1237 2417 
Q 1019 2294 894 2097 
L 366 2166 
L 809 4519 
L 3088 4519 
L 3088 3981 
L 1259 3981 
L 1013 2750 
Q 1425 3038 1878 3038 
Q 2478 3038 2890 2622 
Q 3303 2206 3303 1553 
Q 3303 931 2941 478 
Q 2500 -78 1738 -78 
Q 1113 -78 717 272 
Q 322 622 266 1200 
z
" transform="scale(0.015625)"/>
        <path id="ArialMT-30" d="M 266 2259 
Q 266 3072 433 3567 
Q 600 4063 929 4331 
Q 1259 4600 1759 4600 
Q 2128 4600 2406 4451 
Q 2684 4303 2865 4023 
Q 3047 3744 3150 3342 
Q 3253 2941 3253 2259 
Q 3253 1453 3087 958 
Q 2922 463 2592 192 
Q 2263 -78 1759 -78 
Q 1097 -78 719 397 
Q 266 969 266 2259 
z
M 844 2259 
Q 844 1131 1108 757 
Q 1372 384 1759 384 
Q 2147 384 2411 759 
Q 2675 1134 2675 2259 
Q 2675 3391 2411 3762 
Q 2147 4134 1753 4134 
Q 1366 4134 1134 3806 
Q 844 3388 844 2259 
z
" transform="scale(0.015625)"/>
       </defs>
       <use xlink:href="#ArialMT-2212"/>
       <use xlink:href="#ArialMT-35" x="58.398438"/>
       <use xlink:href="#ArialMT-30" x="114.013672"/>
      </g>
     </g>
    </g>
    <g id="ytick_2">
     <g id="line2d_7">
      <g>
       <use xlink:href="#mf0924e7404" x="44.546875" y="83.740088" style="stroke: #000000; stroke-width: 0.8"/>
      </g>
     </g>
     <g id="text_2">
      <!-- 0 -->
      <g transform="translate(31.985938 87.318994) scale(0.1 -0.1)">
       <use xlink:href="#ArialMT-30"/>
      </g>
     </g>
    </g>
    <g id="ytick_3">
     <g id="line2d_8">
      <g>
       <use xlink:href="#mf0924e7404" x="44.546875" y="52.181862" style="stroke: #000000; stroke-width: 0.8"/>
      </g>
     </g>
     <g id="text_3">
      <!-- 50 -->
      <g transform="translate(26.425 55.760768) scale(0.1 -0.1)">
       <use xlink:href="#ArialMT-35"/>
       <use xlink:href="#ArialMT-30" x="55.615234"/>
      </g>
     </g>
    </g>
   </g>
   <g id="line2d_9">
    <path d="M 60.779785 110.630174 
L 76.557861 112.32 
L 92.335938 106.048304 
L 108.114014 90.122124 
L 123.892578 93.259501 
L 139.670654 85.189198 
L 155.44873 97.670326 
L 171.226807 94.417551 
L 187.004883 97.39618 
L 202.783203 82.458846 
L 218.561279 97.416982 
L 234.3396 91.225433 
L 250.117676 81.297436 
L 265.895996 69.397856 
L 281.674072 75.18271 
L 297.452148 74.552516 
L 313.230225 78.76492 
L 329.008301 71.397021 
L 344.786865 84.058453 
L 360.564941 75.350421 
L 376.343018 81.146137 
" clip-path="url(#p0e5bc2dc32)" style="fill: none; stroke: #3b97ad; stroke-width: 1.5; stroke-linecap: square"/>
    <defs>
     <path id="md7ca8a2af5" d="M 0 1.5 
C 0.397805 1.5 0.77937 1.341951 1.06066 1.06066 
C 1.341951 0.77937 1.5 0.397805 1.5 0 
C 1.5 -0.397805 1.341951 -0.77937 1.06066 -1.06066 
C 0.77937 -1.341951 0.397805 -1.5 0 -1.5 
C -0.397805 -1.5 -0.77937 -1.341951 -1.06066 -1.06066 
C -1.341951 -0.77937 -1.5 -0.397805 -1.5 0 
C -1.5 0.397805 -1.341951 0.77937 -1.06066 1.06066 
C -0.77937 1.341951 -0.397805 1.5 0 1.5 
z
" style="stroke: #3b97ad"/>
    </defs>
    <g clip-path="url(#p0e5bc2dc32)">
     <use xlink:href="#md7ca8a2af5" x="60.779785" y="110.630174" style="fill: #3b97ad; stroke: #3b97ad"/>
     <use xlink:href="#md7ca8a2af5" x="76.557861" y="112.32" style="fill: #3b97ad; stroke: #3b97ad"/>
     <use xlink:href="#md7ca8a2af5" x="92.335938" y="106.048304" style="fill: #3b97ad; stroke: #3b97ad"/>
     <use xlink:href="#md7ca8a2af5" x="108.114014" y="90.122124" style="fill: #3b97ad; stroke: #3b97ad"/>
     <use xlink:href="#md7ca8a2af5" x="123.892578" y="93.259501" style="fill: #3b97ad; stroke: #3b97ad"/>
     <use xlink:href="#md7ca8a2af5" x="139.670654" y="85.189198" style="fill: #3b97ad; stroke: #3b97ad"/>
     <use xlink:href="#md7ca8a2af5" x="155.44873" y="97.670326" style="fill: #3b97ad; stroke: #3b97ad"/>
     <use xlink:href="#md7ca8a2af5" x="171.226807" y="94.417551" style="fill: #3b97ad; stroke: #3b97ad"/>
     <use xlink:href="#md7ca8a2af5" x="187.004883" y="97.39618" style="fill: #3b97ad; stroke: #3b97ad"/>
     <use xlink:href="#md7ca8a2af5" x="202.783203" y="82.458846" style="fill: #3b97ad; stroke: #3b97ad"/>
     <use xlink:href="#md7ca8a2af5" x="218.561279" y="97.416982" style="fill: #3b97ad; stroke: #3b97ad"/>
     <use xlink:href="#md7ca8a2af5" x="234.3396" y="91.225433" style="fill: #3b97ad; stroke: #3b97ad"/>
     <use xlink:href="#md7ca8a2af5" x="250.117676" y="81.297436" style="fill: #3b97ad; stroke: #3b97ad"/>
     <use xlink:href="#md7ca8a2af5" x="265.895996" y="69.397856" style="fill: #3b97ad; stroke: #3b97ad"/>
     <use xlink:href="#md7ca8a2af5" x="281.674072" y="75.18271" style="fill: #3b97ad; stroke: #3b97ad"/>
     <use xlink:href="#md7ca8a2af5" x="297.452148" y="74.552516" style="fill: #3b97ad; stroke: #3b97ad"/>
     <use xlink:href="#md7ca8a2af5" x="313.230225" y="78.76492" style="fill: #3b97ad; stroke: #3b97ad"/>
     <use xlink:href="#md7ca8a2af5" x="329.008301" y="71.397021" style="fill: #3b97ad; stroke: #3b97ad"/>
     <use xlink:href="#md7ca8a2af5" x="344.786865" y="84.058453" style="fill: #3b97ad; stroke: #3b97ad"/>
     <use xlink:href="#md7ca8a2af5" x="360.564941" y="75.350421" style="fill: #3b97ad; stroke: #3b97ad"/>
     <use xlink:href="#md7ca8a2af5" x="376.343018" y="81.146137" style="fill: #3b97ad; stroke: #3b97ad"/>
    </g>
   </g>
   <g id="line2d_10">
    <path d="M 69.871094 111.664409 
L 85.64917 110.687571 
L 101.427246 95.371461 
L 117.205566 91.971094 
L 132.983887 87.630553 
L 148.761963 92.242293 
L 164.540039 96.237819 
L 180.318115 97.577533 
L 196.096436 87.30215 
L 211.874512 90.306812 
L 227.652588 96.164382 
L 243.430908 85.808436 
L 259.209229 72.972052 
L 274.987305 72.183698 
L 290.765381 74.79787 
L 306.543457 77.98031 
L 322.321533 73.311964 
L 338.099854 78.839915 
L 353.878174 80.918526 
L 369.65625 72.88028 
" clip-path="url(#p0e5bc2dc32)" style="fill: none; stroke: #d99f23; stroke-width: 1.5; stroke-linecap: square"/>
    <defs>
     <path id="mf0051d48a5" d="M 0 1.5 
C 0.397805 1.5 0.77937 1.341951 1.06066 1.06066 
C 1.341951 0.77937 1.5 0.397805 1.5 0 
C 1.5 -0.397805 1.341951 -0.77937 1.06066 -1.06066 
C 0.77937 -1.341951 0.397805 -1.5 0 -1.5 
C -0.397805 -1.5 -0.77937 -1.341951 -1.06066 -1.06066 
C -1.341951 -0.77937 -1.5 -0.397805 -1.5 0 
C -1.5 0.397805 -1.341951 0.77937 -1.06066 1.06066 
C -0.77937 1.341951 -0.397805 1.5 0 1.5 
z
" style="stroke: #d99f23"/>
    </defs>
    <g clip-path="url(#p0e5bc2dc32)">
     <use xlink:href="#mf0051d48a5" x="69.871094" y="111.664409" style="fill: #d99f23; stroke: #d99f23"/>
     <use xlink:href="#mf0051d48a5" x="85.64917" y="110.687571" style="fill: #d99f23; stroke: #d99f23"/>
     <use xlink:href="#mf0051d48a5" x="101.427246" y="95.371461" style="fill: #d99f23; stroke: #d99f23"/>
     <use xlink:href="#mf0051d48a5" x="117.205566" y="91.971094" style="fill: #d99f23; stroke: #d99f23"/>
     <use xlink:href="#mf0051d48a5" x="132.983887" y="87.630553" style="fill: #d99f23; stroke: #d99f23"/>
     <use xlink:href="#mf0051d48a5" x="148.761963" y="92.242293" style="fill: #d99f23; stroke: #d99f23"/>
     <use xlink:href="#mf0051d48a5" x="164.540039" y="96.237819" style="fill: #d99f23; stroke: #d99f23"/>
     <use xlink:href="#mf0051d48a5" x="180.318115" y="97.577533" style="fill: #d99f23; stroke: #d99f23"/>
     <use xlink:href="#mf0051d48a5" x="196.096436" y="87.30215" style="fill: #d99f23; stroke: #d99f23"/>
     <use xlink:href="#mf0051d48a5" x="211.874512" y="90.306812" style="fill: #d99f23; stroke: #d99f23"/>
     <use xlink:href="#mf0051d48a5" x="227.652588" y="96.164382" style="fill: #d99f23; stroke: #d99f23"/>
     <use xlink:href="#mf0051d48a5" x="243.430908" y="85.808436" style="fill: #d99f23; stroke: #d99f23"/>
     <use xlink:href="#mf0051d48a5" x="259.209229" y="72.972052" style="fill: #d99f23; stroke: #d99f23"/>
     <use xlink:href="#mf0051d48a5" x="274.987305" y="72.183698" style="fill: #d99f23; stroke: #d99f23"/>
     <use xlink:href="#mf0051d48a5" x="290.765381" y="74.79787" style="fill: #d99f23; stroke: #d99f23"/>
     <use xlink:href="#mf0051d48a5" x="306.543457" y="77.98031" style="fill: #d99f23; stroke: #d99f23"/>
     <use xlink:href="#mf0051d48a5" x="322.321533" y="73.311964" style="fill: #d99f23; stroke: #d99f23"/>
     <use xlink:href="#mf0051d48a5" x="338.099854" y="78.839915" style="fill: #d99f23; stroke: #d99f23"/>
     <use xlink:href="#mf0051d48a5" x="353.878174" y="80.918526" style="fill: #d99f23; stroke: #d99f23"/>
     <use xlink:href="#mf0051d48a5" x="369.65625" y="72.88028" style="fill: #d99f23; stroke: #d99f23"/>
    </g>
   </g>
   <g id="line2d_11">
    <path d="M 69.871094 115.68 
L 69.871094 41.76 
" clip-path="url(#p0e5bc2dc32)" style="fill: none; stroke: #000000; stroke-opacity: 0.1; stroke-width: 1.5; stroke-linecap: square"/>
   </g>
   <g id="line2d_12">
    <path d="M 85.64917 115.68 
L 85.64917 41.76 
" clip-path="url(#p0e5bc2dc32)" style="fill: none; stroke: #000000; stroke-opacity: 0.1; stroke-width: 1.5; stroke-linecap: square"/>
   </g>
   <g id="line2d_13">
    <path d="M 101.427246 115.68 
L 101.427246 41.76 
" clip-path="url(#p0e5bc2dc32)" style="fill: none; stroke: #000000; stroke-opacity: 0.1; stroke-width: 1.5; stroke-linecap: square"/>
   </g>
   <g id="line2d_14">
    <path d="M 117.205566 115.68 
L 117.205566 41.76 
" clip-path="url(#p0e5bc2dc32)" style="fill: none; stroke: #000000; stroke-opacity: 0.1; stroke-width: 1.5; stroke-linecap: square"/>
   </g>
   <g id="line2d_15">
    <path d="M 132.983887 115.68 
L 132.983887 41.76 
" clip-path="url(#p0e5bc2dc32)" style="fill: none; stroke: #000000; stroke-opacity: 0.1; stroke-width: 1.5; stroke-linecap: square"/>
   </g>
   <g id="line2d_16">
    <path d="M 148.761963 115.68 
L 148.761963 41.76 
" clip-path="url(#p0e5bc2dc32)" style="fill: none; stroke: #000000; stroke-opacity: 0.1; stroke-width: 1.5; stroke-linecap: square"/>
   </g>
   <g id="line2d_17">
    <path d="M 164.540039 115.68 
L 164.540039 41.76 
" clip-path="url(#p0e5bc2dc32)" style="fill: none; stroke: #000000; stroke-opacity: 0.1; stroke-width: 1.5; stroke-linecap: square"/>
   </g>
   <g id="line2d_18">
    <path d="M 180.318115 115.68 
L 180.318115 41.76 
" clip-path="url(#p0e5bc2dc32)" style="fill: none; stroke: #000000; stroke-opacity: 0.1; stroke-width: 1.5; stroke-linecap: square"/>
   </g>
   <g id="line2d_19">
    <path d="M 196.096436 115.68 
L 196.096436 41.76 
" clip-path="url(#p0e5bc2dc32)" style="fill: none; stroke: #000000; stroke-opacity: 0.1; stroke-width: 1.5; stroke-linecap: square"/>
   </g>
   <g id="line2d_20">
    <path d="M 211.874512 115.68 
L 211.874512 41.76 
" clip-path="url(#p0e5bc2dc32)" style="fill: none; stroke: #000000; stroke-opacity: 0.1; stroke-width: 1.5; stroke-linecap: square"/>
   </g>
   <g id="line2d_21">
    <path d="M 227.652588 115.68 
L 227.652588 41.76 
" clip-path="url(#p0e5bc2dc32)" style="fill: none; stroke: #000000; stroke-opacity: 0.1; stroke-width: 1.5; stroke-linecap: square"/>
   </g>
   <g id="line2d_22">
    <path d="M 243.430908 115.68 
L 243.430908 41.76 
" clip-path="url(#p0e5bc2dc32)" style="fill: none; stroke: #000000; stroke-opacity: 0.1; stroke-width: 1.5; stroke-linecap: square"/>
   </g>
   <g id="line2d_23">
    <path d="M 259.209229 115.68 
L 259.209229 41.76 
" clip-path="url(#p0e5bc2dc32)" style="fill: none; stroke: #000000; stroke-opacity: 0.1; stroke-width: 1.5; stroke-linecap: square"/>
   </g>
   <g id="line2d_24">
    <path d="M 274.987305 115.68 
L 274.987305 41.76 
" clip-path="url(#p0e5bc2dc32)" style="fill: none; stroke: #000000; stroke-opacity: 0.1; stroke-width: 1.5; stroke-linecap: square"/>
   </g>
   <g id="line2d_25">
    <path d="M 290.765381 115.68 
L 290.765381 41.76 
" clip-path="url(#p0e5bc2dc32)" style="fill: none; stroke: #000000; stroke-opacity: 0.1; stroke-width: 1.5; stroke-linecap: square"/>
   </g>
   <g id="line2d_26">
    <path d="M 306.543457 115.68 
L 306.543457 41.76 
" clip-path="url(#p0e5bc2dc32)" style="fill: none; stroke: #000000; stroke-opacity: 0.1; stroke-width: 1.5; stroke-linecap: square"/>
   </g>
   <g id="line2d_27">
    <path d="M 322.321533 115.68 
L 322.321533 41.76 
" clip-path="url(#p0e5bc2dc32)" style="fill: none; stroke: #000000; stroke-opacity: 0.1; stroke-width: 1.5; stroke-linecap: square"/>
   </g>
   <g id="line2d_28">
    <path d="M 338.099854 115.68 
L 338.099854 41.76 
" clip-path="url(#p0e5bc2dc32)" style="fill: none; stroke: #000000; stroke-opacity: 0.1; stroke-width: 1.5; stroke-linecap: square"/>
   </g>
   <g id="line2d_29">
    <path d="M 353.878174 115.68 
L 353.878174 41.76 
" clip-path="url(#p0e5bc2dc32)" style="fill: none; stroke: #000000; stroke-opacity: 0.1; stroke-width: 1.5; stroke-linecap: square"/>
   </g>
   <g id="line2d_30">
    <path d="M 369.65625 115.68 
L 369.65625 41.76 
" clip-path="url(#p0e5bc2dc32)" style="fill: none; stroke: #000000; stroke-opacity: 0.1; stroke-width: 1.5; stroke-linecap: square"/>
   </g>
   <g id="patch_3">
    <path d="M 44.546875 115.68 
L 44.546875 41.76 
" style="fill: none; stroke: #000000; stroke-width: 0.8; stroke-linejoin: miter; stroke-linecap: square"/>
   </g>
   <g id="patch_4">
    <path d="M 401.666875 115.68 
L 401.666875 41.76 
" style="fill: none; stroke: #000000; stroke-width: 0.8; stroke-linejoin: miter; stroke-linecap: square"/>
   </g>
   <g id="patch_5">
    <path d="M 44.547119 115.68 
L 401.666992 115.68 
" style="fill: none; stroke: #000000; stroke-width: 0.8; stroke-linejoin: miter; stroke-linecap: square"/>
   </g>
   <g id="patch_6">
    <path d="M 44.547119 41.76 
L 401.666992 41.76 
" style="fill: none; stroke: #000000; stroke-width: 0.8; stroke-linejoin: miter; stroke-linecap: square"/>
   </g>
   <g id="text_4">
    <!-- BW.RJOB..EHZ -->
    <g transform="translate(187.824844 35.76) scale(0.1 -0.1)">
     <defs>
      <path id="ArialMT-42" d="M 469 0 
L 469 4581 
L 2188 4581 
Q 2713 4581 3030 4442 
Q 3347 4303 3526 4014 
Q 3706 3725 3706 3409 
Q 3706 3116 3547 2856 
Q 3388 2597 3066 2438 
Q 3481 2316 3704 2022 
Q 3928 1728 3928 1328 
Q 3928 1006 3792 729 
Q 3656 453 3456 303 
Q 3256 153 2954 76 
Q 2653 0 2216 0 
L 469 0 
z
M 1075 2656 
L 2066 2656 
Q 2469 2656 2644 2709 
Q 2875 2778 2992 2937 
Q 3109 3097 3109 3338 
Q 3109 3566 3000 3739 
Q 2891 3913 2687 3977 
Q 2484 4041 1991 4041 
L 1075 4041 
L 1075 2656 
z
M 1075 541 
L 2216 541 
Q 2509 541 2628 563 
Q 2838 600 2978 687 
Q 3119 775 3209 942 
Q 3300 1109 3300 1328 
Q 3300 1584 3169 1773 
Q 3038 1963 2805 2039 
Q 2572 2116 2134 2116 
L 1075 2116 
L 1075 541 
z
" transform="scale(0.015625)"/>
      <path id="ArialMT-57" d="M 1294 0 
L 78 4581 
L 700 4581 
L 1397 1578 
Q 1509 1106 1591 641 
Q 1766 1375 1797 1488 
L 2669 4581 
L 3400 4581 
L 4056 2263 
Q 4303 1400 4413 641 
Q 4500 1075 4641 1638 
L 5359 4581 
L 5969 4581 
L 4713 0 
L 4128 0 
L 3163 3491 
Q 3041 3928 3019 4028 
Q 2947 3713 2884 3491 
L 1913 0 
L 1294 0 
z
" transform="scale(0.015625)"/>
      <path id="ArialMT-2e" d="M 581 0 
L 581 641 
L 1222 641 
L 1222 0 
L 581 0 
z
" transform="scale(0.015625)"/>
      <path id="ArialMT-52" d="M 503 0 
L 503 4581 
L 2534 4581 
Q 3147 4581 3465 4457 
Q 3784 4334 3975 4021 
Q 4166 3709 4166 3331 
Q 4166 2844 3850 2509 
Q 3534 2175 2875 2084 
Q 3116 1969 3241 1856 
Q 3506 1613 3744 1247 
L 4541 0 
L 3778 0 
L 3172 953 
Q 2906 1366 2734 1584 
Q 2563 1803 2427 1890 
Q 2291 1978 2150 2013 
Q 2047 2034 1813 2034 
L 1109 2034 
L 1109 0 
L 503 0 
z
M 1109 2559 
L 2413 2559 
Q 2828 2559 3062 2645 
Q 3297 2731 3419 2920 
Q 3541 3109 3541 3331 
Q 3541 3656 3305 3865 
Q 3069 4075 2559 4075 
L 1109 4075 
L 1109 2559 
z
" transform="scale(0.015625)"/>
      <path id="ArialMT-4a" d="M 184 1300 
L 731 1375 
Q 753 850 928 656 
Q 1103 463 1413 463 
Q 1641 463 1806 567 
Q 1972 672 2034 851 
Q 2097 1031 2097 1425 
L 2097 4581 
L 2703 4581 
L 2703 1459 
Q 2703 884 2564 568 
Q 2425 253 2123 87 
Q 1822 -78 1416 -78 
Q 813 -78 492 269 
Q 172 616 184 1300 
z
" transform="scale(0.015625)"/>
      <path id="ArialMT-4f" d="M 309 2231 
Q 309 3372 921 4017 
Q 1534 4663 2503 4663 
Q 3138 4663 3647 4359 
Q 4156 4056 4423 3514 
Q 4691 2972 4691 2284 
Q 4691 1588 4409 1038 
Q 4128 488 3612 205 
Q 3097 -78 2500 -78 
Q 1853 -78 1343 234 
Q 834 547 571 1087 
Q 309 1628 309 2231 
z
M 934 2222 
Q 934 1394 1379 917 
Q 1825 441 2497 441 
Q 3181 441 3623 922 
Q 4066 1403 4066 2288 
Q 4066 2847 3877 3264 
Q 3688 3681 3323 3911 
Q 2959 4141 2506 4141 
Q 1863 4141 1398 3698 
Q 934 3256 934 2222 
z
" transform="scale(0.015625)"/>
      <path id="ArialMT-45" d="M 506 0 
L 506 4581 
L 3819 4581 
L 3819 4041 
L 1113 4041 
L 1113 2638 
L 3647 2638 
L 3647 2100 
L 1113 2100 
L 1113 541 
L 3925 541 
L 3925 0 
L 506 0 
z
" transform="scale(0.015625)"/>
      <path id="ArialMT-48" d="M 513 0 
L 513 4581 
L 1119 4581 
L 1119 2700 
L 3500 2700 
L 3500 4581 
L 4106 4581 
L 4106 0 
L 3500 0 
L 3500 2159 
L 1119 2159 
L 1119 0 
L 513 0 
z
" transform="scale(0.015625)"/>
      <path id="ArialMT-5a" d="M 128 0 
L 128 563 
L 2475 3497 
Q 2725 3809 2950 4041 
L 394 4041 
L 394 4581 
L 3675 4581 
L 3675 4041 
L 1103 863 
L 825 541 
L 3750 541 
L 3750 0 
L 128 0 
z
" transform="scale(0.015625)"/>
     </defs>
     <use xlink:href="#ArialMT-42"/>
     <use xlink:href="#ArialMT-57" x="66.699219"/>
     <use xlink:href="#ArialMT-2e" x="155.583984"/>
     <use xlink:href="#ArialMT-52" x="183.367188"/>
     <use xlink:href="#ArialMT-4a" x="255.583984"/>
     <use xlink:href="#ArialMT-4f" x="305.583984"/>
     <use xlink:href="#ArialMT-42" x="383.367188"/>
     <use xlink:href="#ArialMT-2e" x="450.066406"/>
     <use xlink:href="#ArialMT-2e" x="477.849609"/>
     <use xlink:href="#ArialMT-45" x="505.632812"/>
     <use xlink:href="#ArialMT-48" x="572.332031"/>
     <use xlink:href="#ArialMT-5a" x="644.548828"/>
    </g>
   </g>
   <g id="legend_1">
    <g id="patch_7">
     <path d="M 51.546875 78.535 
L 118.003125 78.535 
Q 120.003125 78.535 120.003125 76.535 
L 120.003125 48.76 
Q 120.003125 46.76 118.003125 46.76 
L 51.546875 46.76 
Q 49.546875 46.76 49.546875 48.76 
L 49.546875 76.535 
Q 49.546875 78.535 51.546875 78.535 
z
" style="fill: #ffffff; opacity: 0.8; stroke: #cccccc; stroke-linejoin: miter"/>
    </g>
    <g id="line2d_31">
     <path d="M 53.546875 54.545937 
L 63.546875 54.545937 
L 73.546875 54.545937 
" style="fill: none; stroke: #3b97ad; stroke-width: 1.5; stroke-linecap: square"/>
     <g>
      <use xlink:href="#md7ca8a2af5" x="63.546875" y="54.545937" style="fill: #3b97ad; stroke: #3b97ad"/>
     </g>
    </g>
    <g id="text_5">
     <!-- Original -->
     <g transform="translate(81.546875 58.045937) scale(0.1 -0.1)">
      <defs>
       <path id="ArialMT-72" d="M 416 0 
L 416 3319 
L 922 3319 
L 922 2816 
Q 1116 3169 1280 3281 
Q 1444 3394 1641 3394 
Q 1925 3394 2219 3213 
L 2025 2691 
Q 1819 2813 1613 2813 
Q 1428 2813 1281 2702 
Q 1134 2591 1072 2394 
Q 978 2094 978 1738 
L 978 0 
L 416 0 
z
" transform="scale(0.015625)"/>
       <path id="ArialMT-69" d="M 425 3934 
L 425 4581 
L 988 4581 
L 988 3934 
L 425 3934 
z
M 425 0 
L 425 3319 
L 988 3319 
L 988 0 
L 425 0 
z
" transform="scale(0.015625)"/>
       <path id="ArialMT-67" d="M 319 -275 
L 866 -356 
Q 900 -609 1056 -725 
Q 1266 -881 1628 -881 
Q 2019 -881 2231 -725 
Q 2444 -569 2519 -288 
Q 2563 -116 2559 434 
Q 2191 0 1641 0 
Q 956 0 581 494 
Q 206 988 206 1678 
Q 206 2153 378 2554 
Q 550 2956 876 3175 
Q 1203 3394 1644 3394 
Q 2231 3394 2613 2919 
L 2613 3319 
L 3131 3319 
L 3131 450 
Q 3131 -325 2973 -648 
Q 2816 -972 2473 -1159 
Q 2131 -1347 1631 -1347 
Q 1038 -1347 672 -1080 
Q 306 -813 319 -275 
z
M 784 1719 
Q 784 1066 1043 766 
Q 1303 466 1694 466 
Q 2081 466 2343 764 
Q 2606 1063 2606 1700 
Q 2606 2309 2336 2618 
Q 2066 2928 1684 2928 
Q 1309 2928 1046 2623 
Q 784 2319 784 1719 
z
" transform="scale(0.015625)"/>
       <path id="ArialMT-6e" d="M 422 0 
L 422 3319 
L 928 3319 
L 928 2847 
Q 1294 3394 1984 3394 
Q 2284 3394 2536 3286 
Q 2788 3178 2913 3003 
Q 3038 2828 3088 2588 
Q 3119 2431 3119 2041 
L 3119 0 
L 2556 0 
L 2556 2019 
Q 2556 2363 2490 2533 
Q 2425 2703 2258 2804 
Q 2091 2906 1866 2906 
Q 1506 2906 1245 2678 
Q 984 2450 984 1813 
L 984 0 
L 422 0 
z
" transform="scale(0.015625)"/>
       <path id="ArialMT-61" d="M 2588 409 
Q 2275 144 1986 34 
Q 1697 -75 1366 -75 
Q 819 -75 525 192 
Q 231 459 231 875 
Q 231 1119 342 1320 
Q 453 1522 633 1644 
Q 813 1766 1038 1828 
Q 1203 1872 1538 1913 
Q 2219 1994 2541 2106 
Q 2544 2222 2544 2253 
Q 2544 2597 2384 2738 
Q 2169 2928 1744 2928 
Q 1347 2928 1158 2789 
Q 969 2650 878 2297 
L 328 2372 
Q 403 2725 575 2942 
Q 747 3159 1072 3276 
Q 1397 3394 1825 3394 
Q 2250 3394 2515 3294 
Q 2781 3194 2906 3042 
Q 3031 2891 3081 2659 
Q 3109 2516 3109 2141 
L 3109 1391 
Q 3109 606 3145 398 
Q 3181 191 3288 0 
L 2700 0 
Q 2613 175 2588 409 
z
M 2541 1666 
Q 2234 1541 1622 1453 
Q 1275 1403 1131 1340 
Q 988 1278 909 1158 
Q 831 1038 831 891 
Q 831 666 1001 516 
Q 1172 366 1500 366 
Q 1825 366 2078 508 
Q 2331 650 2450 897 
Q 2541 1088 2541 1459 
L 2541 1666 
z
" transform="scale(0.015625)"/>
       <path id="ArialMT-6c" d="M 409 0 
L 409 4581 
L 972 4581 
L 972 0 
L 409 0 
z
" transform="scale(0.015625)"/>
      </defs>
      <use xlink:href="#ArialMT-4f"/>
      <use xlink:href="#ArialMT-72" x="77.783203"/>
      <use xlink:href="#ArialMT-69" x="111.083984"/>
      <use xlink:href="#ArialMT-67" x="133.300781"/>
      <use xlink:href="#ArialMT-69" x="188.916016"/>
      <use xlink:href="#ArialMT-6e" x="211.132812"/>
      <use xlink:href="#ArialMT-61" x="266.748047"/>
      <use xlink:href="#ArialMT-6c" x="322.363281"/>
     </g>
    </g>
    <g id="line2d_32">
     <path d="M 53.546875 68.930312 
L 63.546875 68.930312 
L 73.546875 68.930312 
" style="fill: none; stroke: #d99f23; stroke-width: 1.5; stroke-linecap: square"/>
     <g>
      <use xlink:href="#mf0051d48a5" x="63.546875" y="68.930312" style="fill: #d99f23; stroke: #d99f23"/>
     </g>
    </g>
    <g id="text_6">
     <!-- Synced -->
     <g transform="translate(81.546875 72.430312) scale(0.1 -0.1)">
      <defs>
       <path id="ArialMT-53" d="M 288 1472 
L 859 1522 
Q 900 1178 1048 958 
Q 1197 738 1509 602 
Q 1822 466 2213 466 
Q 2559 466 2825 569 
Q 3091 672 3220 851 
Q 3350 1031 3350 1244 
Q 3350 1459 3225 1620 
Q 3100 1781 2813 1891 
Q 2628 1963 1997 2114 
Q 1366 2266 1113 2400 
Q 784 2572 623 2826 
Q 463 3081 463 3397 
Q 463 3744 659 4045 
Q 856 4347 1234 4503 
Q 1613 4659 2075 4659 
Q 2584 4659 2973 4495 
Q 3363 4331 3572 4012 
Q 3781 3694 3797 3291 
L 3216 3247 
Q 3169 3681 2898 3903 
Q 2628 4125 2100 4125 
Q 1550 4125 1298 3923 
Q 1047 3722 1047 3438 
Q 1047 3191 1225 3031 
Q 1400 2872 2139 2705 
Q 2878 2538 3153 2413 
Q 3553 2228 3743 1945 
Q 3934 1663 3934 1294 
Q 3934 928 3725 604 
Q 3516 281 3123 101 
Q 2731 -78 2241 -78 
Q 1619 -78 1198 103 
Q 778 284 539 648 
Q 300 1013 288 1472 
z
" transform="scale(0.015625)"/>
       <path id="ArialMT-79" d="M 397 -1278 
L 334 -750 
Q 519 -800 656 -800 
Q 844 -800 956 -737 
Q 1069 -675 1141 -563 
Q 1194 -478 1313 -144 
Q 1328 -97 1363 -6 
L 103 3319 
L 709 3319 
L 1400 1397 
Q 1534 1031 1641 628 
Q 1738 1016 1872 1384 
L 2581 3319 
L 3144 3319 
L 1881 -56 
Q 1678 -603 1566 -809 
Q 1416 -1088 1222 -1217 
Q 1028 -1347 759 -1347 
Q 597 -1347 397 -1278 
z
" transform="scale(0.015625)"/>
       <path id="ArialMT-63" d="M 2588 1216 
L 3141 1144 
Q 3050 572 2676 248 
Q 2303 -75 1759 -75 
Q 1078 -75 664 370 
Q 250 816 250 1647 
Q 250 2184 428 2587 
Q 606 2991 970 3192 
Q 1334 3394 1763 3394 
Q 2303 3394 2647 3120 
Q 2991 2847 3088 2344 
L 2541 2259 
Q 2463 2594 2264 2762 
Q 2066 2931 1784 2931 
Q 1359 2931 1093 2626 
Q 828 2322 828 1663 
Q 828 994 1084 691 
Q 1341 388 1753 388 
Q 2084 388 2306 591 
Q 2528 794 2588 1216 
z
" transform="scale(0.015625)"/>
       <path id="ArialMT-65" d="M 2694 1069 
L 3275 997 
Q 3138 488 2766 206 
Q 2394 -75 1816 -75 
Q 1088 -75 661 373 
Q 234 822 234 1631 
Q 234 2469 665 2931 
Q 1097 3394 1784 3394 
Q 2450 3394 2872 2941 
Q 3294 2488 3294 1666 
Q 3294 1616 3291 1516 
L 816 1516 
Q 847 969 1125 678 
Q 1403 388 1819 388 
Q 2128 388 2347 550 
Q 2566 713 2694 1069 
z
M 847 1978 
L 2700 1978 
Q 2663 2397 2488 2606 
Q 2219 2931 1791 2931 
Q 1403 2931 1139 2672 
Q 875 2413 847 1978 
z
" transform="scale(0.015625)"/>
       <path id="ArialMT-64" d="M 2575 0 
L 2575 419 
Q 2259 -75 1647 -75 
Q 1250 -75 917 144 
Q 584 363 401 755 
Q 219 1147 219 1656 
Q 219 2153 384 2558 
Q 550 2963 881 3178 
Q 1213 3394 1622 3394 
Q 1922 3394 2156 3267 
Q 2391 3141 2538 2938 
L 2538 4581 
L 3097 4581 
L 3097 0 
L 2575 0 
z
M 797 1656 
Q 797 1019 1065 703 
Q 1334 388 1700 388 
Q 2069 388 2326 689 
Q 2584 991 2584 1609 
Q 2584 2291 2321 2609 
Q 2059 2928 1675 2928 
Q 1300 2928 1048 2622 
Q 797 2316 797 1656 
z
" transform="scale(0.015625)"/>
      </defs>
      <use xlink:href="#ArialMT-53"/>
      <use xlink:href="#ArialMT-79" x="66.699219"/>
      <use xlink:href="#ArialMT-6e" x="116.699219"/>
      <use xlink:href="#ArialMT-63" x="172.314453"/>
      <use xlink:href="#ArialMT-65" x="222.314453"/>
      <use xlink:href="#ArialMT-64" x="277.929688"/>
     </g>
    </g>
   </g>
  </g>
  <g id="axes_2">
   <g id="patch_8">
    <path d="M 44.546875 211.776 
L 401.666875 211.776 
L 401.666875 137.856 
L 44.546875 137.856 
z
" style="fill: #ffffff"/>
   </g>
   <g id="matplotlib.axis_3">
    <g id="xtick_6">
     <g id="line2d_33">
      <g>
       <use xlink:href="#m45618942d2" x="62.759766" y="211.776" style="stroke: #000000; stroke-width: 0.8"/>
      </g>
     </g>
    </g>
    <g id="xtick_7">
     <g id="line2d_34">
      <g>
       <use xlink:href="#m45618942d2" x="141.650635" y="211.776" style="stroke: #000000; stroke-width: 0.8"/>
      </g>
     </g>
    </g>
    <g id="xtick_8">
     <g id="line2d_35">
      <g>
       <use xlink:href="#m45618942d2" x="220.541504" y="211.776" style="stroke: #000000; stroke-width: 0.8"/>
      </g>
     </g>
    </g>
    <g id="xtick_9">
     <g id="line2d_36">
      <g>
       <use xlink:href="#m45618942d2" x="299.432373" y="211.776" style="stroke: #000000; stroke-width: 0.8"/>
      </g>
     </g>
    </g>
    <g id="xtick_10">
     <g id="line2d_37">
      <g>
       <use xlink:href="#m45618942d2" x="378.322998" y="211.776" style="stroke: #000000; stroke-width: 0.8"/>
      </g>
     </g>
    </g>
   </g>
   <g id="matplotlib.axis_4">
    <g id="ytick_4">
     <g id="line2d_38">
      <g>
       <use xlink:href="#mf0924e7404" x="44.546875" y="211.394313" style="stroke: #000000; stroke-width: 0.8"/>
      </g>
     </g>
     <g id="text_7">
      <!-- −50 -->
      <g transform="translate(20.584375 214.973219) scale(0.1 -0.1)">
       <use xlink:href="#ArialMT-2212"/>
       <use xlink:href="#ArialMT-35" x="58.398438"/>
       <use xlink:href="#ArialMT-30" x="114.013672"/>
      </g>
     </g>
    </g>
    <g id="ytick_5">
     <g id="line2d_39">
      <g>
       <use xlink:href="#mf0924e7404" x="44.546875" y="179.836088" style="stroke: #000000; stroke-width: 0.8"/>
      </g>
     </g>
     <g id="text_8">
      <!-- 0 -->
      <g transform="translate(31.985938 183.414994) scale(0.1 -0.1)">
       <use xlink:href="#ArialMT-30"/>
      </g>
     </g>
    </g>
    <g id="ytick_6">
     <g id="line2d_40">
      <g>
       <use xlink:href="#mf0924e7404" x="44.546875" y="148.277862" style="stroke: #000000; stroke-width: 0.8"/>
      </g>
     </g>
     <g id="text_9">
      <!-- 50 -->
      <g transform="translate(26.425 151.856768) scale(0.1 -0.1)">
       <use xlink:href="#ArialMT-35"/>
       <use xlink:href="#ArialMT-30" x="55.615234"/>
      </g>
     </g>
    </g>
    <g id="text_10">
     <!-- Seismogram amplitude (counts) -->
     <g transform="translate(14.479688 245.394906) rotate(-90) scale(0.1 -0.1)">
      <defs>
       <path id="ArialMT-73" d="M 197 991 
L 753 1078 
Q 800 744 1014 566 
Q 1228 388 1613 388 
Q 2000 388 2187 545 
Q 2375 703 2375 916 
Q 2375 1106 2209 1216 
Q 2094 1291 1634 1406 
Q 1016 1563 777 1677 
Q 538 1791 414 1992 
Q 291 2194 291 2438 
Q 291 2659 392 2848 
Q 494 3038 669 3163 
Q 800 3259 1026 3326 
Q 1253 3394 1513 3394 
Q 1903 3394 2198 3281 
Q 2494 3169 2634 2976 
Q 2775 2784 2828 2463 
L 2278 2388 
Q 2241 2644 2061 2787 
Q 1881 2931 1553 2931 
Q 1166 2931 1000 2803 
Q 834 2675 834 2503 
Q 834 2394 903 2306 
Q 972 2216 1119 2156 
Q 1203 2125 1616 2013 
Q 2213 1853 2448 1751 
Q 2684 1650 2818 1456 
Q 2953 1263 2953 975 
Q 2953 694 2789 445 
Q 2625 197 2315 61 
Q 2006 -75 1616 -75 
Q 969 -75 630 194 
Q 291 463 197 991 
z
" transform="scale(0.015625)"/>
       <path id="ArialMT-6d" d="M 422 0 
L 422 3319 
L 925 3319 
L 925 2853 
Q 1081 3097 1340 3245 
Q 1600 3394 1931 3394 
Q 2300 3394 2536 3241 
Q 2772 3088 2869 2813 
Q 3263 3394 3894 3394 
Q 4388 3394 4653 3120 
Q 4919 2847 4919 2278 
L 4919 0 
L 4359 0 
L 4359 2091 
Q 4359 2428 4304 2576 
Q 4250 2725 4106 2815 
Q 3963 2906 3769 2906 
Q 3419 2906 3187 2673 
Q 2956 2441 2956 1928 
L 2956 0 
L 2394 0 
L 2394 2156 
Q 2394 2531 2256 2718 
Q 2119 2906 1806 2906 
Q 1569 2906 1367 2781 
Q 1166 2656 1075 2415 
Q 984 2175 984 1722 
L 984 0 
L 422 0 
z
" transform="scale(0.015625)"/>
       <path id="ArialMT-6f" d="M 213 1659 
Q 213 2581 725 3025 
Q 1153 3394 1769 3394 
Q 2453 3394 2887 2945 
Q 3322 2497 3322 1706 
Q 3322 1066 3130 698 
Q 2938 331 2570 128 
Q 2203 -75 1769 -75 
Q 1072 -75 642 372 
Q 213 819 213 1659 
z
M 791 1659 
Q 791 1022 1069 705 
Q 1347 388 1769 388 
Q 2188 388 2466 706 
Q 2744 1025 2744 1678 
Q 2744 2294 2464 2611 
Q 2184 2928 1769 2928 
Q 1347 2928 1069 2612 
Q 791 2297 791 1659 
z
" transform="scale(0.015625)"/>
       <path id="ArialMT-20" transform="scale(0.015625)"/>
       <path id="ArialMT-70" d="M 422 -1272 
L 422 3319 
L 934 3319 
L 934 2888 
Q 1116 3141 1344 3267 
Q 1572 3394 1897 3394 
Q 2322 3394 2647 3175 
Q 2972 2956 3137 2557 
Q 3303 2159 3303 1684 
Q 3303 1175 3120 767 
Q 2938 359 2589 142 
Q 2241 -75 1856 -75 
Q 1575 -75 1351 44 
Q 1128 163 984 344 
L 984 -1272 
L 422 -1272 
z
M 931 1641 
Q 931 1000 1190 694 
Q 1450 388 1819 388 
Q 2194 388 2461 705 
Q 2728 1022 2728 1688 
Q 2728 2322 2467 2637 
Q 2206 2953 1844 2953 
Q 1484 2953 1207 2617 
Q 931 2281 931 1641 
z
" transform="scale(0.015625)"/>
       <path id="ArialMT-74" d="M 1650 503 
L 1731 6 
Q 1494 -44 1306 -44 
Q 1000 -44 831 53 
Q 663 150 594 308 
Q 525 466 525 972 
L 525 2881 
L 113 2881 
L 113 3319 
L 525 3319 
L 525 4141 
L 1084 4478 
L 1084 3319 
L 1650 3319 
L 1650 2881 
L 1084 2881 
L 1084 941 
Q 1084 700 1114 631 
Q 1144 563 1211 522 
Q 1278 481 1403 481 
Q 1497 481 1650 503 
z
" transform="scale(0.015625)"/>
       <path id="ArialMT-75" d="M 2597 0 
L 2597 488 
Q 2209 -75 1544 -75 
Q 1250 -75 995 37 
Q 741 150 617 320 
Q 494 491 444 738 
Q 409 903 409 1263 
L 409 3319 
L 972 3319 
L 972 1478 
Q 972 1038 1006 884 
Q 1059 663 1231 536 
Q 1403 409 1656 409 
Q 1909 409 2131 539 
Q 2353 669 2445 892 
Q 2538 1116 2538 1541 
L 2538 3319 
L 3100 3319 
L 3100 0 
L 2597 0 
z
" transform="scale(0.015625)"/>
       <path id="ArialMT-28" d="M 1497 -1347 
Q 1031 -759 709 28 
Q 388 816 388 1659 
Q 388 2403 628 3084 
Q 909 3875 1497 4659 
L 1900 4659 
Q 1522 4009 1400 3731 
Q 1209 3300 1100 2831 
Q 966 2247 966 1656 
Q 966 153 1900 -1347 
L 1497 -1347 
z
" transform="scale(0.015625)"/>
       <path id="ArialMT-29" d="M 791 -1347 
L 388 -1347 
Q 1322 153 1322 1656 
Q 1322 2244 1188 2822 
Q 1081 3291 891 3722 
Q 769 4003 388 4659 
L 791 4659 
Q 1378 3875 1659 3084 
Q 1900 2403 1900 1659 
Q 1900 816 1576 28 
Q 1253 -759 791 -1347 
z
" transform="scale(0.015625)"/>
      </defs>
      <use xlink:href="#ArialMT-53"/>
      <use xlink:href="#ArialMT-65" x="66.699219"/>
      <use xlink:href="#ArialMT-69" x="122.314453"/>
      <use xlink:href="#ArialMT-73" x="144.53125"/>
      <use xlink:href="#ArialMT-6d" x="194.53125"/>
      <use xlink:href="#ArialMT-6f" x="277.832031"/>
      <use xlink:href="#ArialMT-67" x="333.447266"/>
      <use xlink:href="#ArialMT-72" x="389.0625"/>
      <use xlink:href="#ArialMT-61" x="422.363281"/>
      <use xlink:href="#ArialMT-6d" x="477.978516"/>
      <use xlink:href="#ArialMT-20" x="561.279297"/>
      <use xlink:href="#ArialMT-61" x="589.0625"/>
      <use xlink:href="#ArialMT-6d" x="644.677734"/>
      <use xlink:href="#ArialMT-70" x="727.978516"/>
      <use xlink:href="#ArialMT-6c" x="783.59375"/>
      <use xlink:href="#ArialMT-69" x="805.810547"/>
      <use xlink:href="#ArialMT-74" x="828.027344"/>
      <use xlink:href="#ArialMT-75" x="855.810547"/>
      <use xlink:href="#ArialMT-64" x="911.425781"/>
      <use xlink:href="#ArialMT-65" x="967.041016"/>
      <use xlink:href="#ArialMT-20" x="1022.65625"/>
      <use xlink:href="#ArialMT-28" x="1050.439453"/>
      <use xlink:href="#ArialMT-63" x="1083.740234"/>
      <use xlink:href="#ArialMT-6f" x="1133.740234"/>
      <use xlink:href="#ArialMT-75" x="1189.355469"/>
      <use xlink:href="#ArialMT-6e" x="1244.970703"/>
      <use xlink:href="#ArialMT-74" x="1300.585938"/>
      <use xlink:href="#ArialMT-73" x="1328.369141"/>
      <use xlink:href="#ArialMT-29" x="1378.369141"/>
     </g>
    </g>
   </g>
   <g id="line2d_41">
    <path d="M 69.871094 170.003171 
L 85.64917 173.531322 
L 101.427246 169.134005 
L 117.205566 181.775923 
L 132.983887 190.175647 
L 148.761963 177.086278 
L 164.540039 180.391372 
L 180.318115 181.549582 
L 196.096436 182.781597 
L 211.874512 187.380804 
L 227.652588 182.774606 
L 243.430908 171.192244 
L 259.209229 178.069782 
L 274.987305 175.08941 
L 290.765381 170.431505 
L 306.543457 183.867808 
L 322.321533 180.518801 
L 338.099854 176.830941 
L 353.878174 172.260994 
L 369.65625 181.325913 
L 385.434326 175.955761 
" clip-path="url(#pb3aa3cc521)" style="fill: none; stroke: #3b97ad; stroke-width: 1.5; stroke-linecap: square"/>
    <g clip-path="url(#pb3aa3cc521)">
     <use xlink:href="#md7ca8a2af5" x="69.871094" y="170.003171" style="fill: #3b97ad; stroke: #3b97ad"/>
     <use xlink:href="#md7ca8a2af5" x="85.64917" y="173.531322" style="fill: #3b97ad; stroke: #3b97ad"/>
     <use xlink:href="#md7ca8a2af5" x="101.427246" y="169.134005" style="fill: #3b97ad; stroke: #3b97ad"/>
     <use xlink:href="#md7ca8a2af5" x="117.205566" y="181.775923" style="fill: #3b97ad; stroke: #3b97ad"/>
     <use xlink:href="#md7ca8a2af5" x="132.983887" y="190.175647" style="fill: #3b97ad; stroke: #3b97ad"/>
     <use xlink:href="#md7ca8a2af5" x="148.761963" y="177.086278" style="fill: #3b97ad; stroke: #3b97ad"/>
     <use xlink:href="#md7ca8a2af5" x="164.540039" y="180.391372" style="fill: #3b97ad; stroke: #3b97ad"/>
     <use xlink:href="#md7ca8a2af5" x="180.318115" y="181.549582" style="fill: #3b97ad; stroke: #3b97ad"/>
     <use xlink:href="#md7ca8a2af5" x="196.096436" y="182.781597" style="fill: #3b97ad; stroke: #3b97ad"/>
     <use xlink:href="#md7ca8a2af5" x="211.874512" y="187.380804" style="fill: #3b97ad; stroke: #3b97ad"/>
     <use xlink:href="#md7ca8a2af5" x="227.652588" y="182.774606" style="fill: #3b97ad; stroke: #3b97ad"/>
     <use xlink:href="#md7ca8a2af5" x="243.430908" y="171.192244" style="fill: #3b97ad; stroke: #3b97ad"/>
     <use xlink:href="#md7ca8a2af5" x="259.209229" y="178.069782" style="fill: #3b97ad; stroke: #3b97ad"/>
     <use xlink:href="#md7ca8a2af5" x="274.987305" y="175.08941" style="fill: #3b97ad; stroke: #3b97ad"/>
     <use xlink:href="#md7ca8a2af5" x="290.765381" y="170.431505" style="fill: #3b97ad; stroke: #3b97ad"/>
     <use xlink:href="#md7ca8a2af5" x="306.543457" y="183.867808" style="fill: #3b97ad; stroke: #3b97ad"/>
     <use xlink:href="#md7ca8a2af5" x="322.321533" y="180.518801" style="fill: #3b97ad; stroke: #3b97ad"/>
     <use xlink:href="#md7ca8a2af5" x="338.099854" y="176.830941" style="fill: #3b97ad; stroke: #3b97ad"/>
     <use xlink:href="#md7ca8a2af5" x="353.878174" y="172.260994" style="fill: #3b97ad; stroke: #3b97ad"/>
     <use xlink:href="#md7ca8a2af5" x="369.65625" y="181.325913" style="fill: #3b97ad; stroke: #3b97ad"/>
     <use xlink:href="#md7ca8a2af5" x="385.434326" y="175.955761" style="fill: #3b97ad; stroke: #3b97ad"/>
    </g>
   </g>
   <g id="line2d_42">
    <path d="M 69.871094 170.003171 
L 85.64917 173.531322 
L 101.427246 169.134005 
L 117.205566 181.775923 
L 132.983887 190.175647 
L 148.761963 177.086278 
L 164.540039 180.391372 
L 180.318115 181.549582 
L 196.096436 182.781597 
L 211.874512 187.380804 
L 227.652588 182.774316 
L 243.430908 171.192244 
L 259.209229 178.069782 
L 274.987305 175.08941 
L 290.765381 170.431505 
L 306.543457 183.867808 
L 322.321533 180.518801 
L 338.099854 176.830941 
L 353.878174 172.260994 
L 369.65625 181.325913 
" clip-path="url(#pb3aa3cc521)" style="fill: none; stroke: #d99f23; stroke-width: 1.5; stroke-linecap: square"/>
    <g clip-path="url(#pb3aa3cc521)">
     <use xlink:href="#mf0051d48a5" x="69.871094" y="170.003171" style="fill: #d99f23; stroke: #d99f23"/>
     <use xlink:href="#mf0051d48a5" x="85.64917" y="173.531322" style="fill: #d99f23; stroke: #d99f23"/>
     <use xlink:href="#mf0051d48a5" x="101.427246" y="169.134005" style="fill: #d99f23; stroke: #d99f23"/>
     <use xlink:href="#mf0051d48a5" x="117.205566" y="181.775923" style="fill: #d99f23; stroke: #d99f23"/>
     <use xlink:href="#mf0051d48a5" x="132.983887" y="190.175647" style="fill: #d99f23; stroke: #d99f23"/>
     <use xlink:href="#mf0051d48a5" x="148.761963" y="177.086278" style="fill: #d99f23; stroke: #d99f23"/>
     <use xlink:href="#mf0051d48a5" x="164.540039" y="180.391372" style="fill: #d99f23; stroke: #d99f23"/>
     <use xlink:href="#mf0051d48a5" x="180.318115" y="181.549582" style="fill: #d99f23; stroke: #d99f23"/>
     <use xlink:href="#mf0051d48a5" x="196.096436" y="182.781597" style="fill: #d99f23; stroke: #d99f23"/>
     <use xlink:href="#mf0051d48a5" x="211.874512" y="187.380804" style="fill: #d99f23; stroke: #d99f23"/>
     <use xlink:href="#mf0051d48a5" x="227.652588" y="182.774316" style="fill: #d99f23; stroke: #d99f23"/>
     <use xlink:href="#mf0051d48a5" x="243.430908" y="171.192244" style="fill: #d99f23; stroke: #d99f23"/>
     <use xlink:href="#mf0051d48a5" x="259.209229" y="178.069782" style="fill: #d99f23; stroke: #d99f23"/>
     <use xlink:href="#mf0051d48a5" x="274.987305" y="175.08941" style="fill: #d99f23; stroke: #d99f23"/>
     <use xlink:href="#mf0051d48a5" x="290.765381" y="170.431505" style="fill: #d99f23; stroke: #d99f23"/>
     <use xlink:href="#mf0051d48a5" x="306.543457" y="183.867808" style="fill: #d99f23; stroke: #d99f23"/>
     <use xlink:href="#mf0051d48a5" x="322.321533" y="180.518801" style="fill: #d99f23; stroke: #d99f23"/>
     <use xlink:href="#mf0051d48a5" x="338.099854" y="176.830941" style="fill: #d99f23; stroke: #d99f23"/>
     <use xlink:href="#mf0051d48a5" x="353.878174" y="172.260994" style="fill: #d99f23; stroke: #d99f23"/>
     <use xlink:href="#mf0051d48a5" x="369.65625" y="181.325913" style="fill: #d99f23; stroke: #d99f23"/>
    </g>
   </g>
   <g id="line2d_43">
    <path d="M 69.871094 211.776 
L 69.871094 137.856 
" clip-path="url(#pb3aa3cc521)" style="fill: none; stroke: #000000; stroke-opacity: 0.1; stroke-width: 1.5; stroke-linecap: square"/>
   </g>
   <g id="line2d_44">
    <path d="M 85.64917 211.776 
L 85.64917 137.856 
" clip-path="url(#pb3aa3cc521)" style="fill: none; stroke: #000000; stroke-opacity: 0.1; stroke-width: 1.5; stroke-linecap: square"/>
   </g>
   <g id="line2d_45">
    <path d="M 101.427246 211.776 
L 101.427246 137.856 
" clip-path="url(#pb3aa3cc521)" style="fill: none; stroke: #000000; stroke-opacity: 0.1; stroke-width: 1.5; stroke-linecap: square"/>
   </g>
   <g id="line2d_46">
    <path d="M 117.205566 211.776 
L 117.205566 137.856 
" clip-path="url(#pb3aa3cc521)" style="fill: none; stroke: #000000; stroke-opacity: 0.1; stroke-width: 1.5; stroke-linecap: square"/>
   </g>
   <g id="line2d_47">
    <path d="M 132.983887 211.776 
L 132.983887 137.856 
" clip-path="url(#pb3aa3cc521)" style="fill: none; stroke: #000000; stroke-opacity: 0.1; stroke-width: 1.5; stroke-linecap: square"/>
   </g>
   <g id="line2d_48">
    <path d="M 148.761963 211.776 
L 148.761963 137.856 
" clip-path="url(#pb3aa3cc521)" style="fill: none; stroke: #000000; stroke-opacity: 0.1; stroke-width: 1.5; stroke-linecap: square"/>
   </g>
   <g id="line2d_49">
    <path d="M 164.540039 211.776 
L 164.540039 137.856 
" clip-path="url(#pb3aa3cc521)" style="fill: none; stroke: #000000; stroke-opacity: 0.1; stroke-width: 1.5; stroke-linecap: square"/>
   </g>
   <g id="line2d_50">
    <path d="M 180.318115 211.776 
L 180.318115 137.856 
" clip-path="url(#pb3aa3cc521)" style="fill: none; stroke: #000000; stroke-opacity: 0.1; stroke-width: 1.5; stroke-linecap: square"/>
   </g>
   <g id="line2d_51">
    <path d="M 196.096436 211.776 
L 196.096436 137.856 
" clip-path="url(#pb3aa3cc521)" style="fill: none; stroke: #000000; stroke-opacity: 0.1; stroke-width: 1.5; stroke-linecap: square"/>
   </g>
   <g id="line2d_52">
    <path d="M 211.874512 211.776 
L 211.874512 137.856 
" clip-path="url(#pb3aa3cc521)" style="fill: none; stroke: #000000; stroke-opacity: 0.1; stroke-width: 1.5; stroke-linecap: square"/>
   </g>
   <g id="line2d_53">
    <path d="M 227.652588 211.776 
L 227.652588 137.856 
" clip-path="url(#pb3aa3cc521)" style="fill: none; stroke: #000000; stroke-opacity: 0.1; stroke-width: 1.5; stroke-linecap: square"/>
   </g>
   <g id="line2d_54">
    <path d="M 243.430908 211.776 
L 243.430908 137.856 
" clip-path="url(#pb3aa3cc521)" style="fill: none; stroke: #000000; stroke-opacity: 0.1; stroke-width: 1.5; stroke-linecap: square"/>
   </g>
   <g id="line2d_55">
    <path d="M 259.209229 211.776 
L 259.209229 137.856 
" clip-path="url(#pb3aa3cc521)" style="fill: none; stroke: #000000; stroke-opacity: 0.1; stroke-width: 1.5; stroke-linecap: square"/>
   </g>
   <g id="line2d_56">
    <path d="M 274.987305 211.776 
L 274.987305 137.856 
" clip-path="url(#pb3aa3cc521)" style="fill: none; stroke: #000000; stroke-opacity: 0.1; stroke-width: 1.5; stroke-linecap: square"/>
   </g>
   <g id="line2d_57">
    <path d="M 290.765381 211.776 
L 290.765381 137.856 
" clip-path="url(#pb3aa3cc521)" style="fill: none; stroke: #000000; stroke-opacity: 0.1; stroke-width: 1.5; stroke-linecap: square"/>
   </g>
   <g id="line2d_58">
    <path d="M 306.543457 211.776 
L 306.543457 137.856 
" clip-path="url(#pb3aa3cc521)" style="fill: none; stroke: #000000; stroke-opacity: 0.1; stroke-width: 1.5; stroke-linecap: square"/>
   </g>
   <g id="line2d_59">
    <path d="M 322.321533 211.776 
L 322.321533 137.856 
" clip-path="url(#pb3aa3cc521)" style="fill: none; stroke: #000000; stroke-opacity: 0.1; stroke-width: 1.5; stroke-linecap: square"/>
   </g>
   <g id="line2d_60">
    <path d="M 338.099854 211.776 
L 338.099854 137.856 
" clip-path="url(#pb3aa3cc521)" style="fill: none; stroke: #000000; stroke-opacity: 0.1; stroke-width: 1.5; stroke-linecap: square"/>
   </g>
   <g id="line2d_61">
    <path d="M 353.878174 211.776 
L 353.878174 137.856 
" clip-path="url(#pb3aa3cc521)" style="fill: none; stroke: #000000; stroke-opacity: 0.1; stroke-width: 1.5; stroke-linecap: square"/>
   </g>
   <g id="line2d_62">
    <path d="M 369.65625 211.776 
L 369.65625 137.856 
" clip-path="url(#pb3aa3cc521)" style="fill: none; stroke: #000000; stroke-opacity: 0.1; stroke-width: 1.5; stroke-linecap: square"/>
   </g>
   <g id="patch_9">
    <path d="M 44.546875 211.776 
L 44.546875 137.856 
" style="fill: none; stroke: #000000; stroke-width: 0.8; stroke-linejoin: miter; stroke-linecap: square"/>
   </g>
   <g id="patch_10">
    <path d="M 401.666875 211.776 
L 401.666875 137.856 
" style="fill: none; stroke: #000000; stroke-width: 0.8; stroke-linejoin: miter; stroke-linecap: square"/>
   </g>
   <g id="patch_11">
    <path d="M 44.547119 211.776 
L 401.666992 211.776 
" style="fill: none; stroke: #000000; stroke-width: 0.8; stroke-linejoin: miter; stroke-linecap: square"/>
   </g>
   <g id="patch_12">
    <path d="M 44.547119 137.856 
L 401.666992 137.856 
" style="fill: none; stroke: #000000; stroke-width: 0.8; stroke-linejoin: miter; stroke-linecap: square"/>
   </g>
   <g id="text_11">
    <!-- BW.RJOB..EHN -->
    <g transform="translate(187.267813 131.856) scale(0.1 -0.1)">
     <defs>
      <path id="ArialMT-4e" d="M 488 0 
L 488 4581 
L 1109 4581 
L 3516 984 
L 3516 4581 
L 4097 4581 
L 4097 0 
L 3475 0 
L 1069 3600 
L 1069 0 
L 488 0 
z
" transform="scale(0.015625)"/>
     </defs>
     <use xlink:href="#ArialMT-42"/>
     <use xlink:href="#ArialMT-57" x="66.699219"/>
     <use xlink:href="#ArialMT-2e" x="155.583984"/>
     <use xlink:href="#ArialMT-52" x="183.367188"/>
     <use xlink:href="#ArialMT-4a" x="255.583984"/>
     <use xlink:href="#ArialMT-4f" x="305.583984"/>
     <use xlink:href="#ArialMT-42" x="383.367188"/>
     <use xlink:href="#ArialMT-2e" x="450.066406"/>
     <use xlink:href="#ArialMT-2e" x="477.849609"/>
     <use xlink:href="#ArialMT-45" x="505.632812"/>
     <use xlink:href="#ArialMT-48" x="572.332031"/>
     <use xlink:href="#ArialMT-4e" x="644.548828"/>
    </g>
   </g>
  </g>
  <g id="axes_3">
   <g id="patch_13">
    <path d="M 44.546875 307.872 
L 401.666875 307.872 
L 401.666875 233.952 
L 44.546875 233.952 
z
" style="fill: #ffffff"/>
   </g>
   <g id="matplotlib.axis_5">
    <g id="xtick_11">
     <g id="line2d_63">
      <g>
       <use xlink:href="#m45618942d2" x="62.759766" y="307.872" style="stroke: #000000; stroke-width: 0.8"/>
      </g>
     </g>
     <g id="text_12">
      <!-- 20.00 -->
      <g transform="translate(50.248828 322.029812) scale(0.1 -0.1)">
       <defs>
        <path id="ArialMT-32" d="M 3222 541 
L 3222 0 
L 194 0 
Q 188 203 259 391 
Q 375 700 629 1000 
Q 884 1300 1366 1694 
Q 2113 2306 2375 2664 
Q 2638 3022 2638 3341 
Q 2638 3675 2398 3904 
Q 2159 4134 1775 4134 
Q 1369 4134 1125 3890 
Q 881 3647 878 3216 
L 300 3275 
Q 359 3922 746 4261 
Q 1134 4600 1788 4600 
Q 2447 4600 2831 4234 
Q 3216 3869 3216 3328 
Q 3216 3053 3103 2787 
Q 2991 2522 2730 2228 
Q 2469 1934 1863 1422 
Q 1356 997 1212 845 
Q 1069 694 975 541 
L 3222 541 
z
" transform="scale(0.015625)"/>
       </defs>
       <use xlink:href="#ArialMT-32"/>
       <use xlink:href="#ArialMT-30" x="55.615234"/>
       <use xlink:href="#ArialMT-2e" x="111.230469"/>
       <use xlink:href="#ArialMT-30" x="139.013672"/>
       <use xlink:href="#ArialMT-30" x="194.628906"/>
      </g>
     </g>
    </g>
    <g id="xtick_12">
     <g id="line2d_64">
      <g>
       <use xlink:href="#m45618942d2" x="141.650635" y="307.872" style="stroke: #000000; stroke-width: 0.8"/>
      </g>
     </g>
     <g id="text_13">
      <!-- 20.05 -->
      <g transform="translate(129.139697 322.029812) scale(0.1 -0.1)">
       <use xlink:href="#ArialMT-32"/>
       <use xlink:href="#ArialMT-30" x="55.615234"/>
       <use xlink:href="#ArialMT-2e" x="111.230469"/>
       <use xlink:href="#ArialMT-30" x="139.013672"/>
       <use xlink:href="#ArialMT-35" x="194.628906"/>
      </g>
     </g>
    </g>
    <g id="xtick_13">
     <g id="line2d_65">
      <g>
       <use xlink:href="#m45618942d2" x="220.541504" y="307.872" style="stroke: #000000; stroke-width: 0.8"/>
      </g>
     </g>
     <g id="text_14">
      <!-- 20.10 -->
      <g transform="translate(208.030566 322.029812) scale(0.1 -0.1)">
       <defs>
        <path id="ArialMT-31" d="M 2384 0 
L 1822 0 
L 1822 3584 
Q 1619 3391 1289 3197 
Q 959 3003 697 2906 
L 697 3450 
Q 1169 3672 1522 3987 
Q 1875 4303 2022 4600 
L 2384 4600 
L 2384 0 
z
" transform="scale(0.015625)"/>
       </defs>
       <use xlink:href="#ArialMT-32"/>
       <use xlink:href="#ArialMT-30" x="55.615234"/>
       <use xlink:href="#ArialMT-2e" x="111.230469"/>
       <use xlink:href="#ArialMT-31" x="139.013672"/>
       <use xlink:href="#ArialMT-30" x="194.628906"/>
      </g>
     </g>
    </g>
    <g id="xtick_14">
     <g id="line2d_66">
      <g>
       <use xlink:href="#m45618942d2" x="299.432373" y="307.872" style="stroke: #000000; stroke-width: 0.8"/>
      </g>
     </g>
     <g id="text_15">
      <!-- 20.15 -->
      <g transform="translate(286.921436 322.029812) scale(0.1 -0.1)">
       <use xlink:href="#ArialMT-32"/>
       <use xlink:href="#ArialMT-30" x="55.615234"/>
       <use xlink:href="#ArialMT-2e" x="111.230469"/>
       <use xlink:href="#ArialMT-31" x="139.013672"/>
       <use xlink:href="#ArialMT-35" x="194.628906"/>
      </g>
     </g>
    </g>
    <g id="xtick_15">
     <g id="line2d_67">
      <g>
       <use xlink:href="#m45618942d2" x="378.322998" y="307.872" style="stroke: #000000; stroke-width: 0.8"/>
      </g>
     </g>
     <g id="text_16">
      <!-- 20.20 -->
      <g transform="translate(365.812061 322.029812) scale(0.1 -0.1)">
       <use xlink:href="#ArialMT-32"/>
       <use xlink:href="#ArialMT-30" x="55.615234"/>
       <use xlink:href="#ArialMT-2e" x="111.230469"/>
       <use xlink:href="#ArialMT-32" x="139.013672"/>
       <use xlink:href="#ArialMT-30" x="194.628906"/>
      </g>
     </g>
    </g>
    <g id="text_17">
     <!-- 2009-Aug-24 00:20 -->
     <g transform="translate(316.049688 334.204812) scale(0.1 -0.1)">
      <defs>
       <path id="ArialMT-39" d="M 350 1059 
L 891 1109 
Q 959 728 1153 556 
Q 1347 384 1650 384 
Q 1909 384 2104 503 
Q 2300 622 2425 820 
Q 2550 1019 2634 1356 
Q 2719 1694 2719 2044 
Q 2719 2081 2716 2156 
Q 2547 1888 2255 1720 
Q 1963 1553 1622 1553 
Q 1053 1553 659 1965 
Q 266 2378 266 3053 
Q 266 3750 677 4175 
Q 1088 4600 1706 4600 
Q 2153 4600 2523 4359 
Q 2894 4119 3086 3673 
Q 3278 3228 3278 2384 
Q 3278 1506 3087 986 
Q 2897 466 2520 194 
Q 2144 -78 1638 -78 
Q 1100 -78 759 220 
Q 419 519 350 1059 
z
M 2653 3081 
Q 2653 3566 2395 3850 
Q 2138 4134 1775 4134 
Q 1400 4134 1122 3828 
Q 844 3522 844 3034 
Q 844 2597 1108 2323 
Q 1372 2050 1759 2050 
Q 2150 2050 2401 2323 
Q 2653 2597 2653 3081 
z
" transform="scale(0.015625)"/>
       <path id="ArialMT-2d" d="M 203 1375 
L 203 1941 
L 1931 1941 
L 1931 1375 
L 203 1375 
z
" transform="scale(0.015625)"/>
       <path id="ArialMT-41" d="M -9 0 
L 1750 4581 
L 2403 4581 
L 4278 0 
L 3588 0 
L 3053 1388 
L 1138 1388 
L 634 0 
L -9 0 
z
M 1313 1881 
L 2866 1881 
L 2388 3150 
Q 2169 3728 2063 4100 
Q 1975 3659 1816 3225 
L 1313 1881 
z
" transform="scale(0.015625)"/>
       <path id="ArialMT-34" d="M 2069 0 
L 2069 1097 
L 81 1097 
L 81 1613 
L 2172 4581 
L 2631 4581 
L 2631 1613 
L 3250 1613 
L 3250 1097 
L 2631 1097 
L 2631 0 
L 2069 0 
z
M 2069 1613 
L 2069 3678 
L 634 1613 
L 2069 1613 
z
" transform="scale(0.015625)"/>
       <path id="ArialMT-3a" d="M 578 2678 
L 578 3319 
L 1219 3319 
L 1219 2678 
L 578 2678 
z
M 578 0 
L 578 641 
L 1219 641 
L 1219 0 
L 578 0 
z
" transform="scale(0.015625)"/>
      </defs>
      <use xlink:href="#ArialMT-32"/>
      <use xlink:href="#ArialMT-30" x="55.615234"/>
      <use xlink:href="#ArialMT-30" x="111.230469"/>
      <use xlink:href="#ArialMT-39" x="166.845703"/>
      <use xlink:href="#ArialMT-2d" x="222.460938"/>
      <use xlink:href="#ArialMT-41" x="255.761719"/>
      <use xlink:href="#ArialMT-75" x="322.460938"/>
      <use xlink:href="#ArialMT-67" x="378.076172"/>
      <use xlink:href="#ArialMT-2d" x="433.691406"/>
      <use xlink:href="#ArialMT-32" x="466.992188"/>
      <use xlink:href="#ArialMT-34" x="522.607422"/>
      <use xlink:href="#ArialMT-20" x="578.222656"/>
      <use xlink:href="#ArialMT-30" x="606.005859"/>
      <use xlink:href="#ArialMT-30" x="661.621094"/>
      <use xlink:href="#ArialMT-3a" x="717.236328"/>
      <use xlink:href="#ArialMT-32" x="745.019531"/>
      <use xlink:href="#ArialMT-30" x="800.634766"/>
     </g>
    </g>
   </g>
   <g id="matplotlib.axis_6">
    <g id="ytick_7">
     <g id="line2d_68">
      <g>
       <use xlink:href="#mf0924e7404" x="44.546875" y="307.490313" style="stroke: #000000; stroke-width: 0.8"/>
      </g>
     </g>
     <g id="text_18">
      <!-- −50 -->
      <g transform="translate(20.584375 311.069219) scale(0.1 -0.1)">
       <use xlink:href="#ArialMT-2212"/>
       <use xlink:href="#ArialMT-35" x="58.398438"/>
       <use xlink:href="#ArialMT-30" x="114.013672"/>
      </g>
     </g>
    </g>
    <g id="ytick_8">
     <g id="line2d_69">
      <g>
       <use xlink:href="#mf0924e7404" x="44.546875" y="275.932088" style="stroke: #000000; stroke-width: 0.8"/>
      </g>
     </g>
     <g id="text_19">
      <!-- 0 -->
      <g transform="translate(31.985938 279.510994) scale(0.1 -0.1)">
       <use xlink:href="#ArialMT-30"/>
      </g>
     </g>
    </g>
    <g id="ytick_9">
     <g id="line2d_70">
      <g>
       <use xlink:href="#mf0924e7404" x="44.546875" y="244.373862" style="stroke: #000000; stroke-width: 0.8"/>
      </g>
     </g>
     <g id="text_20">
      <!-- 50 -->
      <g transform="translate(26.425 247.952768) scale(0.1 -0.1)">
       <use xlink:href="#ArialMT-35"/>
       <use xlink:href="#ArialMT-30" x="55.615234"/>
      </g>
     </g>
    </g>
   </g>
   <g id="line2d_71">
    <path d="M 66.420654 238.525059 
L 82.19873 244.228395 
L 97.976807 256.641751 
L 113.754883 254.544553 
L 129.533203 264.573674 
L 145.311523 272.44562 
L 161.0896 272.315116 
L 176.867676 261.031725 
L 192.645752 268.247173 
L 208.424072 269.744047 
L 224.202148 272.153528 
L 239.980469 264.453208 
L 255.758545 268.551888 
L 271.536621 268.030847 
L 287.314941 268.026606 
L 303.093018 272.421114 
L 318.871094 293.71205 
L 334.64917 280.882134 
L 350.427734 282.660434 
L 366.205811 286.081057 
L 381.983887 300.132391 
" clip-path="url(#p9e2ea9de06)" style="fill: none; stroke: #3b97ad; stroke-width: 1.5; stroke-linecap: square"/>
    <g clip-path="url(#p9e2ea9de06)">
     <use xlink:href="#md7ca8a2af5" x="66.420654" y="238.525059" style="fill: #3b97ad; stroke: #3b97ad"/>
     <use xlink:href="#md7ca8a2af5" x="82.19873" y="244.228395" style="fill: #3b97ad; stroke: #3b97ad"/>
     <use xlink:href="#md7ca8a2af5" x="97.976807" y="256.641751" style="fill: #3b97ad; stroke: #3b97ad"/>
     <use xlink:href="#md7ca8a2af5" x="113.754883" y="254.544553" style="fill: #3b97ad; stroke: #3b97ad"/>
     <use xlink:href="#md7ca8a2af5" x="129.533203" y="264.573674" style="fill: #3b97ad; stroke: #3b97ad"/>
     <use xlink:href="#md7ca8a2af5" x="145.311523" y="272.44562" style="fill: #3b97ad; stroke: #3b97ad"/>
     <use xlink:href="#md7ca8a2af5" x="161.0896" y="272.315116" style="fill: #3b97ad; stroke: #3b97ad"/>
     <use xlink:href="#md7ca8a2af5" x="176.867676" y="261.031725" style="fill: #3b97ad; stroke: #3b97ad"/>
     <use xlink:href="#md7ca8a2af5" x="192.645752" y="268.247173" style="fill: #3b97ad; stroke: #3b97ad"/>
     <use xlink:href="#md7ca8a2af5" x="208.424072" y="269.744047" style="fill: #3b97ad; stroke: #3b97ad"/>
     <use xlink:href="#md7ca8a2af5" x="224.202148" y="272.153528" style="fill: #3b97ad; stroke: #3b97ad"/>
     <use xlink:href="#md7ca8a2af5" x="239.980469" y="264.453208" style="fill: #3b97ad; stroke: #3b97ad"/>
     <use xlink:href="#md7ca8a2af5" x="255.758545" y="268.551888" style="fill: #3b97ad; stroke: #3b97ad"/>
     <use xlink:href="#md7ca8a2af5" x="271.536621" y="268.030847" style="fill: #3b97ad; stroke: #3b97ad"/>
     <use xlink:href="#md7ca8a2af5" x="287.314941" y="268.026606" style="fill: #3b97ad; stroke: #3b97ad"/>
     <use xlink:href="#md7ca8a2af5" x="303.093018" y="272.421114" style="fill: #3b97ad; stroke: #3b97ad"/>
     <use xlink:href="#md7ca8a2af5" x="318.871094" y="293.71205" style="fill: #3b97ad; stroke: #3b97ad"/>
     <use xlink:href="#md7ca8a2af5" x="334.64917" y="280.882134" style="fill: #3b97ad; stroke: #3b97ad"/>
     <use xlink:href="#md7ca8a2af5" x="350.427734" y="282.660434" style="fill: #3b97ad; stroke: #3b97ad"/>
     <use xlink:href="#md7ca8a2af5" x="366.205811" y="286.081057" style="fill: #3b97ad; stroke: #3b97ad"/>
     <use xlink:href="#md7ca8a2af5" x="381.983887" y="300.132391" style="fill: #3b97ad; stroke: #3b97ad"/>
    </g>
   </g>
   <g id="line2d_72">
    <path d="M 69.871094 237.312 
L 85.64917 247.661392 
L 101.427246 256.751549 
L 117.205566 255.637722 
L 132.983887 266.886876 
L 148.761963 273.475128 
L 164.540039 269.782132 
L 180.318115 261.35421 
L 196.096436 269.222518 
L 211.874512 270.485648 
L 227.652588 270.790483 
L 243.430908 264.469769 
L 259.209229 269.006952 
L 274.987305 267.93231 
L 290.765381 267.735806 
L 306.543457 277.325734 
L 322.321533 293.129719 
L 338.099854 279.471552 
L 353.878174 283.594216 
L 369.65625 287.497684 
" clip-path="url(#p9e2ea9de06)" style="fill: none; stroke: #d99f23; stroke-width: 1.5; stroke-linecap: square"/>
    <g clip-path="url(#p9e2ea9de06)">
     <use xlink:href="#mf0051d48a5" x="69.871094" y="237.312" style="fill: #d99f23; stroke: #d99f23"/>
     <use xlink:href="#mf0051d48a5" x="85.64917" y="247.661392" style="fill: #d99f23; stroke: #d99f23"/>
     <use xlink:href="#mf0051d48a5" x="101.427246" y="256.751549" style="fill: #d99f23; stroke: #d99f23"/>
     <use xlink:href="#mf0051d48a5" x="117.205566" y="255.637722" style="fill: #d99f23; stroke: #d99f23"/>
     <use xlink:href="#mf0051d48a5" x="132.983887" y="266.886876" style="fill: #d99f23; stroke: #d99f23"/>
     <use xlink:href="#mf0051d48a5" x="148.761963" y="273.475128" style="fill: #d99f23; stroke: #d99f23"/>
     <use xlink:href="#mf0051d48a5" x="164.540039" y="269.782132" style="fill: #d99f23; stroke: #d99f23"/>
     <use xlink:href="#mf0051d48a5" x="180.318115" y="261.35421" style="fill: #d99f23; stroke: #d99f23"/>
     <use xlink:href="#mf0051d48a5" x="196.096436" y="269.222518" style="fill: #d99f23; stroke: #d99f23"/>
     <use xlink:href="#mf0051d48a5" x="211.874512" y="270.485648" style="fill: #d99f23; stroke: #d99f23"/>
     <use xlink:href="#mf0051d48a5" x="227.652588" y="270.790483" style="fill: #d99f23; stroke: #d99f23"/>
     <use xlink:href="#mf0051d48a5" x="243.430908" y="264.469769" style="fill: #d99f23; stroke: #d99f23"/>
     <use xlink:href="#mf0051d48a5" x="259.209229" y="269.006952" style="fill: #d99f23; stroke: #d99f23"/>
     <use xlink:href="#mf0051d48a5" x="274.987305" y="267.93231" style="fill: #d99f23; stroke: #d99f23"/>
     <use xlink:href="#mf0051d48a5" x="290.765381" y="267.735806" style="fill: #d99f23; stroke: #d99f23"/>
     <use xlink:href="#mf0051d48a5" x="306.543457" y="277.325734" style="fill: #d99f23; stroke: #d99f23"/>
     <use xlink:href="#mf0051d48a5" x="322.321533" y="293.129719" style="fill: #d99f23; stroke: #d99f23"/>
     <use xlink:href="#mf0051d48a5" x="338.099854" y="279.471552" style="fill: #d99f23; stroke: #d99f23"/>
     <use xlink:href="#mf0051d48a5" x="353.878174" y="283.594216" style="fill: #d99f23; stroke: #d99f23"/>
     <use xlink:href="#mf0051d48a5" x="369.65625" y="287.497684" style="fill: #d99f23; stroke: #d99f23"/>
    </g>
   </g>
   <g id="line2d_73">
    <path d="M 69.871094 307.872 
L 69.871094 233.952 
" clip-path="url(#p9e2ea9de06)" style="fill: none; stroke: #000000; stroke-opacity: 0.1; stroke-width: 1.5; stroke-linecap: square"/>
   </g>
   <g id="line2d_74">
    <path d="M 85.64917 307.872 
L 85.64917 233.952 
" clip-path="url(#p9e2ea9de06)" style="fill: none; stroke: #000000; stroke-opacity: 0.1; stroke-width: 1.5; stroke-linecap: square"/>
   </g>
   <g id="line2d_75">
    <path d="M 101.427246 307.872 
L 101.427246 233.952 
" clip-path="url(#p9e2ea9de06)" style="fill: none; stroke: #000000; stroke-opacity: 0.1; stroke-width: 1.5; stroke-linecap: square"/>
   </g>
   <g id="line2d_76">
    <path d="M 117.205566 307.872 
L 117.205566 233.952 
" clip-path="url(#p9e2ea9de06)" style="fill: none; stroke: #000000; stroke-opacity: 0.1; stroke-width: 1.5; stroke-linecap: square"/>
   </g>
   <g id="line2d_77">
    <path d="M 132.983887 307.872 
L 132.983887 233.952 
" clip-path="url(#p9e2ea9de06)" style="fill: none; stroke: #000000; stroke-opacity: 0.1; stroke-width: 1.5; stroke-linecap: square"/>
   </g>
   <g id="line2d_78">
    <path d="M 148.761963 307.872 
L 148.761963 233.952 
" clip-path="url(#p9e2ea9de06)" style="fill: none; stroke: #000000; stroke-opacity: 0.1; stroke-width: 1.5; stroke-linecap: square"/>
   </g>
   <g id="line2d_79">
    <path d="M 164.540039 307.872 
L 164.540039 233.952 
" clip-path="url(#p9e2ea9de06)" style="fill: none; stroke: #000000; stroke-opacity: 0.1; stroke-width: 1.5; stroke-linecap: square"/>
   </g>
   <g id="line2d_80">
    <path d="M 180.318115 307.872 
L 180.318115 233.952 
" clip-path="url(#p9e2ea9de06)" style="fill: none; stroke: #000000; stroke-opacity: 0.1; stroke-width: 1.5; stroke-linecap: square"/>
   </g>
   <g id="line2d_81">
    <path d="M 196.096436 307.872 
L 196.096436 233.952 
" clip-path="url(#p9e2ea9de06)" style="fill: none; stroke: #000000; stroke-opacity: 0.1; stroke-width: 1.5; stroke-linecap: square"/>
   </g>
   <g id="line2d_82">
    <path d="M 211.874512 307.872 
L 211.874512 233.952 
" clip-path="url(#p9e2ea9de06)" style="fill: none; stroke: #000000; stroke-opacity: 0.1; stroke-width: 1.5; stroke-linecap: square"/>
   </g>
   <g id="line2d_83">
    <path d="M 227.652588 307.872 
L 227.652588 233.952 
" clip-path="url(#p9e2ea9de06)" style="fill: none; stroke: #000000; stroke-opacity: 0.1; stroke-width: 1.5; stroke-linecap: square"/>
   </g>
   <g id="line2d_84">
    <path d="M 243.430908 307.872 
L 243.430908 233.952 
" clip-path="url(#p9e2ea9de06)" style="fill: none; stroke: #000000; stroke-opacity: 0.1; stroke-width: 1.5; stroke-linecap: square"/>
   </g>
   <g id="line2d_85">
    <path d="M 259.209229 307.872 
L 259.209229 233.952 
" clip-path="url(#p9e2ea9de06)" style="fill: none; stroke: #000000; stroke-opacity: 0.1; stroke-width: 1.5; stroke-linecap: square"/>
   </g>
   <g id="line2d_86">
    <path d="M 274.987305 307.872 
L 274.987305 233.952 
" clip-path="url(#p9e2ea9de06)" style="fill: none; stroke: #000000; stroke-opacity: 0.1; stroke-width: 1.5; stroke-linecap: square"/>
   </g>
   <g id="line2d_87">
    <path d="M 290.765381 307.872 
L 290.765381 233.952 
" clip-path="url(#p9e2ea9de06)" style="fill: none; stroke: #000000; stroke-opacity: 0.1; stroke-width: 1.5; stroke-linecap: square"/>
   </g>
   <g id="line2d_88">
    <path d="M 306.543457 307.872 
L 306.543457 233.952 
" clip-path="url(#p9e2ea9de06)" style="fill: none; stroke: #000000; stroke-opacity: 0.1; stroke-width: 1.5; stroke-linecap: square"/>
   </g>
   <g id="line2d_89">
    <path d="M 322.321533 307.872 
L 322.321533 233.952 
" clip-path="url(#p9e2ea9de06)" style="fill: none; stroke: #000000; stroke-opacity: 0.1; stroke-width: 1.5; stroke-linecap: square"/>
   </g>
   <g id="line2d_90">
    <path d="M 338.099854 307.872 
L 338.099854 233.952 
" clip-path="url(#p9e2ea9de06)" style="fill: none; stroke: #000000; stroke-opacity: 0.1; stroke-width: 1.5; stroke-linecap: square"/>
   </g>
   <g id="line2d_91">
    <path d="M 353.878174 307.872 
L 353.878174 233.952 
" clip-path="url(#p9e2ea9de06)" style="fill: none; stroke: #000000; stroke-opacity: 0.1; stroke-width: 1.5; stroke-linecap: square"/>
   </g>
   <g id="line2d_92">
    <path d="M 369.65625 307.872 
L 369.65625 233.952 
" clip-path="url(#p9e2ea9de06)" style="fill: none; stroke: #000000; stroke-opacity: 0.1; stroke-width: 1.5; stroke-linecap: square"/>
   </g>
   <g id="patch_14">
    <path d="M 44.546875 307.872 
L 44.546875 233.952 
" style="fill: none; stroke: #000000; stroke-width: 0.8; stroke-linejoin: miter; stroke-linecap: square"/>
   </g>
   <g id="patch_15">
    <path d="M 401.666875 307.872 
L 401.666875 233.952 
" style="fill: none; stroke: #000000; stroke-width: 0.8; stroke-linejoin: miter; stroke-linecap: square"/>
   </g>
   <g id="patch_16">
    <path d="M 44.547119 307.872 
L 401.666992 307.872 
" style="fill: none; stroke: #000000; stroke-width: 0.8; stroke-linejoin: miter; stroke-linecap: square"/>
   </g>
   <g id="patch_17">
    <path d="M 44.547119 233.952 
L 401.666992 233.952 
" style="fill: none; stroke: #000000; stroke-width: 0.8; stroke-linejoin: miter; stroke-linecap: square"/>
   </g>
   <g id="text_21">
    <!-- BW.RJOB..EHE -->
    <g transform="translate(187.543594 227.952) scale(0.1 -0.1)">
     <use xlink:href="#ArialMT-42"/>
     <use xlink:href="#ArialMT-57" x="66.699219"/>
     <use xlink:href="#ArialMT-2e" x="155.583984"/>
     <use xlink:href="#ArialMT-52" x="183.367188"/>
     <use xlink:href="#ArialMT-4a" x="255.583984"/>
     <use xlink:href="#ArialMT-4f" x="305.583984"/>
     <use xlink:href="#ArialMT-42" x="383.367188"/>
     <use xlink:href="#ArialMT-2e" x="450.066406"/>
     <use xlink:href="#ArialMT-2e" x="477.849609"/>
     <use xlink:href="#ArialMT-45" x="505.632812"/>
     <use xlink:href="#ArialMT-48" x="572.332031"/>
     <use xlink:href="#ArialMT-45" x="644.548828"/>
    </g>
   </g>
  </g>
  <g id="text_22">
   <!-- Synchronization of seismic traces -->
   <g transform="translate(128.315313 15.935625) scale(0.12 -0.12)">
    <defs>
     <path id="ArialMT-68" d="M 422 0 
L 422 4581 
L 984 4581 
L 984 2938 
Q 1378 3394 1978 3394 
Q 2347 3394 2619 3248 
Q 2891 3103 3008 2847 
Q 3125 2591 3125 2103 
L 3125 0 
L 2563 0 
L 2563 2103 
Q 2563 2525 2380 2717 
Q 2197 2909 1863 2909 
Q 1613 2909 1392 2779 
Q 1172 2650 1078 2428 
Q 984 2206 984 1816 
L 984 0 
L 422 0 
z
" transform="scale(0.015625)"/>
     <path id="ArialMT-7a" d="M 125 0 
L 125 456 
L 2238 2881 
Q 1878 2863 1603 2863 
L 250 2863 
L 250 3319 
L 2963 3319 
L 2963 2947 
L 1166 841 
L 819 456 
Q 1197 484 1528 484 
L 3063 484 
L 3063 0 
L 125 0 
z
" transform="scale(0.015625)"/>
     <path id="ArialMT-66" d="M 556 0 
L 556 2881 
L 59 2881 
L 59 3319 
L 556 3319 
L 556 3672 
Q 556 4006 616 4169 
Q 697 4388 901 4523 
Q 1106 4659 1475 4659 
Q 1713 4659 2000 4603 
L 1916 4113 
Q 1741 4144 1584 4144 
Q 1328 4144 1222 4034 
Q 1116 3925 1116 3625 
L 1116 3319 
L 1763 3319 
L 1763 2881 
L 1116 2881 
L 1116 0 
L 556 0 
z
" transform="scale(0.015625)"/>
    </defs>
    <use xlink:href="#ArialMT-53"/>
    <use xlink:href="#ArialMT-79" x="66.699219"/>
    <use xlink:href="#ArialMT-6e" x="116.699219"/>
    <use xlink:href="#ArialMT-63" x="172.314453"/>
    <use xlink:href="#ArialMT-68" x="222.314453"/>
    <use xlink:href="#ArialMT-72" x="277.929688"/>
    <use xlink:href="#ArialMT-6f" x="311.230469"/>
    <use xlink:href="#ArialMT-6e" x="366.845703"/>
    <use xlink:href="#ArialMT-69" x="422.460938"/>
    <use xlink:href="#ArialMT-7a" x="444.677734"/>
    <use xlink:href="#ArialMT-61" x="494.677734"/>
    <use xlink:href="#ArialMT-74" x="550.292969"/>
    <use xlink:href="#ArialMT-69" x="578.076172"/>
    <use xlink:href="#ArialMT-6f" x="600.292969"/>
    <use xlink:href="#ArialMT-6e" x="655.908203"/>
    <use xlink:href="#ArialMT-20" x="711.523438"/>
    <use xlink:href="#ArialMT-6f" x="739.306641"/>
    <use xlink:href="#ArialMT-66" x="794.921875"/>
    <use xlink:href="#ArialMT-20" x="822.705078"/>
    <use xlink:href="#ArialMT-73" x="850.488281"/>
    <use xlink:href="#ArialMT-65" x="900.488281"/>
    <use xlink:href="#ArialMT-69" x="956.103516"/>
    <use xlink:href="#ArialMT-73" x="978.320312"/>
    <use xlink:href="#ArialMT-6d" x="1028.320312"/>
    <use xlink:href="#ArialMT-69" x="1111.621094"/>
    <use xlink:href="#ArialMT-63" x="1133.837891"/>
    <use xlink:href="#ArialMT-20" x="1183.837891"/>
    <use xlink:href="#ArialMT-74" x="1211.621094"/>
    <use xlink:href="#ArialMT-72" x="1239.404297"/>
    <use xlink:href="#ArialMT-61" x="1272.705078"/>
    <use xlink:href="#ArialMT-63" x="1328.320312"/>
    <use xlink:href="#ArialMT-65" x="1378.320312"/>
    <use xlink:href="#ArialMT-73" x="1433.935547"/>
   </g>
  </g>
 </g>
 <defs>
  <clipPath id="p0e5bc2dc32">
   <rect x="44.546875" y="41.76" width="357.12" height="73.92"/>
  </clipPath>
  <clipPath id="pb3aa3cc521">
   <rect x="44.546875" y="137.856" width="357.12" height="73.92"/>
  </clipPath>
  <clipPath id="p9e2ea9de06">
   <rect x="44.546875" y="233.952" width="357.12" height="73.92"/>
  </clipPath>
 </defs>
</svg>
