<?xml version="1.0" encoding="utf-8" standalone="no"?>
<!DOCTYPE svg PUBLIC "-//W3C//DTD SVG 1.1//EN"
  "http://www.w3.org/Graphics/SVG/1.1/DTD/svg11.dtd">
<svg xmlns:xlink="http://www.w3.org/1999/xlink" width="360pt" height="360pt" viewBox="0 0 360 360" xmlns="http://www.w3.org/2000/svg" version="1.1">
 <metadata>
  <rdf:RDF xmlns:dc="http://purl.org/dc/elements/1.1/" xmlns:cc="http://creativecommons.org/ns#" xmlns:rdf="http://www.w3.org/1999/02/22-rdf-syntax-ns#">
   <cc:Work>
    <dc:type rdf:resource="http://purl.org/dc/dcmitype/StillImage"/>
    <dc:date>2025-01-09T13:21:45.592183</dc:date>
    <dc:format>image/svg+xml</dc:format>
    <dc:creator>
     <cc:Agent>
      <dc:title>Matplotlib v3.10.0, https://matplotlib.org/</dc:title>
     </cc:Agent>
    </dc:creator>
   </cc:Work>
  </rdf:RDF>
 </metadata>
 <defs>
  <style type="text/css">*{stroke-linejoin: round; stroke-linecap: butt}</style>
 </defs>
 <g id="figure_1">
  <g id="patch_1">
   <path d="M 0 360 
L 360 360 
L 360 0 
L 0 0 
z
" style="fill: #ffffff"/>
  </g>
  <g id="axes_1">
   <g id="patch_2">
    <path d="M 45 209.436882 
L 214.090909 209.436882 
L 214.090909 43.2 
L 45 43.2 
z
" style="fill: #ffffff"/>
   </g>
   <g id="QuadContourSet_1">
    <path d="M 63.787879 209.436882 
L 67.248804 209.436882 
L 63.787879 206.034372 
L 48.460925 190.966117 
L 45 187.563608 
L 45 190.966117 
L 45 209.436882 
z
" clip-path="url(#p5aece8576f)" style="fill: #460a5d"/>
    <path d="M 63.787879 206.034372 
L 67.248804 209.436882 
L 82.575758 209.436882 
L 89.497608 209.436882 
L 82.575758 202.631863 
L 70.709729 190.966117 
L 63.787879 184.161098 
L 51.92185 172.495352 
L 45 165.690334 
L 45 172.495352 
L 45 187.563608 
L 48.460925 190.966117 
z
" clip-path="url(#p5aece8576f)" style="fill: #481d6f"/>
    <path d="M 82.575758 202.631863 
L 89.497608 209.436882 
L 101.363636 209.436882 
L 111.746411 209.436882 
L 101.363636 199.229354 
L 92.958533 190.966117 
L 82.575758 180.758589 
L 74.170654 172.495352 
L 63.787879 162.287825 
L 55.382775 154.024588 
L 45 143.81706 
L 45 154.024588 
L 45 165.690334 
L 51.92185 172.495352 
L 63.787879 184.161098 
L 70.709729 190.966117 
z
" clip-path="url(#p5aece8576f)" style="fill: #472e7c"/>
    <path d="M 101.363636 199.229354 
L 111.746411 209.436882 
L 120.151515 209.436882 
L 133.995215 209.436882 
L 120.151515 195.826844 
L 115.207337 190.966117 
L 101.363636 177.35608 
L 96.419458 172.495352 
L 82.575758 158.885315 
L 77.631579 154.024588 
L 63.787879 140.414551 
L 58.8437 135.553823 
L 45 121.943786 
L 45 135.553823 
L 45 143.81706 
L 55.382775 154.024588 
L 63.787879 162.287825 
L 74.170654 172.495352 
L 82.575758 180.758589 
L 92.958533 190.966117 
z
" clip-path="url(#p5aece8576f)" style="fill: #423f85"/>
    <path d="M 120.151515 195.826844 
L 133.995215 209.436882 
L 138.939394 209.436882 
L 156.244019 209.436882 
L 138.939394 192.424335 
L 137.45614 190.966117 
L 120.151515 173.953571 
L 118.668262 172.495352 
L 101.363636 155.482806 
L 99.880383 154.024588 
L 82.575758 137.012041 
L 81.092504 135.553823 
L 63.787879 118.541277 
L 62.304625 117.083058 
L 45 100.070512 
L 45 117.083058 
L 45 121.943786 
L 58.8437 135.553823 
L 63.787879 140.414551 
L 77.631579 154.024588 
L 82.575758 158.885315 
L 96.419458 172.495352 
L 101.363636 177.35608 
L 115.207337 190.966117 
z
" clip-path="url(#p5aece8576f)" style="fill: #3d4e8a"/>
    <path d="M 138.939394 192.424335 
L 156.244019 209.436882 
L 157.727273 209.436882 
L 176.515152 209.436882 
L 178.492823 209.436882 
L 176.515152 207.492591 
L 159.704944 190.966117 
L 157.727273 189.021826 
L 140.917065 172.495352 
L 138.939394 170.551061 
L 122.129187 154.024588 
L 120.151515 152.080297 
L 103.341308 135.553823 
L 101.363636 133.609532 
L 84.553429 117.083058 
L 82.575758 115.138767 
L 65.76555 98.612294 
L 63.787879 96.668003 
L 46.977671 80.141529 
L 45 78.197238 
L 45 80.141529 
L 45 98.612294 
L 45 100.070512 
L 62.304625 117.083058 
L 63.787879 118.541277 
L 81.092504 135.553823 
L 82.575758 137.012041 
L 99.880383 154.024588 
L 101.363636 155.482806 
L 118.668262 172.495352 
L 120.151515 173.953571 
L 137.45614 190.966117 
z
" clip-path="url(#p5aece8576f)" style="fill: #365d8d"/>
    <path d="M 176.515152 207.492591 
L 178.492823 209.436882 
L 195.30303 209.436882 
L 200.741627 209.436882 
L 195.30303 204.090081 
L 181.953748 190.966117 
L 176.515152 185.619317 
L 163.165869 172.495352 
L 157.727273 167.148552 
L 144.37799 154.024588 
L 138.939394 148.677787 
L 125.590112 135.553823 
L 120.151515 130.207023 
L 106.802233 117.083058 
L 101.363636 111.736258 
L 88.014354 98.612294 
L 82.575758 93.265494 
L 69.226475 80.141529 
L 63.787879 74.794729 
L 50.438596 61.670765 
L 45 56.323964 
L 45 61.670765 
L 45 78.197238 
L 46.977671 80.141529 
L 63.787879 96.668003 
L 65.76555 98.612294 
L 82.575758 115.138767 
L 84.553429 117.083058 
L 101.363636 133.609532 
L 103.341308 135.553823 
L 120.151515 152.080297 
L 122.129187 154.024588 
L 138.939394 170.551061 
L 140.917065 172.495352 
L 157.727273 189.021826 
L 159.704944 190.966117 
z
" clip-path="url(#p5aece8576f)" style="fill: #306a8e"/>
    <path d="M 195.30303 204.090081 
L 200.741627 209.436882 
L 214.090909 209.436882 
L 214.090909 200.687572 
L 204.202552 190.966117 
L 195.30303 182.216807 
L 185.414673 172.495352 
L 176.515152 163.746043 
L 166.626794 154.024588 
L 157.727273 145.275278 
L 147.838915 135.553823 
L 138.939394 126.804514 
L 129.051037 117.083058 
L 120.151515 108.333749 
L 110.263158 98.612294 
L 101.363636 89.862984 
L 91.475279 80.141529 
L 82.575758 71.39222 
L 72.6874 61.670765 
L 63.787879 52.921455 
L 53.899522 43.2 
L 45 43.2 
L 45 56.323964 
L 50.438596 61.670765 
L 63.787879 74.794729 
L 69.226475 80.141529 
L 82.575758 93.265494 
L 88.014354 98.612294 
L 101.363636 111.736258 
L 106.802233 117.083058 
L 120.151515 130.207023 
L 125.590112 135.553823 
L 138.939394 148.677787 
L 144.37799 154.024588 
L 157.727273 167.148552 
L 163.165869 172.495352 
L 176.515152 185.619317 
L 181.953748 190.966117 
z
" clip-path="url(#p5aece8576f)" style="fill: #2a778e"/>
    <path d="M 214.090909 200.687572 
L 214.090909 190.966117 
L 214.090909 178.814298 
L 207.663477 172.495352 
L 195.30303 160.343533 
L 188.875598 154.024588 
L 176.515152 141.872769 
L 170.087719 135.553823 
L 157.727273 123.402004 
L 151.299841 117.083058 
L 138.939394 104.93124 
L 132.511962 98.612294 
L 120.151515 86.460475 
L 113.724083 80.141529 
L 101.363636 67.98971 
L 94.936204 61.670765 
L 82.575758 49.518946 
L 76.148325 43.2 
L 63.787879 43.2 
L 53.899522 43.2 
L 63.787879 52.921455 
L 72.6874 61.670765 
L 82.575758 71.39222 
L 91.475279 80.141529 
L 101.363636 89.862984 
L 110.263158 98.612294 
L 120.151515 108.333749 
L 129.051037 117.083058 
L 138.939394 126.804514 
L 147.838915 135.553823 
L 157.727273 145.275278 
L 166.626794 154.024588 
L 176.515152 163.746043 
L 185.414673 172.495352 
L 195.30303 182.216807 
L 204.202552 190.966117 
z
" clip-path="url(#p5aece8576f)" style="fill: #25838e"/>
    <path d="M 214.090909 178.814298 
L 214.090909 172.495352 
L 214.090909 156.941024 
L 211.124402 154.024588 
L 195.30303 138.47026 
L 192.336523 135.553823 
L 176.515152 119.999495 
L 173.548644 117.083058 
L 157.727273 101.52873 
L 154.760766 98.612294 
L 138.939394 83.057966 
L 135.972887 80.141529 
L 120.151515 64.587201 
L 117.185008 61.670765 
L 101.363636 46.116437 
L 98.397129 43.2 
L 82.575758 43.2 
L 76.148325 43.2 
L 82.575758 49.518946 
L 94.936204 61.670765 
L 101.363636 67.98971 
L 113.724083 80.141529 
L 120.151515 86.460475 
L 132.511962 98.612294 
L 138.939394 104.93124 
L 151.299841 117.083058 
L 157.727273 123.402004 
L 170.087719 135.553823 
L 176.515152 141.872769 
L 188.875598 154.024588 
L 195.30303 160.343533 
L 207.663477 172.495352 
z
" clip-path="url(#p5aece8576f)" style="fill: #21918c"/>
    <path d="M 214.090909 156.941024 
L 214.090909 154.024588 
L 214.090909 135.553823 
L 214.090909 135.06775 
L 195.797448 117.083058 
L 195.30303 116.596986 
L 177.009569 98.612294 
L 176.515152 98.126221 
L 158.221691 80.141529 
L 157.727273 79.655456 
L 139.433812 61.670765 
L 138.939394 61.184692 
L 120.645933 43.2 
L 120.151515 43.2 
L 101.363636 43.2 
L 98.397129 43.2 
L 101.363636 46.116437 
L 117.185008 61.670765 
L 120.151515 64.587201 
L 135.972887 80.141529 
L 138.939394 83.057966 
L 154.760766 98.612294 
L 157.727273 101.52873 
L 173.548644 117.083058 
L 176.515152 119.999495 
L 192.336523 135.553823 
L 195.30303 138.47026 
L 211.124402 154.024588 
z
" clip-path="url(#p5aece8576f)" style="fill: #1e9d89"/>
    <path d="M 214.090909 135.06775 
L 214.090909 117.083058 
L 214.090909 113.194476 
L 199.258373 98.612294 
L 195.30303 94.723712 
L 180.470494 80.141529 
L 176.515152 76.252947 
L 161.682616 61.670765 
L 157.727273 57.782183 
L 142.894737 43.2 
L 138.939394 43.2 
L 120.645933 43.2 
L 138.939394 61.184692 
L 139.433812 61.670765 
L 157.727273 79.655456 
L 158.221691 80.141529 
L 176.515152 98.126221 
L 177.009569 98.612294 
L 195.30303 116.596986 
L 195.797448 117.083058 
z
" clip-path="url(#p5aece8576f)" style="fill: #23a983"/>
    <path d="M 214.090909 113.194476 
L 214.090909 98.612294 
L 214.090909 91.321203 
L 202.719298 80.141529 
L 195.30303 72.850438 
L 183.931419 61.670765 
L 176.515152 54.379673 
L 165.143541 43.2 
L 157.727273 43.2 
L 142.894737 43.2 
L 157.727273 57.782183 
L 161.682616 61.670765 
L 176.515152 76.252947 
L 180.470494 80.141529 
L 195.30303 94.723712 
L 199.258373 98.612294 
z
" clip-path="url(#p5aece8576f)" style="fill: #32b67a"/>
    <path d="M 214.090909 91.321203 
L 214.090909 80.141529 
L 214.090909 69.447929 
L 206.180223 61.670765 
L 195.30303 50.977164 
L 187.392344 43.2 
L 176.515152 43.2 
L 165.143541 43.2 
L 176.515152 54.379673 
L 183.931419 61.670765 
L 195.30303 72.850438 
L 202.719298 80.141529 
z
" clip-path="url(#p5aece8576f)" style="fill: #48c16e"/>
    <path d="M 214.090909 69.447929 
L 214.090909 61.670765 
L 214.090909 47.574655 
L 209.641148 43.2 
L 195.30303 43.2 
L 187.392344 43.2 
L 195.30303 50.977164 
L 206.180223 61.670765 
z
" clip-path="url(#p5aece8576f)" style="fill: #65cb5e"/>
    <path d="M 214.090909 47.574655 
L 214.090909 43.2 
L 209.641148 43.2 
z
" clip-path="url(#p5aece8576f)" style="fill: #84d44b"/>
    <path clip-path="url(#p5aece8576f)" style="fill: #a8db34"/>
    <path clip-path="url(#p5aece8576f)" style="fill: #cae11f"/>
    <path clip-path="url(#p5aece8576f)" style="fill: #efe51c"/>
   </g>
   <g id="matplotlib.axis_1">
    <g id="xtick_1">
     <g id="line2d_1">
      <defs>
       <path id="m63b08ea1fd" d="M 0 0 
L 0 3.5 
" style="stroke: #000000; stroke-width: 0.8"/>
      </defs>
      <g>
       <use xlink:href="#m63b08ea1fd" x="45" y="209.436882" style="stroke: #000000; stroke-width: 0.8"/>
      </g>
     </g>
     <g id="text_1">
      <!-- −10 -->
      <g transform="translate(34.447656 224.035319) scale(0.1 -0.1)">
       <defs>
        <path id="DejaVuSans-2212" d="M 678 2272 
L 4684 2272 
L 4684 1741 
L 678 1741 
L 678 2272 
z
" transform="scale(0.015625)"/>
        <path id="DejaVuSans-31" d="M 794 531 
L 1825 531 
L 1825 4091 
L 703 3866 
L 703 4441 
L 1819 4666 
L 2450 4666 
L 2450 531 
L 3481 531 
L 3481 0 
L 794 0 
L 794 531 
z
" transform="scale(0.015625)"/>
        <path id="DejaVuSans-30" d="M 2034 4250 
Q 1547 4250 1301 3770 
Q 1056 3291 1056 2328 
Q 1056 1369 1301 889 
Q 1547 409 2034 409 
Q 2525 409 2770 889 
Q 3016 1369 3016 2328 
Q 3016 3291 2770 3770 
Q 2525 4250 2034 4250 
z
M 2034 4750 
Q 2819 4750 3233 4129 
Q 3647 3509 3647 2328 
Q 3647 1150 3233 529 
Q 2819 -91 2034 -91 
Q 1250 -91 836 529 
Q 422 1150 422 2328 
Q 422 3509 836 4129 
Q 1250 4750 2034 4750 
z
" transform="scale(0.015625)"/>
       </defs>
       <use xlink:href="#DejaVuSans-2212"/>
       <use xlink:href="#DejaVuSans-31" transform="translate(83.789062 0)"/>
       <use xlink:href="#DejaVuSans-30" transform="translate(147.412109 0)"/>
      </g>
     </g>
    </g>
    <g id="xtick_2">
     <g id="line2d_2">
      <g>
       <use xlink:href="#m63b08ea1fd" x="87.272727" y="209.436882" style="stroke: #000000; stroke-width: 0.8"/>
      </g>
     </g>
     <g id="text_2">
      <!-- −5 -->
      <g transform="translate(79.901634 224.035319) scale(0.1 -0.1)">
       <defs>
        <path id="DejaVuSans-35" d="M 691 4666 
L 3169 4666 
L 3169 4134 
L 1269 4134 
L 1269 2991 
Q 1406 3038 1543 3061 
Q 1681 3084 1819 3084 
Q 2600 3084 3056 2656 
Q 3513 2228 3513 1497 
Q 3513 744 3044 326 
Q 2575 -91 1722 -91 
Q 1428 -91 1123 -41 
Q 819 9 494 109 
L 494 744 
Q 775 591 1075 516 
Q 1375 441 1709 441 
Q 2250 441 2565 725 
Q 2881 1009 2881 1497 
Q 2881 1984 2565 2268 
Q 2250 2553 1709 2553 
Q 1456 2553 1204 2497 
Q 953 2441 691 2322 
L 691 4666 
z
" transform="scale(0.015625)"/>
       </defs>
       <use xlink:href="#DejaVuSans-2212"/>
       <use xlink:href="#DejaVuSans-35" transform="translate(83.789062 0)"/>
      </g>
     </g>
    </g>
    <g id="xtick_3">
     <g id="line2d_3">
      <g>
       <use xlink:href="#m63b08ea1fd" x="129.545455" y="209.436882" style="stroke: #000000; stroke-width: 0.8"/>
      </g>
     </g>
     <g id="text_3">
      <!-- 0 -->
      <g transform="translate(126.364205 224.035319) scale(0.1 -0.1)">
       <use xlink:href="#DejaVuSans-30"/>
      </g>
     </g>
    </g>
    <g id="xtick_4">
     <g id="line2d_4">
      <g>
       <use xlink:href="#m63b08ea1fd" x="171.818182" y="209.436882" style="stroke: #000000; stroke-width: 0.8"/>
      </g>
     </g>
     <g id="text_4">
      <!-- 5 -->
      <g transform="translate(168.636932 224.035319) scale(0.1 -0.1)">
       <use xlink:href="#DejaVuSans-35"/>
      </g>
     </g>
    </g>
    <g id="xtick_5">
     <g id="line2d_5">
      <g>
       <use xlink:href="#m63b08ea1fd" x="214.090909" y="209.436882" style="stroke: #000000; stroke-width: 0.8"/>
      </g>
     </g>
     <g id="text_5">
      <!-- 10 -->
      <g transform="translate(207.728409 224.035319) scale(0.1 -0.1)">
       <use xlink:href="#DejaVuSans-31"/>
       <use xlink:href="#DejaVuSans-30" transform="translate(63.623047 0)"/>
      </g>
     </g>
    </g>
   </g>
   <g id="matplotlib.axis_2">
    <g id="ytick_1">
     <g id="line2d_6">
      <defs>
       <path id="m4873504554" d="M 0 0 
L -3.5 0 
" style="stroke: #000000; stroke-width: 0.8"/>
      </defs>
      <g>
       <use xlink:href="#m4873504554" x="45" y="209.436882" style="stroke: #000000; stroke-width: 0.8"/>
      </g>
     </g>
     <g id="text_6">
      <!-- −10.0 -->
      <g transform="translate(7.354687 213.2361) scale(0.1 -0.1)">
       <defs>
        <path id="DejaVuSans-2e" d="M 684 794 
L 1344 794 
L 1344 0 
L 684 0 
L 684 794 
z
" transform="scale(0.015625)"/>
       </defs>
       <use xlink:href="#DejaVuSans-2212"/>
       <use xlink:href="#DejaVuSans-31" transform="translate(83.789062 0)"/>
       <use xlink:href="#DejaVuSans-30" transform="translate(147.412109 0)"/>
       <use xlink:href="#DejaVuSans-2e" transform="translate(211.035156 0)"/>
       <use xlink:href="#DejaVuSans-30" transform="translate(242.822266 0)"/>
      </g>
     </g>
    </g>
    <g id="ytick_2">
     <g id="line2d_7">
      <g>
       <use xlink:href="#m4873504554" x="45" y="188.657271" style="stroke: #000000; stroke-width: 0.8"/>
      </g>
     </g>
     <g id="text_7">
      <!-- −7.5 -->
      <g transform="translate(13.717187 192.45649) scale(0.1 -0.1)">
       <defs>
        <path id="DejaVuSans-37" d="M 525 4666 
L 3525 4666 
L 3525 4397 
L 1831 0 
L 1172 0 
L 2766 4134 
L 525 4134 
L 525 4666 
z
" transform="scale(0.015625)"/>
       </defs>
       <use xlink:href="#DejaVuSans-2212"/>
       <use xlink:href="#DejaVuSans-37" transform="translate(83.789062 0)"/>
       <use xlink:href="#DejaVuSans-2e" transform="translate(147.412109 0)"/>
       <use xlink:href="#DejaVuSans-35" transform="translate(179.199219 0)"/>
      </g>
     </g>
    </g>
    <g id="ytick_3">
     <g id="line2d_8">
      <g>
       <use xlink:href="#m4873504554" x="45" y="167.877661" style="stroke: #000000; stroke-width: 0.8"/>
      </g>
     </g>
     <g id="text_8">
      <!-- −5.0 -->
      <g transform="translate(13.717187 171.67688) scale(0.1 -0.1)">
       <use xlink:href="#DejaVuSans-2212"/>
       <use xlink:href="#DejaVuSans-35" transform="translate(83.789062 0)"/>
       <use xlink:href="#DejaVuSans-2e" transform="translate(147.412109 0)"/>
       <use xlink:href="#DejaVuSans-30" transform="translate(179.199219 0)"/>
      </g>
     </g>
    </g>
    <g id="ytick_4">
     <g id="line2d_9">
      <g>
       <use xlink:href="#m4873504554" x="45" y="147.098051" style="stroke: #000000; stroke-width: 0.8"/>
      </g>
     </g>
     <g id="text_9">
      <!-- −2.5 -->
      <g transform="translate(13.717187 150.89727) scale(0.1 -0.1)">
       <defs>
        <path id="DejaVuSans-32" d="M 1228 531 
L 3431 531 
L 3431 0 
L 469 0 
L 469 531 
Q 828 903 1448 1529 
Q 2069 2156 2228 2338 
Q 2531 2678 2651 2914 
Q 2772 3150 2772 3378 
Q 2772 3750 2511 3984 
Q 2250 4219 1831 4219 
Q 1534 4219 1204 4116 
Q 875 4013 500 3803 
L 500 4441 
Q 881 4594 1212 4672 
Q 1544 4750 1819 4750 
Q 2544 4750 2975 4387 
Q 3406 4025 3406 3419 
Q 3406 3131 3298 2873 
Q 3191 2616 2906 2266 
Q 2828 2175 2409 1742 
Q 1991 1309 1228 531 
z
" transform="scale(0.015625)"/>
       </defs>
       <use xlink:href="#DejaVuSans-2212"/>
       <use xlink:href="#DejaVuSans-32" transform="translate(83.789062 0)"/>
       <use xlink:href="#DejaVuSans-2e" transform="translate(147.412109 0)"/>
       <use xlink:href="#DejaVuSans-35" transform="translate(179.199219 0)"/>
      </g>
     </g>
    </g>
    <g id="ytick_5">
     <g id="line2d_10">
      <g>
       <use xlink:href="#m4873504554" x="45" y="126.318441" style="stroke: #000000; stroke-width: 0.8"/>
      </g>
     </g>
     <g id="text_10">
      <!-- 0.0 -->
      <g transform="translate(22.096875 130.11766) scale(0.1 -0.1)">
       <use xlink:href="#DejaVuSans-30"/>
       <use xlink:href="#DejaVuSans-2e" transform="translate(63.623047 0)"/>
       <use xlink:href="#DejaVuSans-30" transform="translate(95.410156 0)"/>
      </g>
     </g>
    </g>
    <g id="ytick_6">
     <g id="line2d_11">
      <g>
       <use xlink:href="#m4873504554" x="45" y="105.538831" style="stroke: #000000; stroke-width: 0.8"/>
      </g>
     </g>
     <g id="text_11">
      <!-- 2.5 -->
      <g transform="translate(22.096875 109.338049) scale(0.1 -0.1)">
       <use xlink:href="#DejaVuSans-32"/>
       <use xlink:href="#DejaVuSans-2e" transform="translate(63.623047 0)"/>
       <use xlink:href="#DejaVuSans-35" transform="translate(95.410156 0)"/>
      </g>
     </g>
    </g>
    <g id="ytick_7">
     <g id="line2d_12">
      <g>
       <use xlink:href="#m4873504554" x="45" y="84.75922" style="stroke: #000000; stroke-width: 0.8"/>
      </g>
     </g>
     <g id="text_12">
      <!-- 5.0 -->
      <g transform="translate(22.096875 88.558439) scale(0.1 -0.1)">
       <use xlink:href="#DejaVuSans-35"/>
       <use xlink:href="#DejaVuSans-2e" transform="translate(63.623047 0)"/>
       <use xlink:href="#DejaVuSans-30" transform="translate(95.410156 0)"/>
      </g>
     </g>
    </g>
    <g id="ytick_8">
     <g id="line2d_13">
      <g>
       <use xlink:href="#m4873504554" x="45" y="63.97961" style="stroke: #000000; stroke-width: 0.8"/>
      </g>
     </g>
     <g id="text_13">
      <!-- 7.5 -->
      <g transform="translate(22.096875 67.778829) scale(0.1 -0.1)">
       <use xlink:href="#DejaVuSans-37"/>
       <use xlink:href="#DejaVuSans-2e" transform="translate(63.623047 0)"/>
       <use xlink:href="#DejaVuSans-35" transform="translate(95.410156 0)"/>
      </g>
     </g>
    </g>
    <g id="ytick_9">
     <g id="line2d_14">
      <g>
       <use xlink:href="#m4873504554" x="45" y="43.2" style="stroke: #000000; stroke-width: 0.8"/>
      </g>
     </g>
     <g id="text_14">
      <!-- 10.0 -->
      <g transform="translate(15.734375 46.999219) scale(0.1 -0.1)">
       <use xlink:href="#DejaVuSans-31"/>
       <use xlink:href="#DejaVuSans-30" transform="translate(63.623047 0)"/>
       <use xlink:href="#DejaVuSans-2e" transform="translate(127.246094 0)"/>
       <use xlink:href="#DejaVuSans-30" transform="translate(159.033203 0)"/>
      </g>
     </g>
    </g>
    <g id="text_15">
     <!-- Latitude (º) -->
     <g transform="translate(1.275 154.744222) rotate(-90) scale(0.1 -0.1)">
      <defs>
       <path id="DejaVuSans-4c" d="M 628 4666 
L 1259 4666 
L 1259 531 
L 3531 531 
L 3531 0 
L 628 0 
L 628 4666 
z
" transform="scale(0.015625)"/>
       <path id="DejaVuSans-61" d="M 2194 1759 
Q 1497 1759 1228 1600 
Q 959 1441 959 1056 
Q 959 750 1161 570 
Q 1363 391 1709 391 
Q 2188 391 2477 730 
Q 2766 1069 2766 1631 
L 2766 1759 
L 2194 1759 
z
M 3341 1997 
L 3341 0 
L 2766 0 
L 2766 531 
Q 2569 213 2275 61 
Q 1981 -91 1556 -91 
Q 1019 -91 701 211 
Q 384 513 384 1019 
Q 384 1609 779 1909 
Q 1175 2209 1959 2209 
L 2766 2209 
L 2766 2266 
Q 2766 2663 2505 2880 
Q 2244 3097 1772 3097 
Q 1472 3097 1187 3025 
Q 903 2953 641 2809 
L 641 3341 
Q 956 3463 1253 3523 
Q 1550 3584 1831 3584 
Q 2591 3584 2966 3190 
Q 3341 2797 3341 1997 
z
" transform="scale(0.015625)"/>
       <path id="DejaVuSans-74" d="M 1172 4494 
L 1172 3500 
L 2356 3500 
L 2356 3053 
L 1172 3053 
L 1172 1153 
Q 1172 725 1289 603 
Q 1406 481 1766 481 
L 2356 481 
L 2356 0 
L 1766 0 
Q 1100 0 847 248 
Q 594 497 594 1153 
L 594 3053 
L 172 3053 
L 172 3500 
L 594 3500 
L 594 4494 
L 1172 4494 
z
" transform="scale(0.015625)"/>
       <path id="DejaVuSans-69" d="M 603 3500 
L 1178 3500 
L 1178 0 
L 603 0 
L 603 3500 
z
M 603 4863 
L 1178 4863 
L 1178 4134 
L 603 4134 
L 603 4863 
z
" transform="scale(0.015625)"/>
       <path id="DejaVuSans-75" d="M 544 1381 
L 544 3500 
L 1119 3500 
L 1119 1403 
Q 1119 906 1312 657 
Q 1506 409 1894 409 
Q 2359 409 2629 706 
Q 2900 1003 2900 1516 
L 2900 3500 
L 3475 3500 
L 3475 0 
L 2900 0 
L 2900 538 
Q 2691 219 2414 64 
Q 2138 -91 1772 -91 
Q 1169 -91 856 284 
Q 544 659 544 1381 
z
M 1991 3584 
L 1991 3584 
z
" transform="scale(0.015625)"/>
       <path id="DejaVuSans-64" d="M 2906 2969 
L 2906 4863 
L 3481 4863 
L 3481 0 
L 2906 0 
L 2906 525 
Q 2725 213 2448 61 
Q 2172 -91 1784 -91 
Q 1150 -91 751 415 
Q 353 922 353 1747 
Q 353 2572 751 3078 
Q 1150 3584 1784 3584 
Q 2172 3584 2448 3432 
Q 2725 3281 2906 2969 
z
M 947 1747 
Q 947 1113 1208 752 
Q 1469 391 1925 391 
Q 2381 391 2643 752 
Q 2906 1113 2906 1747 
Q 2906 2381 2643 2742 
Q 2381 3103 1925 3103 
Q 1469 3103 1208 2742 
Q 947 2381 947 1747 
z
" transform="scale(0.015625)"/>
       <path id="DejaVuSans-65" d="M 3597 1894 
L 3597 1613 
L 953 1613 
Q 991 1019 1311 708 
Q 1631 397 2203 397 
Q 2534 397 2845 478 
Q 3156 559 3463 722 
L 3463 178 
Q 3153 47 2828 -22 
Q 2503 -91 2169 -91 
Q 1331 -91 842 396 
Q 353 884 353 1716 
Q 353 2575 817 3079 
Q 1281 3584 2069 3584 
Q 2775 3584 3186 3129 
Q 3597 2675 3597 1894 
z
M 3022 2063 
Q 3016 2534 2758 2815 
Q 2500 3097 2075 3097 
Q 1594 3097 1305 2825 
Q 1016 2553 972 2059 
L 3022 2063 
z
" transform="scale(0.015625)"/>
       <path id="DejaVuSans-20" transform="scale(0.015625)"/>
       <path id="DejaVuSans-28" d="M 1984 4856 
Q 1566 4138 1362 3434 
Q 1159 2731 1159 2009 
Q 1159 1288 1364 580 
Q 1569 -128 1984 -844 
L 1484 -844 
Q 1016 -109 783 600 
Q 550 1309 550 2009 
Q 550 2706 781 3412 
Q 1013 4119 1484 4856 
L 1984 4856 
z
" transform="scale(0.015625)"/>
       <path id="DejaVuSans-ba" d="M 434 1850 
L 2584 1850 
L 2584 1466 
L 434 1466 
L 434 1850 
z
M 1509 4750 
Q 2069 4750 2391 4404 
Q 2713 4059 2713 3463 
Q 2713 2866 2391 2523 
Q 2069 2181 1509 2181 
Q 950 2181 625 2525 
Q 300 2869 300 3463 
Q 300 4059 625 4404 
Q 950 4750 1509 4750 
z
M 1509 4391 
Q 1181 4391 984 4139 
Q 788 3888 788 3463 
Q 788 3047 986 2797 
Q 1184 2547 1509 2547 
Q 1838 2547 2033 2797 
Q 2228 3047 2228 3463 
Q 2228 3891 2034 4141 
Q 1841 4391 1509 4391 
z
" transform="scale(0.015625)"/>
       <path id="DejaVuSans-29" d="M 513 4856 
L 1013 4856 
Q 1481 4119 1714 3412 
Q 1947 2706 1947 2009 
Q 1947 1309 1714 600 
Q 1481 -109 1013 -844 
L 513 -844 
Q 928 -128 1133 580 
Q 1338 1288 1338 2009 
Q 1338 2731 1133 3434 
Q 928 4138 513 4856 
z
" transform="scale(0.015625)"/>
      </defs>
      <use xlink:href="#DejaVuSans-4c"/>
      <use xlink:href="#DejaVuSans-61" transform="translate(55.712891 0)"/>
      <use xlink:href="#DejaVuSans-74" transform="translate(116.992188 0)"/>
      <use xlink:href="#DejaVuSans-69" transform="translate(156.201172 0)"/>
      <use xlink:href="#DejaVuSans-74" transform="translate(183.984375 0)"/>
      <use xlink:href="#DejaVuSans-75" transform="translate(223.193359 0)"/>
      <use xlink:href="#DejaVuSans-64" transform="translate(286.572266 0)"/>
      <use xlink:href="#DejaVuSans-65" transform="translate(350.048828 0)"/>
      <use xlink:href="#DejaVuSans-20" transform="translate(411.572266 0)"/>
      <use xlink:href="#DejaVuSans-28" transform="translate(443.359375 0)"/>
      <use xlink:href="#DejaVuSans-ba" transform="translate(482.373047 0)"/>
      <use xlink:href="#DejaVuSans-29" transform="translate(529.492188 0)"/>
     </g>
    </g>
   </g>
   <g id="line2d_15">
    <path d="M 129.545455 209.436882 
L 129.545455 43.2 
" clip-path="url(#p5aece8576f)" style="fill: none; stroke-dasharray: 4,1.5; stroke-dashoffset: 0; stroke: #000000; stroke-width: 0.5"/>
   </g>
   <g id="line2d_16">
    <path d="M 45 126.318441 
L 214.090909 126.318441 
" clip-path="url(#p5aece8576f)" style="fill: none; stroke-dasharray: 4,1.5; stroke-dashoffset: 0; stroke: #000000; stroke-width: 0.5"/>
   </g>
   <g id="line2d_17">
    <defs>
     <path id="m0c96f7aab7" d="M -3 3 
L 3 3 
L 3 -3 
L -3 -3 
z
" style="stroke: #000000; stroke-linejoin: miter"/>
    </defs>
    <g>
     <use xlink:href="#m0c96f7aab7" x="129.545455" y="126.318441" style="stroke: #000000; stroke-linejoin: miter"/>
    </g>
   </g>
   <g id="patch_3">
    <path d="M 45 209.436882 
L 45 43.2 
" style="fill: none; stroke: #000000; stroke-width: 0.8; stroke-linejoin: miter; stroke-linecap: square"/>
   </g>
   <g id="patch_4">
    <path d="M 214.090909 209.436882 
L 214.090909 43.2 
" style="fill: none; stroke: #000000; stroke-width: 0.8; stroke-linejoin: miter; stroke-linecap: square"/>
   </g>
   <g id="patch_5">
    <path d="M 45 209.436882 
L 214.090909 209.436882 
" style="fill: none; stroke: #000000; stroke-width: 0.8; stroke-linejoin: miter; stroke-linecap: square"/>
   </g>
   <g id="patch_6">
    <path d="M 45 43.2 
L 214.090909 43.2 
" style="fill: none; stroke: #000000; stroke-width: 0.8; stroke-linejoin: miter; stroke-linecap: square"/>
   </g>
  </g>
  <g id="axes_2">
   <g id="patch_7">
    <path d="M 239.454545 209.436882 
L 324 209.436882 
L 324 43.2 
L 239.454545 43.2 
z
" style="fill: #ffffff"/>
   </g>
   <g id="QuadContourSet_2">
    <path clip-path="url(#pde4c06dff5)" style="fill: #460a5d"/>
    <path clip-path="url(#pde4c06dff5)" style="fill: #481d6f"/>
    <path clip-path="url(#pde4c06dff5)" style="fill: #472e7c"/>
    <path d="M 248.848485 209.436882 
L 253.298246 209.436882 
L 248.848485 205.062227 
L 239.454545 195.826844 
L 239.454545 209.436882 
z
" clip-path="url(#pde4c06dff5)" style="fill: #423f85"/>
    <path d="M 248.848485 205.062227 
L 253.298246 209.436882 
L 258.242424 209.436882 
L 267.636364 209.436882 
L 275.547049 209.436882 
L 267.636364 201.659718 
L 258.242424 192.424335 
L 256.759171 190.966117 
L 248.848485 183.188953 
L 239.454545 173.953571 
L 239.454545 190.966117 
L 239.454545 195.826844 
z
" clip-path="url(#pde4c06dff5)" style="fill: #3d4e8a"/>
    <path d="M 258.242424 192.424335 
L 267.636364 201.659718 
L 275.547049 209.436882 
L 277.030303 209.436882 
L 286.424242 209.436882 
L 295.818182 209.436882 
L 297.795853 209.436882 
L 295.818182 207.492591 
L 286.424242 198.257208 
L 279.007974 190.966117 
L 277.030303 189.021826 
L 267.636364 179.786444 
L 260.220096 172.495352 
L 258.242424 170.551061 
L 248.848485 161.315679 
L 241.432217 154.024588 
L 239.454545 152.080297 
L 239.454545 154.024588 
L 239.454545 172.495352 
L 239.454545 173.953571 
L 248.848485 183.188953 
L 256.759171 190.966117 
z
" clip-path="url(#pde4c06dff5)" style="fill: #365d8d"/>
    <path d="M 286.424242 198.257208 
L 295.818182 207.492591 
L 297.795853 209.436882 
L 305.212121 209.436882 
L 314.606061 209.436882 
L 320.044657 209.436882 
L 314.606061 204.090081 
L 305.212121 194.854699 
L 301.256778 190.966117 
L 295.818182 185.619317 
L 286.424242 176.383934 
L 282.4689 172.495352 
L 277.030303 167.148552 
L 267.636364 157.91317 
L 263.681021 154.024588 
L 258.242424 148.677787 
L 248.848485 139.442405 
L 244.893142 135.553823 
L 239.454545 130.207023 
L 239.454545 135.553823 
L 239.454545 152.080297 
L 241.432217 154.024588 
L 248.848485 161.315679 
L 258.242424 170.551061 
L 260.220096 172.495352 
L 267.636364 179.786444 
L 277.030303 189.021826 
L 279.007974 190.966117 
z
" clip-path="url(#pde4c06dff5)" style="fill: #306a8e"/>
    <path d="M 305.212121 194.854699 
L 314.606061 204.090081 
L 320.044657 209.436882 
L 324 209.436882 
L 324 191.45219 
L 323.505582 190.966117 
L 314.606061 182.216807 
L 305.212121 172.981425 
L 304.717703 172.495352 
L 295.818182 163.746043 
L 286.424242 154.51066 
L 285.929825 154.024588 
L 277.030303 145.275278 
L 267.636364 136.039896 
L 267.141946 135.553823 
L 258.242424 126.804514 
L 248.848485 117.569131 
L 248.354067 117.083058 
L 239.454545 108.333749 
L 239.454545 117.083058 
L 239.454545 130.207023 
L 244.893142 135.553823 
L 248.848485 139.442405 
L 258.242424 148.677787 
L 263.681021 154.024588 
L 267.636364 157.91317 
L 277.030303 167.148552 
L 282.4689 172.495352 
L 286.424242 176.383934 
L 295.818182 185.619317 
L 301.256778 190.966117 
z
" clip-path="url(#pde4c06dff5)" style="fill: #2a778e"/>
    <path d="M 324 191.45219 
L 324 190.966117 
L 324 172.495352 
L 324 169.578916 
L 314.606061 160.343533 
L 308.178628 154.024588 
L 305.212121 151.108151 
L 295.818182 141.872769 
L 289.39075 135.553823 
L 286.424242 132.637387 
L 277.030303 123.402004 
L 270.602871 117.083058 
L 267.636364 114.166622 
L 258.242424 104.93124 
L 251.814992 98.612294 
L 248.848485 95.695857 
L 239.454545 86.460475 
L 239.454545 98.612294 
L 239.454545 108.333749 
L 248.354067 117.083058 
L 248.848485 117.569131 
L 258.242424 126.804514 
L 267.141946 135.553823 
L 267.636364 136.039896 
L 277.030303 145.275278 
L 285.929825 154.024588 
L 286.424242 154.51066 
L 295.818182 163.746043 
L 304.717703 172.495352 
L 305.212121 172.981425 
L 314.606061 182.216807 
L 323.505582 190.966117 
z
" clip-path="url(#pde4c06dff5)" style="fill: #25838e"/>
    <path d="M 314.606061 160.343533 
L 324 169.578916 
L 324 154.024588 
L 324 147.705642 
L 314.606061 138.47026 
L 311.639553 135.553823 
L 305.212121 129.234877 
L 295.818182 119.999495 
L 292.851675 117.083058 
L 286.424242 110.764113 
L 277.030303 101.52873 
L 274.063796 98.612294 
L 267.636364 92.293348 
L 258.242424 83.057966 
L 255.275917 80.141529 
L 248.848485 73.822583 
L 239.454545 64.587201 
L 239.454545 80.141529 
L 239.454545 86.460475 
L 248.848485 95.695857 
L 251.814992 98.612294 
L 258.242424 104.93124 
L 267.636364 114.166622 
L 270.602871 117.083058 
L 277.030303 123.402004 
L 286.424242 132.637387 
L 289.39075 135.553823 
L 295.818182 141.872769 
L 305.212121 151.108151 
L 308.178628 154.024588 
z
" clip-path="url(#pde4c06dff5)" style="fill: #21918c"/>
    <path d="M 314.606061 138.47026 
L 324 147.705642 
L 324 135.553823 
L 324 125.832368 
L 315.100478 117.083058 
L 314.606061 116.596986 
L 305.212121 107.361603 
L 296.3126 98.612294 
L 295.818182 98.126221 
L 286.424242 88.890839 
L 277.524721 80.141529 
L 277.030303 79.655456 
L 267.636364 70.420074 
L 258.736842 61.670765 
L 258.242424 61.184692 
L 248.848485 51.94931 
L 239.948963 43.2 
L 239.454545 43.2 
L 239.454545 61.670765 
L 239.454545 64.587201 
L 248.848485 73.822583 
L 255.275917 80.141529 
L 258.242424 83.057966 
L 267.636364 92.293348 
L 274.063796 98.612294 
L 277.030303 101.52873 
L 286.424242 110.764113 
L 292.851675 117.083058 
L 295.818182 119.999495 
L 305.212121 129.234877 
L 311.639553 135.553823 
z
" clip-path="url(#pde4c06dff5)" style="fill: #1e9d89"/>
    <path d="M 324 125.832368 
L 324 117.083058 
L 324 103.959094 
L 318.561404 98.612294 
L 314.606061 94.723712 
L 305.212121 85.48833 
L 299.773525 80.141529 
L 295.818182 76.252947 
L 286.424242 67.017565 
L 280.985646 61.670765 
L 277.030303 57.782183 
L 267.636364 48.5468 
L 262.197767 43.2 
L 258.242424 43.2 
L 248.848485 43.2 
L 239.948963 43.2 
L 248.848485 51.94931 
L 258.242424 61.184692 
L 258.736842 61.670765 
L 267.636364 70.420074 
L 277.030303 79.655456 
L 277.524721 80.141529 
L 286.424242 88.890839 
L 295.818182 98.126221 
L 296.3126 98.612294 
L 305.212121 107.361603 
L 314.606061 116.596986 
L 315.100478 117.083058 
z
" clip-path="url(#pde4c06dff5)" style="fill: #23a983"/>
    <path d="M 324 103.959094 
L 324 98.612294 
L 324 82.08582 
L 322.022329 80.141529 
L 314.606061 72.850438 
L 305.212121 63.615056 
L 303.23445 61.670765 
L 295.818182 54.379673 
L 286.424242 45.144291 
L 284.446571 43.2 
L 277.030303 43.2 
L 267.636364 43.2 
L 262.197767 43.2 
L 267.636364 48.5468 
L 277.030303 57.782183 
L 280.985646 61.670765 
L 286.424242 67.017565 
L 295.818182 76.252947 
L 299.773525 80.141529 
L 305.212121 85.48833 
L 314.606061 94.723712 
L 318.561404 98.612294 
z
" clip-path="url(#pde4c06dff5)" style="fill: #32b67a"/>
    <path d="M 324 82.08582 
L 324 80.141529 
L 324 61.670765 
L 324 60.212546 
L 314.606061 50.977164 
L 306.695375 43.2 
L 305.212121 43.2 
L 295.818182 43.2 
L 286.424242 43.2 
L 284.446571 43.2 
L 286.424242 45.144291 
L 295.818182 54.379673 
L 303.23445 61.670765 
L 305.212121 63.615056 
L 314.606061 72.850438 
L 322.022329 80.141529 
z
" clip-path="url(#pde4c06dff5)" style="fill: #48c16e"/>
    <path d="M 314.606061 50.977164 
L 324 60.212546 
L 324 43.2 
L 314.606061 43.2 
L 306.695375 43.2 
z
" clip-path="url(#pde4c06dff5)" style="fill: #65cb5e"/>
    <path clip-path="url(#pde4c06dff5)" style="fill: #84d44b"/>
    <path clip-path="url(#pde4c06dff5)" style="fill: #a8db34"/>
    <path clip-path="url(#pde4c06dff5)" style="fill: #cae11f"/>
    <path clip-path="url(#pde4c06dff5)" style="fill: #efe51c"/>
   </g>
   <g id="matplotlib.axis_3">
    <g id="xtick_6">
     <g id="line2d_18">
      <g>
       <use xlink:href="#m63b08ea1fd" x="239.454545" y="209.436882" style="stroke: #000000; stroke-width: 0.8"/>
      </g>
     </g>
     <g id="text_16">
      <!-- 0 -->
      <g transform="translate(236.273295 224.035319) scale(0.1 -0.1)">
       <use xlink:href="#DejaVuSans-30"/>
      </g>
     </g>
    </g>
    <g id="xtick_7">
     <g id="line2d_19">
      <g>
       <use xlink:href="#m63b08ea1fd" x="281.727273" y="209.436882" style="stroke: #000000; stroke-width: 0.8"/>
      </g>
     </g>
     <g id="text_17">
      <!-- 5 -->
      <g transform="translate(278.546023 224.035319) scale(0.1 -0.1)">
       <use xlink:href="#DejaVuSans-35"/>
      </g>
     </g>
    </g>
    <g id="xtick_8">
     <g id="line2d_20">
      <g>
       <use xlink:href="#m63b08ea1fd" x="324" y="209.436882" style="stroke: #000000; stroke-width: 0.8"/>
      </g>
     </g>
     <g id="text_18">
      <!-- 10 -->
      <g transform="translate(317.6375 224.035319) scale(0.1 -0.1)">
       <use xlink:href="#DejaVuSans-31"/>
       <use xlink:href="#DejaVuSans-30" transform="translate(63.623047 0)"/>
      </g>
     </g>
    </g>
    <g id="text_19">
     <!-- Depth (km) -->
     <g transform="translate(253.241335 237.713444) scale(0.1 -0.1)">
      <defs>
       <path id="DejaVuSans-44" d="M 1259 4147 
L 1259 519 
L 2022 519 
Q 2988 519 3436 956 
Q 3884 1394 3884 2338 
Q 3884 3275 3436 3711 
Q 2988 4147 2022 4147 
L 1259 4147 
z
M 628 4666 
L 1925 4666 
Q 3281 4666 3915 4102 
Q 4550 3538 4550 2338 
Q 4550 1131 3912 565 
Q 3275 0 1925 0 
L 628 0 
L 628 4666 
z
" transform="scale(0.015625)"/>
       <path id="DejaVuSans-70" d="M 1159 525 
L 1159 -1331 
L 581 -1331 
L 581 3500 
L 1159 3500 
L 1159 2969 
Q 1341 3281 1617 3432 
Q 1894 3584 2278 3584 
Q 2916 3584 3314 3078 
Q 3713 2572 3713 1747 
Q 3713 922 3314 415 
Q 2916 -91 2278 -91 
Q 1894 -91 1617 61 
Q 1341 213 1159 525 
z
M 3116 1747 
Q 3116 2381 2855 2742 
Q 2594 3103 2138 3103 
Q 1681 3103 1420 2742 
Q 1159 2381 1159 1747 
Q 1159 1113 1420 752 
Q 1681 391 2138 391 
Q 2594 391 2855 752 
Q 3116 1113 3116 1747 
z
" transform="scale(0.015625)"/>
       <path id="DejaVuSans-68" d="M 3513 2113 
L 3513 0 
L 2938 0 
L 2938 2094 
Q 2938 2591 2744 2837 
Q 2550 3084 2163 3084 
Q 1697 3084 1428 2787 
Q 1159 2491 1159 1978 
L 1159 0 
L 581 0 
L 581 4863 
L 1159 4863 
L 1159 2956 
Q 1366 3272 1645 3428 
Q 1925 3584 2291 3584 
Q 2894 3584 3203 3211 
Q 3513 2838 3513 2113 
z
" transform="scale(0.015625)"/>
       <path id="DejaVuSans-6b" d="M 581 4863 
L 1159 4863 
L 1159 1991 
L 2875 3500 
L 3609 3500 
L 1753 1863 
L 3688 0 
L 2938 0 
L 1159 1709 
L 1159 0 
L 581 0 
L 581 4863 
z
" transform="scale(0.015625)"/>
       <path id="DejaVuSans-6d" d="M 3328 2828 
Q 3544 3216 3844 3400 
Q 4144 3584 4550 3584 
Q 5097 3584 5394 3201 
Q 5691 2819 5691 2113 
L 5691 0 
L 5113 0 
L 5113 2094 
Q 5113 2597 4934 2840 
Q 4756 3084 4391 3084 
Q 3944 3084 3684 2787 
Q 3425 2491 3425 1978 
L 3425 0 
L 2847 0 
L 2847 2094 
Q 2847 2600 2669 2842 
Q 2491 3084 2119 3084 
Q 1678 3084 1418 2786 
Q 1159 2488 1159 1978 
L 1159 0 
L 581 0 
L 581 3500 
L 1159 3500 
L 1159 2956 
Q 1356 3278 1631 3431 
Q 1906 3584 2284 3584 
Q 2666 3584 2933 3390 
Q 3200 3197 3328 2828 
z
" transform="scale(0.015625)"/>
      </defs>
      <use xlink:href="#DejaVuSans-44"/>
      <use xlink:href="#DejaVuSans-65" transform="translate(77.001953 0)"/>
      <use xlink:href="#DejaVuSans-70" transform="translate(138.525391 0)"/>
      <use xlink:href="#DejaVuSans-74" transform="translate(202.001953 0)"/>
      <use xlink:href="#DejaVuSans-68" transform="translate(241.210938 0)"/>
      <use xlink:href="#DejaVuSans-20" transform="translate(304.589844 0)"/>
      <use xlink:href="#DejaVuSans-28" transform="translate(336.376953 0)"/>
      <use xlink:href="#DejaVuSans-6b" transform="translate(375.390625 0)"/>
      <use xlink:href="#DejaVuSans-6d" transform="translate(433.300781 0)"/>
      <use xlink:href="#DejaVuSans-29" transform="translate(530.712891 0)"/>
     </g>
    </g>
   </g>
   <g id="matplotlib.axis_4">
    <g id="ytick_10">
     <g id="line2d_21">
      <defs>
       <path id="mcf9e6206c5" d="M 0 0 
L 3.5 0 
" style="stroke: #000000; stroke-width: 0.8"/>
      </defs>
      <g>
       <use xlink:href="#mcf9e6206c5" x="324" y="209.436882" style="stroke: #000000; stroke-width: 0.8"/>
      </g>
     </g>
     <g id="text_20">
      <!-- −10.0 -->
      <g transform="translate(331 213.2361) scale(0.1 -0.1)">
       <use xlink:href="#DejaVuSans-2212"/>
       <use xlink:href="#DejaVuSans-31" transform="translate(83.789062 0)"/>
       <use xlink:href="#DejaVuSans-30" transform="translate(147.412109 0)"/>
       <use xlink:href="#DejaVuSans-2e" transform="translate(211.035156 0)"/>
       <use xlink:href="#DejaVuSans-30" transform="translate(242.822266 0)"/>
      </g>
     </g>
    </g>
    <g id="ytick_11">
     <g id="line2d_22">
      <g>
       <use xlink:href="#mcf9e6206c5" x="324" y="188.657271" style="stroke: #000000; stroke-width: 0.8"/>
      </g>
     </g>
     <g id="text_21">
      <!-- −7.5 -->
      <g transform="translate(331 192.45649) scale(0.1 -0.1)">
       <use xlink:href="#DejaVuSans-2212"/>
       <use xlink:href="#DejaVuSans-37" transform="translate(83.789062 0)"/>
       <use xlink:href="#DejaVuSans-2e" transform="translate(147.412109 0)"/>
       <use xlink:href="#DejaVuSans-35" transform="translate(179.199219 0)"/>
      </g>
     </g>
    </g>
    <g id="ytick_12">
     <g id="line2d_23">
      <g>
       <use xlink:href="#mcf9e6206c5" x="324" y="167.877661" style="stroke: #000000; stroke-width: 0.8"/>
      </g>
     </g>
     <g id="text_22">
      <!-- −5.0 -->
      <g transform="translate(331 171.67688) scale(0.1 -0.1)">
       <use xlink:href="#DejaVuSans-2212"/>
       <use xlink:href="#DejaVuSans-35" transform="translate(83.789062 0)"/>
       <use xlink:href="#DejaVuSans-2e" transform="translate(147.412109 0)"/>
       <use xlink:href="#DejaVuSans-30" transform="translate(179.199219 0)"/>
      </g>
     </g>
    </g>
    <g id="ytick_13">
     <g id="line2d_24">
      <g>
       <use xlink:href="#mcf9e6206c5" x="324" y="147.098051" style="stroke: #000000; stroke-width: 0.8"/>
      </g>
     </g>
     <g id="text_23">
      <!-- −2.5 -->
      <g transform="translate(331 150.89727) scale(0.1 -0.1)">
       <use xlink:href="#DejaVuSans-2212"/>
       <use xlink:href="#DejaVuSans-32" transform="translate(83.789062 0)"/>
       <use xlink:href="#DejaVuSans-2e" transform="translate(147.412109 0)"/>
       <use xlink:href="#DejaVuSans-35" transform="translate(179.199219 0)"/>
      </g>
     </g>
    </g>
    <g id="ytick_14">
     <g id="line2d_25">
      <g>
       <use xlink:href="#mcf9e6206c5" x="324" y="126.318441" style="stroke: #000000; stroke-width: 0.8"/>
      </g>
     </g>
     <g id="text_24">
      <!-- 0.0 -->
      <g transform="translate(331 130.11766) scale(0.1 -0.1)">
       <use xlink:href="#DejaVuSans-30"/>
       <use xlink:href="#DejaVuSans-2e" transform="translate(63.623047 0)"/>
       <use xlink:href="#DejaVuSans-30" transform="translate(95.410156 0)"/>
      </g>
     </g>
    </g>
    <g id="ytick_15">
     <g id="line2d_26">
      <g>
       <use xlink:href="#mcf9e6206c5" x="324" y="105.538831" style="stroke: #000000; stroke-width: 0.8"/>
      </g>
     </g>
     <g id="text_25">
      <!-- 2.5 -->
      <g transform="translate(331 109.338049) scale(0.1 -0.1)">
       <use xlink:href="#DejaVuSans-32"/>
       <use xlink:href="#DejaVuSans-2e" transform="translate(63.623047 0)"/>
       <use xlink:href="#DejaVuSans-35" transform="translate(95.410156 0)"/>
      </g>
     </g>
    </g>
    <g id="ytick_16">
     <g id="line2d_27">
      <g>
       <use xlink:href="#mcf9e6206c5" x="324" y="84.75922" style="stroke: #000000; stroke-width: 0.8"/>
      </g>
     </g>
     <g id="text_26">
      <!-- 5.0 -->
      <g transform="translate(331 88.558439) scale(0.1 -0.1)">
       <use xlink:href="#DejaVuSans-35"/>
       <use xlink:href="#DejaVuSans-2e" transform="translate(63.623047 0)"/>
       <use xlink:href="#DejaVuSans-30" transform="translate(95.410156 0)"/>
      </g>
     </g>
    </g>
    <g id="ytick_17">
     <g id="line2d_28">
      <g>
       <use xlink:href="#mcf9e6206c5" x="324" y="63.97961" style="stroke: #000000; stroke-width: 0.8"/>
      </g>
     </g>
     <g id="text_27">
      <!-- 7.5 -->
      <g transform="translate(331 67.778829) scale(0.1 -0.1)">
       <use xlink:href="#DejaVuSans-37"/>
       <use xlink:href="#DejaVuSans-2e" transform="translate(63.623047 0)"/>
       <use xlink:href="#DejaVuSans-35" transform="translate(95.410156 0)"/>
      </g>
     </g>
    </g>
    <g id="ytick_18">
     <g id="line2d_29">
      <g>
       <use xlink:href="#mcf9e6206c5" x="324" y="43.2" style="stroke: #000000; stroke-width: 0.8"/>
      </g>
     </g>
     <g id="text_28">
      <!-- 10.0 -->
      <g transform="translate(331 46.999219) scale(0.1 -0.1)">
       <use xlink:href="#DejaVuSans-31"/>
       <use xlink:href="#DejaVuSans-30" transform="translate(63.623047 0)"/>
       <use xlink:href="#DejaVuSans-2e" transform="translate(127.246094 0)"/>
       <use xlink:href="#DejaVuSans-30" transform="translate(159.033203 0)"/>
      </g>
     </g>
    </g>
   </g>
   <g id="line2d_30">
    <path d="M 239.454545 209.436882 
L 239.454545 43.2 
" clip-path="url(#pde4c06dff5)" style="fill: none; stroke-dasharray: 4,1.5; stroke-dashoffset: 0; stroke: #000000; stroke-width: 0.5"/>
   </g>
   <g id="line2d_31">
    <path d="M 239.454545 126.318441 
L 324 126.318441 
" clip-path="url(#pde4c06dff5)" style="fill: none; stroke-dasharray: 4,1.5; stroke-dashoffset: 0; stroke: #000000; stroke-width: 0.5"/>
   </g>
   <g id="line2d_32">
    <defs>
     <path id="mcb831b391a" d="M 3 0 
L -3 -3 
L -3 3 
z
" style="stroke: #000000; stroke-linejoin: miter"/>
    </defs>
    <g>
     <use xlink:href="#mcb831b391a" x="239.454545" y="126.318441" style="stroke: #000000; stroke-linejoin: miter"/>
    </g>
   </g>
   <g id="patch_8">
    <path d="M 239.454545 209.436882 
L 239.454545 43.2 
" style="fill: none; stroke: #000000; stroke-width: 0.8; stroke-linejoin: miter; stroke-linecap: square"/>
   </g>
   <g id="patch_9">
    <path d="M 324 209.436882 
L 324 43.2 
" style="fill: none; stroke: #000000; stroke-width: 0.8; stroke-linejoin: miter; stroke-linecap: square"/>
   </g>
   <g id="patch_10">
    <path d="M 239.454545 209.436882 
L 324 209.436882 
" style="fill: none; stroke: #000000; stroke-width: 0.8; stroke-linejoin: miter; stroke-linecap: square"/>
   </g>
   <g id="patch_11">
    <path d="M 239.454545 43.2 
L 324 43.2 
" style="fill: none; stroke: #000000; stroke-width: 0.8; stroke-linejoin: miter; stroke-linecap: square"/>
   </g>
  </g>
  <g id="axes_3">
   <g id="patch_12">
    <path d="M 45 320.4 
L 214.090909 320.4 
L 214.090909 238.112744 
L 45 238.112744 
z
" style="fill: #ffffff"/>
   </g>
   <g id="QuadContourSet_3">
    <path clip-path="url(#pf45622eb71)" style="fill: #460a5d"/>
    <path clip-path="url(#pf45622eb71)" style="fill: #481d6f"/>
    <path clip-path="url(#pf45622eb71)" style="fill: #472e7c"/>
    <path d="M 49.449761 247.255772 
L 45 251.58668 
L 45 247.255772 
L 45 238.112744 
L 58.8437 238.112744 
z
" clip-path="url(#pf45622eb71)" style="fill: #423f85"/>
    <path d="M 63.787879 238.112744 
L 81.092504 238.112744 
L 71.698565 247.255772 
L 63.787879 254.955165 
L 62.304625 256.398801 
L 52.910686 265.541829 
L 45 273.241221 
L 45 265.541829 
L 45 256.398801 
L 45 251.58668 
L 49.449761 247.255772 
L 58.8437 238.112744 
z
" clip-path="url(#pf45622eb71)" style="fill: #3d4e8a"/>
    <path d="M 82.575758 238.112744 
L 101.363636 238.112744 
L 103.341308 238.112744 
L 101.363636 240.037592 
L 93.947368 247.255772 
L 84.553429 256.398801 
L 82.575758 258.323649 
L 75.15949 265.541829 
L 65.76555 274.684858 
L 63.787879 276.609706 
L 56.371611 283.827886 
L 46.977671 292.970915 
L 45 294.895763 
L 45 292.970915 
L 45 283.827886 
L 45 274.684858 
L 45 273.241221 
L 52.910686 265.541829 
L 62.304625 256.398801 
L 63.787879 254.955165 
L 71.698565 247.255772 
L 81.092504 238.112744 
z
" clip-path="url(#pf45622eb71)" style="fill: #365d8d"/>
    <path d="M 101.363636 240.037592 
L 103.341308 238.112744 
L 120.151515 238.112744 
L 125.590112 238.112744 
L 120.151515 243.406076 
L 116.196172 247.255772 
L 106.802233 256.398801 
L 101.363636 261.692133 
L 97.408293 265.541829 
L 88.014354 274.684858 
L 82.575758 279.97819 
L 78.620415 283.827886 
L 69.226475 292.970915 
L 63.787879 298.264247 
L 59.832536 302.113943 
L 50.438596 311.256972 
L 45 316.550304 
L 45 311.256972 
L 45 302.113943 
L 45 294.895763 
L 46.977671 292.970915 
L 56.371611 283.827886 
L 63.787879 276.609706 
L 65.76555 274.684858 
L 75.15949 265.541829 
L 82.575758 258.323649 
L 84.553429 256.398801 
L 93.947368 247.255772 
z
" clip-path="url(#pf45622eb71)" style="fill: #306a8e"/>
    <path d="M 120.151515 243.406076 
L 125.590112 238.112744 
L 138.939394 238.112744 
L 147.838915 238.112744 
L 138.939394 246.77456 
L 138.444976 247.255772 
L 129.051037 256.398801 
L 120.151515 265.060617 
L 119.657097 265.541829 
L 110.263158 274.684858 
L 101.363636 283.346674 
L 100.869219 283.827886 
L 91.475279 292.970915 
L 82.575758 301.632731 
L 82.08134 302.113943 
L 72.6874 311.256972 
L 63.787879 319.918788 
L 63.293461 320.4 
L 45 320.4 
L 45 316.550304 
L 50.438596 311.256972 
L 59.832536 302.113943 
L 63.787879 298.264247 
L 69.226475 292.970915 
L 78.620415 283.827886 
L 82.575758 279.97819 
L 88.014354 274.684858 
L 97.408293 265.541829 
L 101.363636 261.692133 
L 106.802233 256.398801 
L 116.196172 247.255772 
z
" clip-path="url(#pf45622eb71)" style="fill: #2a778e"/>
    <path d="M 138.939394 246.77456 
L 147.838915 238.112744 
L 157.727273 238.112744 
L 170.087719 238.112744 
L 160.69378 247.255772 
L 157.727273 250.143044 
L 151.299841 256.398801 
L 141.905901 265.541829 
L 138.939394 268.429101 
L 132.511962 274.684858 
L 123.118022 283.827886 
L 120.151515 286.715158 
L 113.724083 292.970915 
L 104.330144 302.113943 
L 101.363636 305.001215 
L 94.936204 311.256972 
L 85.542265 320.4 
L 82.575758 320.4 
L 63.787879 320.4 
L 63.293461 320.4 
L 63.787879 319.918788 
L 72.6874 311.256972 
L 82.08134 302.113943 
L 82.575758 301.632731 
L 91.475279 292.970915 
L 100.869219 283.827886 
L 101.363636 283.346674 
L 110.263158 274.684858 
L 119.657097 265.541829 
L 120.151515 265.060617 
L 129.051037 256.398801 
L 138.444976 247.255772 
z
" clip-path="url(#pf45622eb71)" style="fill: #25838e"/>
    <path d="M 176.515152 238.112744 
L 192.336523 238.112744 
L 182.942584 247.255772 
L 176.515152 253.511528 
L 173.548644 256.398801 
L 164.154705 265.541829 
L 157.727273 271.797585 
L 154.760766 274.684858 
L 145.366826 283.827886 
L 138.939394 290.083642 
L 135.972887 292.970915 
L 126.578947 302.113943 
L 120.151515 308.369699 
L 117.185008 311.256972 
L 107.791069 320.4 
L 101.363636 320.4 
L 85.542265 320.4 
L 94.936204 311.256972 
L 101.363636 305.001215 
L 104.330144 302.113943 
L 113.724083 292.970915 
L 120.151515 286.715158 
L 123.118022 283.827886 
L 132.511962 274.684858 
L 138.939394 268.429101 
L 141.905901 265.541829 
L 151.299841 256.398801 
L 157.727273 250.143044 
L 160.69378 247.255772 
L 170.087719 238.112744 
z
" clip-path="url(#pf45622eb71)" style="fill: #21918c"/>
    <path d="M 195.30303 238.112744 
L 214.090909 238.112744 
L 214.090909 238.593956 
L 205.191388 247.255772 
L 195.797448 256.398801 
L 195.30303 256.880013 
L 186.403509 265.541829 
L 177.009569 274.684858 
L 176.515152 275.16607 
L 167.61563 283.827886 
L 158.221691 292.970915 
L 157.727273 293.452127 
L 148.827751 302.113943 
L 139.433812 311.256972 
L 138.939394 311.738184 
L 130.039872 320.4 
L 120.151515 320.4 
L 107.791069 320.4 
L 117.185008 311.256972 
L 120.151515 308.369699 
L 126.578947 302.113943 
L 135.972887 292.970915 
L 138.939394 290.083642 
L 145.366826 283.827886 
L 154.760766 274.684858 
L 157.727273 271.797585 
L 164.154705 265.541829 
L 173.548644 256.398801 
L 176.515152 253.511528 
L 182.942584 247.255772 
L 192.336523 238.112744 
z
" clip-path="url(#pf45622eb71)" style="fill: #1e9d89"/>
    <path d="M 214.090909 238.593956 
L 214.090909 247.255772 
L 214.090909 256.398801 
L 214.090909 260.248497 
L 208.652313 265.541829 
L 199.258373 274.684858 
L 195.30303 278.534554 
L 189.864434 283.827886 
L 180.470494 292.970915 
L 176.515152 296.820611 
L 171.076555 302.113943 
L 161.682616 311.256972 
L 157.727273 315.106668 
L 152.288676 320.4 
L 138.939394 320.4 
L 130.039872 320.4 
L 138.939394 311.738184 
L 139.433812 311.256972 
L 148.827751 302.113943 
L 157.727273 293.452127 
L 158.221691 292.970915 
L 167.61563 283.827886 
L 176.515152 275.16607 
L 177.009569 274.684858 
L 186.403509 265.541829 
L 195.30303 256.880013 
L 195.797448 256.398801 
L 205.191388 247.255772 
z
" clip-path="url(#pf45622eb71)" style="fill: #23a983"/>
    <path d="M 214.090909 260.248497 
L 214.090909 265.541829 
L 214.090909 274.684858 
L 214.090909 281.903038 
L 212.113238 283.827886 
L 202.719298 292.970915 
L 195.30303 300.189095 
L 193.325359 302.113943 
L 183.931419 311.256972 
L 176.515152 318.475152 
L 174.53748 320.4 
L 157.727273 320.4 
L 152.288676 320.4 
L 157.727273 315.106668 
L 161.682616 311.256972 
L 171.076555 302.113943 
L 176.515152 296.820611 
L 180.470494 292.970915 
L 189.864434 283.827886 
L 195.30303 278.534554 
L 199.258373 274.684858 
L 208.652313 265.541829 
z
" clip-path="url(#pf45622eb71)" style="fill: #32b67a"/>
    <path d="M 214.090909 281.903038 
L 214.090909 283.827886 
L 214.090909 292.970915 
L 214.090909 302.113943 
L 214.090909 303.557579 
L 206.180223 311.256972 
L 196.786284 320.4 
L 195.30303 320.4 
L 176.515152 320.4 
L 174.53748 320.4 
L 176.515152 318.475152 
L 183.931419 311.256972 
L 193.325359 302.113943 
L 195.30303 300.189095 
L 202.719298 292.970915 
L 212.113238 283.827886 
z
" clip-path="url(#pf45622eb71)" style="fill: #48c16e"/>
    <path d="M 214.090909 303.557579 
L 214.090909 311.256972 
L 214.090909 320.4 
L 196.786284 320.4 
L 206.180223 311.256972 
z
" clip-path="url(#pf45622eb71)" style="fill: #65cb5e"/>
    <path clip-path="url(#pf45622eb71)" style="fill: #84d44b"/>
    <path clip-path="url(#pf45622eb71)" style="fill: #a8db34"/>
    <path clip-path="url(#pf45622eb71)" style="fill: #cae11f"/>
    <path clip-path="url(#pf45622eb71)" style="fill: #efe51c"/>
   </g>
   <g id="matplotlib.axis_5">
    <g id="xtick_9">
     <g id="line2d_33">
      <g>
       <use xlink:href="#m63b08ea1fd" x="45" y="320.4" style="stroke: #000000; stroke-width: 0.8"/>
      </g>
     </g>
     <g id="text_29">
      <!-- −10 -->
      <g transform="translate(34.447656 334.998438) scale(0.1 -0.1)">
       <use xlink:href="#DejaVuSans-2212"/>
       <use xlink:href="#DejaVuSans-31" transform="translate(83.789062 0)"/>
       <use xlink:href="#DejaVuSans-30" transform="translate(147.412109 0)"/>
      </g>
     </g>
    </g>
    <g id="xtick_10">
     <g id="line2d_34">
      <g>
       <use xlink:href="#m63b08ea1fd" x="87.272727" y="320.4" style="stroke: #000000; stroke-width: 0.8"/>
      </g>
     </g>
     <g id="text_30">
      <!-- −5 -->
      <g transform="translate(79.901634 334.998438) scale(0.1 -0.1)">
       <use xlink:href="#DejaVuSans-2212"/>
       <use xlink:href="#DejaVuSans-35" transform="translate(83.789062 0)"/>
      </g>
     </g>
    </g>
    <g id="xtick_11">
     <g id="line2d_35">
      <g>
       <use xlink:href="#m63b08ea1fd" x="129.545455" y="320.4" style="stroke: #000000; stroke-width: 0.8"/>
      </g>
     </g>
     <g id="text_31">
      <!-- 0 -->
      <g transform="translate(126.364205 334.998438) scale(0.1 -0.1)">
       <use xlink:href="#DejaVuSans-30"/>
      </g>
     </g>
    </g>
    <g id="xtick_12">
     <g id="line2d_36">
      <g>
       <use xlink:href="#m63b08ea1fd" x="171.818182" y="320.4" style="stroke: #000000; stroke-width: 0.8"/>
      </g>
     </g>
     <g id="text_32">
      <!-- 5 -->
      <g transform="translate(168.636932 334.998438) scale(0.1 -0.1)">
       <use xlink:href="#DejaVuSans-35"/>
      </g>
     </g>
    </g>
    <g id="xtick_13">
     <g id="line2d_37">
      <g>
       <use xlink:href="#m63b08ea1fd" x="214.090909" y="320.4" style="stroke: #000000; stroke-width: 0.8"/>
      </g>
     </g>
     <g id="text_33">
      <!-- 10 -->
      <g transform="translate(207.728409 334.998438) scale(0.1 -0.1)">
       <use xlink:href="#DejaVuSans-31"/>
       <use xlink:href="#DejaVuSans-30" transform="translate(63.623047 0)"/>
      </g>
     </g>
    </g>
    <g id="text_34">
     <!-- Longitude (º) -->
     <g transform="translate(96.829048 348.676562) scale(0.1 -0.1)">
      <defs>
       <path id="DejaVuSans-6f" d="M 1959 3097 
Q 1497 3097 1228 2736 
Q 959 2375 959 1747 
Q 959 1119 1226 758 
Q 1494 397 1959 397 
Q 2419 397 2687 759 
Q 2956 1122 2956 1747 
Q 2956 2369 2687 2733 
Q 2419 3097 1959 3097 
z
M 1959 3584 
Q 2709 3584 3137 3096 
Q 3566 2609 3566 1747 
Q 3566 888 3137 398 
Q 2709 -91 1959 -91 
Q 1206 -91 779 398 
Q 353 888 353 1747 
Q 353 2609 779 3096 
Q 1206 3584 1959 3584 
z
" transform="scale(0.015625)"/>
       <path id="DejaVuSans-6e" d="M 3513 2113 
L 3513 0 
L 2938 0 
L 2938 2094 
Q 2938 2591 2744 2837 
Q 2550 3084 2163 3084 
Q 1697 3084 1428 2787 
Q 1159 2491 1159 1978 
L 1159 0 
L 581 0 
L 581 3500 
L 1159 3500 
L 1159 2956 
Q 1366 3272 1645 3428 
Q 1925 3584 2291 3584 
Q 2894 3584 3203 3211 
Q 3513 2838 3513 2113 
z
" transform="scale(0.015625)"/>
       <path id="DejaVuSans-67" d="M 2906 1791 
Q 2906 2416 2648 2759 
Q 2391 3103 1925 3103 
Q 1463 3103 1205 2759 
Q 947 2416 947 1791 
Q 947 1169 1205 825 
Q 1463 481 1925 481 
Q 2391 481 2648 825 
Q 2906 1169 2906 1791 
z
M 3481 434 
Q 3481 -459 3084 -895 
Q 2688 -1331 1869 -1331 
Q 1566 -1331 1297 -1286 
Q 1028 -1241 775 -1147 
L 775 -588 
Q 1028 -725 1275 -790 
Q 1522 -856 1778 -856 
Q 2344 -856 2625 -561 
Q 2906 -266 2906 331 
L 2906 616 
Q 2728 306 2450 153 
Q 2172 0 1784 0 
Q 1141 0 747 490 
Q 353 981 353 1791 
Q 353 2603 747 3093 
Q 1141 3584 1784 3584 
Q 2172 3584 2450 3431 
Q 2728 3278 2906 2969 
L 2906 3500 
L 3481 3500 
L 3481 434 
z
" transform="scale(0.015625)"/>
      </defs>
      <use xlink:href="#DejaVuSans-4c"/>
      <use xlink:href="#DejaVuSans-6f" transform="translate(53.962891 0)"/>
      <use xlink:href="#DejaVuSans-6e" transform="translate(115.144531 0)"/>
      <use xlink:href="#DejaVuSans-67" transform="translate(178.523438 0)"/>
      <use xlink:href="#DejaVuSans-69" transform="translate(242 0)"/>
      <use xlink:href="#DejaVuSans-74" transform="translate(269.783203 0)"/>
      <use xlink:href="#DejaVuSans-75" transform="translate(308.992188 0)"/>
      <use xlink:href="#DejaVuSans-64" transform="translate(372.371094 0)"/>
      <use xlink:href="#DejaVuSans-65" transform="translate(435.847656 0)"/>
      <use xlink:href="#DejaVuSans-20" transform="translate(497.371094 0)"/>
      <use xlink:href="#DejaVuSans-28" transform="translate(529.158203 0)"/>
      <use xlink:href="#DejaVuSans-ba" transform="translate(568.171875 0)"/>
      <use xlink:href="#DejaVuSans-29" transform="translate(615.291016 0)"/>
     </g>
    </g>
   </g>
   <g id="matplotlib.axis_6">
    <g id="ytick_19">
     <g id="line2d_38">
      <g>
       <use xlink:href="#m4873504554" x="45" y="238.112744" style="stroke: #000000; stroke-width: 0.8"/>
      </g>
     </g>
     <g id="text_35">
      <!-- 0.0 -->
      <g transform="translate(22.096875 241.911962) scale(0.1 -0.1)">
       <use xlink:href="#DejaVuSans-30"/>
       <use xlink:href="#DejaVuSans-2e" transform="translate(63.623047 0)"/>
       <use xlink:href="#DejaVuSans-30" transform="translate(95.410156 0)"/>
      </g>
     </g>
    </g>
    <g id="ytick_20">
     <g id="line2d_39">
      <g>
       <use xlink:href="#m4873504554" x="45" y="258.684558" style="stroke: #000000; stroke-width: 0.8"/>
      </g>
     </g>
     <g id="text_36">
      <!-- 2.5 -->
      <g transform="translate(22.096875 262.483776) scale(0.1 -0.1)">
       <use xlink:href="#DejaVuSans-32"/>
       <use xlink:href="#DejaVuSans-2e" transform="translate(63.623047 0)"/>
       <use xlink:href="#DejaVuSans-35" transform="translate(95.410156 0)"/>
      </g>
     </g>
    </g>
    <g id="ytick_21">
     <g id="line2d_40">
      <g>
       <use xlink:href="#m4873504554" x="45" y="279.256372" style="stroke: #000000; stroke-width: 0.8"/>
      </g>
     </g>
     <g id="text_37">
      <!-- 5.0 -->
      <g transform="translate(22.096875 283.055591) scale(0.1 -0.1)">
       <use xlink:href="#DejaVuSans-35"/>
       <use xlink:href="#DejaVuSans-2e" transform="translate(63.623047 0)"/>
       <use xlink:href="#DejaVuSans-30" transform="translate(95.410156 0)"/>
      </g>
     </g>
    </g>
    <g id="ytick_22">
     <g id="line2d_41">
      <g>
       <use xlink:href="#m4873504554" x="45" y="299.828186" style="stroke: #000000; stroke-width: 0.8"/>
      </g>
     </g>
     <g id="text_38">
      <!-- 7.5 -->
      <g transform="translate(22.096875 303.627405) scale(0.1 -0.1)">
       <use xlink:href="#DejaVuSans-37"/>
       <use xlink:href="#DejaVuSans-2e" transform="translate(63.623047 0)"/>
       <use xlink:href="#DejaVuSans-35" transform="translate(95.410156 0)"/>
      </g>
     </g>
    </g>
    <g id="ytick_23">
     <g id="line2d_42">
      <g>
       <use xlink:href="#m4873504554" x="45" y="320.4" style="stroke: #000000; stroke-width: 0.8"/>
      </g>
     </g>
     <g id="text_39">
      <!-- 10.0 -->
      <g transform="translate(15.734375 324.199219) scale(0.1 -0.1)">
       <use xlink:href="#DejaVuSans-31"/>
       <use xlink:href="#DejaVuSans-30" transform="translate(63.623047 0)"/>
       <use xlink:href="#DejaVuSans-2e" transform="translate(127.246094 0)"/>
       <use xlink:href="#DejaVuSans-30" transform="translate(159.033203 0)"/>
      </g>
     </g>
    </g>
    <g id="text_40">
     <!-- Depth (km) -->
     <g transform="translate(9.654687 307.742309) rotate(-90) scale(0.1 -0.1)">
      <use xlink:href="#DejaVuSans-44"/>
      <use xlink:href="#DejaVuSans-65" transform="translate(77.001953 0)"/>
      <use xlink:href="#DejaVuSans-70" transform="translate(138.525391 0)"/>
      <use xlink:href="#DejaVuSans-74" transform="translate(202.001953 0)"/>
      <use xlink:href="#DejaVuSans-68" transform="translate(241.210938 0)"/>
      <use xlink:href="#DejaVuSans-20" transform="translate(304.589844 0)"/>
      <use xlink:href="#DejaVuSans-28" transform="translate(336.376953 0)"/>
      <use xlink:href="#DejaVuSans-6b" transform="translate(375.390625 0)"/>
      <use xlink:href="#DejaVuSans-6d" transform="translate(433.300781 0)"/>
      <use xlink:href="#DejaVuSans-29" transform="translate(530.712891 0)"/>
     </g>
    </g>
   </g>
   <g id="line2d_43">
    <path d="M 45 238.112744 
L 214.090909 238.112744 
" clip-path="url(#pf45622eb71)" style="fill: none; stroke-dasharray: 4,1.5; stroke-dashoffset: 0; stroke: #000000; stroke-width: 0.5"/>
   </g>
   <g id="line2d_44">
    <path d="M 129.545455 320.4 
L 129.545455 238.112744 
" clip-path="url(#pf45622eb71)" style="fill: none; stroke-dasharray: 4,1.5; stroke-dashoffset: 0; stroke: #000000; stroke-width: 0.5"/>
   </g>
   <g id="line2d_45">
    <defs>
     <path id="m50646544f0" d="M -0 3 
L 3 -3 
L -3 -3 
z
" style="stroke: #000000; stroke-linejoin: miter"/>
    </defs>
    <g>
     <use xlink:href="#m50646544f0" x="129.545455" y="238.112744" style="stroke: #000000; stroke-linejoin: miter"/>
    </g>
   </g>
   <g id="patch_13">
    <path d="M 45 320.4 
L 45 238.112744 
" style="fill: none; stroke: #000000; stroke-width: 0.8; stroke-linejoin: miter; stroke-linecap: square"/>
   </g>
   <g id="patch_14">
    <path d="M 214.090909 320.4 
L 214.090909 238.112744 
" style="fill: none; stroke: #000000; stroke-width: 0.8; stroke-linejoin: miter; stroke-linecap: square"/>
   </g>
   <g id="patch_15">
    <path d="M 45 320.4 
L 214.090909 320.4 
" style="fill: none; stroke: #000000; stroke-width: 0.8; stroke-linejoin: miter; stroke-linecap: square"/>
   </g>
   <g id="patch_16">
    <path d="M 45 238.112744 
L 214.090909 238.112744 
" style="fill: none; stroke: #000000; stroke-width: 0.8; stroke-linejoin: miter; stroke-linecap: square"/>
   </g>
  </g>
  <g id="axes_4">
   <g id="patch_17">
    <path d="M 239.454545 275.10045 
L 324 275.10045 
L 324 266.788606 
L 239.454545 266.788606 
z
" style="fill: #ffffff"/>
   </g>
   <g id="QuadMesh_1">
    <path d="M 239.454545 275.10045 
L 239.454545 266.788606 
L 243.904306 266.788606 
L 243.904306 275.10045 
L 239.454545 275.10045 
" clip-path="url(#pcfa1f5bada)" style="fill: #460a5d"/>
    <path d="M 243.904306 275.10045 
L 243.904306 266.788606 
L 248.354067 266.788606 
L 248.354067 275.10045 
L 243.904306 275.10045 
" clip-path="url(#pcfa1f5bada)" style="fill: #481d6f"/>
    <path d="M 248.354067 275.10045 
L 248.354067 266.788606 
L 252.803828 266.788606 
L 252.803828 275.10045 
L 248.354067 275.10045 
" clip-path="url(#pcfa1f5bada)" style="fill: #472e7c"/>
    <path d="M 252.803828 275.10045 
L 252.803828 266.788606 
L 257.253589 266.788606 
L 257.253589 275.10045 
L 252.803828 275.10045 
" clip-path="url(#pcfa1f5bada)" style="fill: #423f85"/>
    <path d="M 257.253589 275.10045 
L 257.253589 266.788606 
L 261.703349 266.788606 
L 261.703349 275.10045 
L 257.253589 275.10045 
" clip-path="url(#pcfa1f5bada)" style="fill: #3d4e8a"/>
    <path d="M 261.703349 275.10045 
L 261.703349 266.788606 
L 266.15311 266.788606 
L 266.15311 275.10045 
L 261.703349 275.10045 
" clip-path="url(#pcfa1f5bada)" style="fill: #365d8d"/>
    <path d="M 266.15311 275.10045 
L 266.15311 266.788606 
L 270.602871 266.788606 
L 270.602871 275.10045 
L 266.15311 275.10045 
" clip-path="url(#pcfa1f5bada)" style="fill: #306a8e"/>
    <path d="M 270.602871 275.10045 
L 270.602871 266.788606 
L 275.052632 266.788606 
L 275.052632 275.10045 
L 270.602871 275.10045 
" clip-path="url(#pcfa1f5bada)" style="fill: #2a778e"/>
    <path d="M 275.052632 275.10045 
L 275.052632 266.788606 
L 279.502392 266.788606 
L 279.502392 275.10045 
L 275.052632 275.10045 
" clip-path="url(#pcfa1f5bada)" style="fill: #25838e"/>
    <path d="M 279.502392 275.10045 
L 279.502392 266.788606 
L 283.952153 266.788606 
L 283.952153 275.10045 
L 279.502392 275.10045 
" clip-path="url(#pcfa1f5bada)" style="fill: #21918c"/>
    <path d="M 283.952153 275.10045 
L 283.952153 266.788606 
L 288.401914 266.788606 
L 288.401914 275.10045 
L 283.952153 275.10045 
" clip-path="url(#pcfa1f5bada)" style="fill: #1e9d89"/>
    <path d="M 288.401914 275.10045 
L 288.401914 266.788606 
L 292.851675 266.788606 
L 292.851675 275.10045 
L 288.401914 275.10045 
" clip-path="url(#pcfa1f5bada)" style="fill: #23a983"/>
    <path d="M 292.851675 275.10045 
L 292.851675 266.788606 
L 297.301435 266.788606 
L 297.301435 275.10045 
L 292.851675 275.10045 
" clip-path="url(#pcfa1f5bada)" style="fill: #32b67a"/>
    <path d="M 297.301435 275.10045 
L 297.301435 266.788606 
L 301.751196 266.788606 
L 301.751196 275.10045 
L 297.301435 275.10045 
" clip-path="url(#pcfa1f5bada)" style="fill: #48c16e"/>
    <path d="M 301.751196 275.10045 
L 301.751196 266.788606 
L 306.200957 266.788606 
L 306.200957 275.10045 
L 301.751196 275.10045 
" clip-path="url(#pcfa1f5bada)" style="fill: #65cb5e"/>
    <path d="M 306.200957 275.10045 
L 306.200957 266.788606 
L 310.650718 266.788606 
L 310.650718 275.10045 
L 306.200957 275.10045 
" clip-path="url(#pcfa1f5bada)" style="fill: #84d44b"/>
    <path d="M 310.650718 275.10045 
L 310.650718 266.788606 
L 315.100478 266.788606 
L 315.100478 275.10045 
L 310.650718 275.10045 
" clip-path="url(#pcfa1f5bada)" style="fill: #a8db34"/>
    <path d="M 315.100478 275.10045 
L 315.100478 266.788606 
L 319.550239 266.788606 
L 319.550239 275.10045 
L 315.100478 275.10045 
" clip-path="url(#pcfa1f5bada)" style="fill: #cae11f"/>
    <path d="M 319.550239 275.10045 
L 319.550239 266.788606 
L 324 266.788606 
L 324 275.10045 
L 319.550239 275.10045 
" clip-path="url(#pcfa1f5bada)" style="fill: #efe51c"/>
   </g>
   <g id="matplotlib.axis_7">
    <g id="xtick_14">
     <g id="line2d_46">
      <g>
       <use xlink:href="#m63b08ea1fd" x="247.909091" y="275.10045" style="stroke: #000000; stroke-width: 0.8"/>
      </g>
     </g>
     <g id="text_41">
      <!-- −15 -->
      <g transform="translate(237.356747 289.698887) scale(0.1 -0.1)">
       <use xlink:href="#DejaVuSans-2212"/>
       <use xlink:href="#DejaVuSans-31" transform="translate(83.789062 0)"/>
       <use xlink:href="#DejaVuSans-35" transform="translate(147.412109 0)"/>
      </g>
     </g>
    </g>
    <g id="xtick_15">
     <g id="line2d_47">
      <g>
       <use xlink:href="#m63b08ea1fd" x="273.272727" y="275.10045" style="stroke: #000000; stroke-width: 0.8"/>
      </g>
     </g>
     <g id="text_42">
      <!-- 0 -->
      <g transform="translate(270.091477 289.698887) scale(0.1 -0.1)">
       <use xlink:href="#DejaVuSans-30"/>
      </g>
     </g>
    </g>
    <g id="xtick_16">
     <g id="line2d_48">
      <g>
       <use xlink:href="#m63b08ea1fd" x="298.636364" y="275.10045" style="stroke: #000000; stroke-width: 0.8"/>
      </g>
     </g>
     <g id="text_43">
      <!-- 15 -->
      <g transform="translate(292.273864 289.698887) scale(0.1 -0.1)">
       <use xlink:href="#DejaVuSans-31"/>
       <use xlink:href="#DejaVuSans-35" transform="translate(63.623047 0)"/>
      </g>
     </g>
    </g>
    <g id="xtick_17">
     <g id="line2d_49">
      <g>
       <use xlink:href="#m63b08ea1fd" x="324" y="275.10045" style="stroke: #000000; stroke-width: 0.8"/>
      </g>
     </g>
     <g id="text_44">
      <!-- 30 -->
      <g transform="translate(317.6375 289.698887) scale(0.1 -0.1)">
       <defs>
        <path id="DejaVuSans-33" d="M 2597 2516 
Q 3050 2419 3304 2112 
Q 3559 1806 3559 1356 
Q 3559 666 3084 287 
Q 2609 -91 1734 -91 
Q 1441 -91 1130 -33 
Q 819 25 488 141 
L 488 750 
Q 750 597 1062 519 
Q 1375 441 1716 441 
Q 2309 441 2620 675 
Q 2931 909 2931 1356 
Q 2931 1769 2642 2001 
Q 2353 2234 1838 2234 
L 1294 2234 
L 1294 2753 
L 1863 2753 
Q 2328 2753 2575 2939 
Q 2822 3125 2822 3475 
Q 2822 3834 2567 4026 
Q 2313 4219 1838 4219 
Q 1578 4219 1281 4162 
Q 984 4106 628 3988 
L 628 4550 
Q 988 4650 1302 4700 
Q 1616 4750 1894 4750 
Q 2613 4750 3031 4423 
Q 3450 4097 3450 3541 
Q 3450 3153 3228 2886 
Q 3006 2619 2597 2516 
z
" transform="scale(0.015625)"/>
       </defs>
       <use xlink:href="#DejaVuSans-33"/>
       <use xlink:href="#DejaVuSans-30" transform="translate(63.623047 0)"/>
      </g>
     </g>
    </g>
    <g id="text_45">
     <!-- Amplitude (dB) -->
     <g transform="translate(244.009304 303.377012) scale(0.1 -0.1)">
      <defs>
       <path id="DejaVuSans-41" d="M 2188 4044 
L 1331 1722 
L 3047 1722 
L 2188 4044 
z
M 1831 4666 
L 2547 4666 
L 4325 0 
L 3669 0 
L 3244 1197 
L 1141 1197 
L 716 0 
L 50 0 
L 1831 4666 
z
" transform="scale(0.015625)"/>
       <path id="DejaVuSans-6c" d="M 603 4863 
L 1178 4863 
L 1178 0 
L 603 0 
L 603 4863 
z
" transform="scale(0.015625)"/>
       <path id="DejaVuSans-42" d="M 1259 2228 
L 1259 519 
L 2272 519 
Q 2781 519 3026 730 
Q 3272 941 3272 1375 
Q 3272 1813 3026 2020 
Q 2781 2228 2272 2228 
L 1259 2228 
z
M 1259 4147 
L 1259 2741 
L 2194 2741 
Q 2656 2741 2882 2914 
Q 3109 3088 3109 3444 
Q 3109 3797 2882 3972 
Q 2656 4147 2194 4147 
L 1259 4147 
z
M 628 4666 
L 2241 4666 
Q 2963 4666 3353 4366 
Q 3744 4066 3744 3513 
Q 3744 3084 3544 2831 
Q 3344 2578 2956 2516 
Q 3422 2416 3680 2098 
Q 3938 1781 3938 1306 
Q 3938 681 3513 340 
Q 3088 0 2303 0 
L 628 0 
L 628 4666 
z
" transform="scale(0.015625)"/>
      </defs>
      <use xlink:href="#DejaVuSans-41"/>
      <use xlink:href="#DejaVuSans-6d" transform="translate(68.408203 0)"/>
      <use xlink:href="#DejaVuSans-70" transform="translate(165.820312 0)"/>
      <use xlink:href="#DejaVuSans-6c" transform="translate(229.296875 0)"/>
      <use xlink:href="#DejaVuSans-69" transform="translate(257.080078 0)"/>
      <use xlink:href="#DejaVuSans-74" transform="translate(284.863281 0)"/>
      <use xlink:href="#DejaVuSans-75" transform="translate(324.072266 0)"/>
      <use xlink:href="#DejaVuSans-64" transform="translate(387.451172 0)"/>
      <use xlink:href="#DejaVuSans-65" transform="translate(450.927734 0)"/>
      <use xlink:href="#DejaVuSans-20" transform="translate(512.451172 0)"/>
      <use xlink:href="#DejaVuSans-28" transform="translate(544.238281 0)"/>
      <use xlink:href="#DejaVuSans-64" transform="translate(583.251953 0)"/>
      <use xlink:href="#DejaVuSans-42" transform="translate(646.728516 0)"/>
      <use xlink:href="#DejaVuSans-29" transform="translate(715.332031 0)"/>
     </g>
    </g>
   </g>
   <g id="matplotlib.axis_8"/>
   <g id="LineCollection_1"/>
   <g id="patch_18">
    <path d="M 239.454545 275.10045 
L 239.454545 270.944528 
L 239.454545 266.788606 
L 324 266.788606 
L 324 270.944528 
L 324 275.10045 
L 239.454545 275.10045 
z
" style="fill: none; stroke: #000000; stroke-width: 0.8; stroke-linejoin: miter; stroke-linecap: square"/>
   </g>
  </g>
 </g>
 <defs>
  <clipPath id="p5aece8576f">
   <rect x="45" y="43.2" width="169.090909" height="166.236882"/>
  </clipPath>
  <clipPath id="pde4c06dff5">
   <rect x="239.454545" y="43.2" width="84.545455" height="166.236882"/>
  </clipPath>
  <clipPath id="pf45622eb71">
   <rect x="45" y="238.112744" width="169.090909" height="82.287256"/>
  </clipPath>
  <clipPath id="pcfa1f5bada">
   <rect x="239.454545" y="266.788606" width="84.545455" height="8.311844"/>
  </clipPath>
 </defs>
</svg>
