<?xml version="1.0" encoding="utf-8" standalone="no"?>
<!DOCTYPE svg PUBLIC "-//W3C//DTD SVG 1.1//EN"
  "http://www.w3.org/Graphics/SVG/1.1/DTD/svg11.dtd">
<svg xmlns:xlink="http://www.w3.org/1999/xlink" width="432pt" height="216pt" viewBox="0 0 432 216" xmlns="http://www.w3.org/2000/svg" version="1.1">
 <metadata>
  <rdf:RDF xmlns:dc="http://purl.org/dc/elements/1.1/" xmlns:cc="http://creativecommons.org/ns#" xmlns:rdf="http://www.w3.org/1999/02/22-rdf-syntax-ns#">
   <cc:Work>
    <dc:type rdf:resource="http://purl.org/dc/dcmitype/StillImage"/>
    <dc:date>2025-11-04T22:41:57.154488</dc:date>
    <dc:format>image/svg+xml</dc:format>
    <dc:creator>
     <cc:Agent>
      <dc:title>Matplotlib v3.10.7, https://matplotlib.org/</dc:title>
     </cc:Agent>
    </dc:creator>
   </cc:Work>
  </rdf:RDF>
 </metadata>
 <defs>
  <style type="text/css">*{stroke-linejoin: round; stroke-linecap: butt}</style>
 </defs>
 <g id="figure_1">
  <g id="patch_1">
   <path d="M 0 216 
L 432 216 
L 432 0 
L 0 0 
z
" style="fill: #ffffff"/>
  </g>
  <g id="axes_1">
   <g id="patch_2">
    <path d="M 57.508053 182.64351 
L 221.114604 182.64351 
L 221.114604 3.00024 
L 57.508053 3.00024 
z
" style="fill: #ffffff"/>
   </g>
   <g id="matplotlib.axis_1">
    <g id="xtick_1">
     <g id="line2d_1">
      <path d="M 64.944714 182.64351 
L 64.944714 3.00024 
" clip-path="url(#p323a8d1e96)" style="fill: none; stroke: #b0b0b0; stroke-width: 0.8; stroke-linecap: square"/>
     </g>
     <g id="line2d_2">
      <defs>
       <path id="m3905bd5b67" d="M 0 0 
L 0 3.5 
" style="stroke: #000000; stroke-width: 0.8"/>
      </defs>
      <g>
       <use xlink:href="#m3905bd5b67" x="64.944714" y="182.64351" style="stroke: #000000; stroke-width: 0.8"/>
      </g>
     </g>
     <g id="text_1">
      <!-- 0 -->
      <g transform="translate(61.763464 197.241948) scale(0.1 -0.1)">
       <defs>
        <path id="DejaVuSans-30" d="M 2034 4250 
Q 1547 4250 1301 3770 
Q 1056 3291 1056 2328 
Q 1056 1369 1301 889 
Q 1547 409 2034 409 
Q 2525 409 2770 889 
Q 3016 1369 3016 2328 
Q 3016 3291 2770 3770 
Q 2525 4250 2034 4250 
z
M 2034 4750 
Q 2819 4750 3233 4129 
Q 3647 3509 3647 2328 
Q 3647 1150 3233 529 
Q 2819 -91 2034 -91 
Q 1250 -91 836 529 
Q 422 1150 422 2328 
Q 422 3509 836 4129 
Q 1250 4750 2034 4750 
z
" transform="scale(0.015625)"/>
       </defs>
       <use xlink:href="#DejaVuSans-30"/>
      </g>
     </g>
    </g>
    <g id="xtick_2">
     <g id="line2d_3">
      <path d="M 114.538988 182.64351 
L 114.538988 3.00024 
" clip-path="url(#p323a8d1e96)" style="fill: none; stroke: #b0b0b0; stroke-width: 0.8; stroke-linecap: square"/>
     </g>
     <g id="line2d_4">
      <g>
       <use xlink:href="#m3905bd5b67" x="114.538988" y="182.64351" style="stroke: #000000; stroke-width: 0.8"/>
      </g>
     </g>
     <g id="text_2">
      <!-- 10 -->
      <g transform="translate(108.176488 197.241948) scale(0.1 -0.1)">
       <defs>
        <path id="DejaVuSans-31" d="M 794 531 
L 1825 531 
L 1825 4091 
L 703 3866 
L 703 4441 
L 1819 4666 
L 2450 4666 
L 2450 531 
L 3481 531 
L 3481 0 
L 794 0 
L 794 531 
z
" transform="scale(0.015625)"/>
       </defs>
       <use xlink:href="#DejaVuSans-31"/>
       <use xlink:href="#DejaVuSans-30" transform="translate(63.623047 0)"/>
      </g>
     </g>
    </g>
    <g id="xtick_3">
     <g id="line2d_5">
      <path d="M 164.133262 182.64351 
L 164.133262 3.00024 
" clip-path="url(#p323a8d1e96)" style="fill: none; stroke: #b0b0b0; stroke-width: 0.8; stroke-linecap: square"/>
     </g>
     <g id="line2d_6">
      <g>
       <use xlink:href="#m3905bd5b67" x="164.133262" y="182.64351" style="stroke: #000000; stroke-width: 0.8"/>
      </g>
     </g>
     <g id="text_3">
      <!-- 20 -->
      <g transform="translate(157.770762 197.241948) scale(0.1 -0.1)">
       <defs>
        <path id="DejaVuSans-32" d="M 1228 531 
L 3431 531 
L 3431 0 
L 469 0 
L 469 531 
Q 828 903 1448 1529 
Q 2069 2156 2228 2338 
Q 2531 2678 2651 2914 
Q 2772 3150 2772 3378 
Q 2772 3750 2511 3984 
Q 2250 4219 1831 4219 
Q 1534 4219 1204 4116 
Q 875 4013 500 3803 
L 500 4441 
Q 881 4594 1212 4672 
Q 1544 4750 1819 4750 
Q 2544 4750 2975 4387 
Q 3406 4025 3406 3419 
Q 3406 3131 3298 2873 
Q 3191 2616 2906 2266 
Q 2828 2175 2409 1742 
Q 1991 1309 1228 531 
z
" transform="scale(0.015625)"/>
       </defs>
       <use xlink:href="#DejaVuSans-32"/>
       <use xlink:href="#DejaVuSans-30" transform="translate(63.623047 0)"/>
      </g>
     </g>
    </g>
    <g id="xtick_4">
     <g id="line2d_7">
      <path d="M 213.727537 182.64351 
L 213.727537 3.00024 
" clip-path="url(#p323a8d1e96)" style="fill: none; stroke: #b0b0b0; stroke-width: 0.8; stroke-linecap: square"/>
     </g>
     <g id="line2d_8">
      <g>
       <use xlink:href="#m3905bd5b67" x="213.727537" y="182.64351" style="stroke: #000000; stroke-width: 0.8"/>
      </g>
     </g>
     <g id="text_4">
      <!-- 30 -->
      <g transform="translate(207.365037 197.241948) scale(0.1 -0.1)">
       <defs>
        <path id="DejaVuSans-33" d="M 2597 2516 
Q 3050 2419 3304 2112 
Q 3559 1806 3559 1356 
Q 3559 666 3084 287 
Q 2609 -91 1734 -91 
Q 1441 -91 1130 -33 
Q 819 25 488 141 
L 488 750 
Q 750 597 1062 519 
Q 1375 441 1716 441 
Q 2309 441 2620 675 
Q 2931 909 2931 1356 
Q 2931 1769 2642 2001 
Q 2353 2234 1838 2234 
L 1294 2234 
L 1294 2753 
L 1863 2753 
Q 2328 2753 2575 2939 
Q 2822 3125 2822 3475 
Q 2822 3834 2567 4026 
Q 2313 4219 1838 4219 
Q 1578 4219 1281 4162 
Q 984 4106 628 3988 
L 628 4550 
Q 988 4650 1302 4700 
Q 1616 4750 1894 4750 
Q 2613 4750 3031 4423 
Q 3450 4097 3450 3541 
Q 3450 3153 3228 2886 
Q 3006 2619 2597 2516 
z
" transform="scale(0.015625)"/>
       </defs>
       <use xlink:href="#DejaVuSans-33"/>
       <use xlink:href="#DejaVuSans-30" transform="translate(63.623047 0)"/>
      </g>
     </g>
    </g>
    <g id="text_5">
     <!-- Time (seconds) -->
     <g transform="translate(101.149609 210.920073) scale(0.1 -0.1)">
      <defs>
       <path id="DejaVuSans-54" d="M -19 4666 
L 3928 4666 
L 3928 4134 
L 2272 4134 
L 2272 0 
L 1638 0 
L 1638 4134 
L -19 4134 
L -19 4666 
z
" transform="scale(0.015625)"/>
       <path id="DejaVuSans-69" d="M 603 3500 
L 1178 3500 
L 1178 0 
L 603 0 
L 603 3500 
z
M 603 4863 
L 1178 4863 
L 1178 4134 
L 603 4134 
L 603 4863 
z
" transform="scale(0.015625)"/>
       <path id="DejaVuSans-6d" d="M 3328 2828 
Q 3544 3216 3844 3400 
Q 4144 3584 4550 3584 
Q 5097 3584 5394 3201 
Q 5691 2819 5691 2113 
L 5691 0 
L 5113 0 
L 5113 2094 
Q 5113 2597 4934 2840 
Q 4756 3084 4391 3084 
Q 3944 3084 3684 2787 
Q 3425 2491 3425 1978 
L 3425 0 
L 2847 0 
L 2847 2094 
Q 2847 2600 2669 2842 
Q 2491 3084 2119 3084 
Q 1678 3084 1418 2786 
Q 1159 2488 1159 1978 
L 1159 0 
L 581 0 
L 581 3500 
L 1159 3500 
L 1159 2956 
Q 1356 3278 1631 3431 
Q 1906 3584 2284 3584 
Q 2666 3584 2933 3390 
Q 3200 3197 3328 2828 
z
" transform="scale(0.015625)"/>
       <path id="DejaVuSans-65" d="M 3597 1894 
L 3597 1613 
L 953 1613 
Q 991 1019 1311 708 
Q 1631 397 2203 397 
Q 2534 397 2845 478 
Q 3156 559 3463 722 
L 3463 178 
Q 3153 47 2828 -22 
Q 2503 -91 2169 -91 
Q 1331 -91 842 396 
Q 353 884 353 1716 
Q 353 2575 817 3079 
Q 1281 3584 2069 3584 
Q 2775 3584 3186 3129 
Q 3597 2675 3597 1894 
z
M 3022 2063 
Q 3016 2534 2758 2815 
Q 2500 3097 2075 3097 
Q 1594 3097 1305 2825 
Q 1016 2553 972 2059 
L 3022 2063 
z
" transform="scale(0.015625)"/>
       <path id="DejaVuSans-20" transform="scale(0.015625)"/>
       <path id="DejaVuSans-28" d="M 1984 4856 
Q 1566 4138 1362 3434 
Q 1159 2731 1159 2009 
Q 1159 1288 1364 580 
Q 1569 -128 1984 -844 
L 1484 -844 
Q 1016 -109 783 600 
Q 550 1309 550 2009 
Q 550 2706 781 3412 
Q 1013 4119 1484 4856 
L 1984 4856 
z
" transform="scale(0.015625)"/>
       <path id="DejaVuSans-73" d="M 2834 3397 
L 2834 2853 
Q 2591 2978 2328 3040 
Q 2066 3103 1784 3103 
Q 1356 3103 1142 2972 
Q 928 2841 928 2578 
Q 928 2378 1081 2264 
Q 1234 2150 1697 2047 
L 1894 2003 
Q 2506 1872 2764 1633 
Q 3022 1394 3022 966 
Q 3022 478 2636 193 
Q 2250 -91 1575 -91 
Q 1294 -91 989 -36 
Q 684 19 347 128 
L 347 722 
Q 666 556 975 473 
Q 1284 391 1588 391 
Q 1994 391 2212 530 
Q 2431 669 2431 922 
Q 2431 1156 2273 1281 
Q 2116 1406 1581 1522 
L 1381 1569 
Q 847 1681 609 1914 
Q 372 2147 372 2553 
Q 372 3047 722 3315 
Q 1072 3584 1716 3584 
Q 2034 3584 2315 3537 
Q 2597 3491 2834 3397 
z
" transform="scale(0.015625)"/>
       <path id="DejaVuSans-63" d="M 3122 3366 
L 3122 2828 
Q 2878 2963 2633 3030 
Q 2388 3097 2138 3097 
Q 1578 3097 1268 2742 
Q 959 2388 959 1747 
Q 959 1106 1268 751 
Q 1578 397 2138 397 
Q 2388 397 2633 464 
Q 2878 531 3122 666 
L 3122 134 
Q 2881 22 2623 -34 
Q 2366 -91 2075 -91 
Q 1284 -91 818 406 
Q 353 903 353 1747 
Q 353 2603 823 3093 
Q 1294 3584 2113 3584 
Q 2378 3584 2631 3529 
Q 2884 3475 3122 3366 
z
" transform="scale(0.015625)"/>
       <path id="DejaVuSans-6f" d="M 1959 3097 
Q 1497 3097 1228 2736 
Q 959 2375 959 1747 
Q 959 1119 1226 758 
Q 1494 397 1959 397 
Q 2419 397 2687 759 
Q 2956 1122 2956 1747 
Q 2956 2369 2687 2733 
Q 2419 3097 1959 3097 
z
M 1959 3584 
Q 2709 3584 3137 3096 
Q 3566 2609 3566 1747 
Q 3566 888 3137 398 
Q 2709 -91 1959 -91 
Q 1206 -91 779 398 
Q 353 888 353 1747 
Q 353 2609 779 3096 
Q 1206 3584 1959 3584 
z
" transform="scale(0.015625)"/>
       <path id="DejaVuSans-6e" d="M 3513 2113 
L 3513 0 
L 2938 0 
L 2938 2094 
Q 2938 2591 2744 2837 
Q 2550 3084 2163 3084 
Q 1697 3084 1428 2787 
Q 1159 2491 1159 1978 
L 1159 0 
L 581 0 
L 581 3500 
L 1159 3500 
L 1159 2956 
Q 1366 3272 1645 3428 
Q 1925 3584 2291 3584 
Q 2894 3584 3203 3211 
Q 3513 2838 3513 2113 
z
" transform="scale(0.015625)"/>
       <path id="DejaVuSans-64" d="M 2906 2969 
L 2906 4863 
L 3481 4863 
L 3481 0 
L 2906 0 
L 2906 525 
Q 2725 213 2448 61 
Q 2172 -91 1784 -91 
Q 1150 -91 751 415 
Q 353 922 353 1747 
Q 353 2572 751 3078 
Q 1150 3584 1784 3584 
Q 2172 3584 2448 3432 
Q 2725 3281 2906 2969 
z
M 947 1747 
Q 947 1113 1208 752 
Q 1469 391 1925 391 
Q 2381 391 2643 752 
Q 2906 1113 2906 1747 
Q 2906 2381 2643 2742 
Q 2381 3103 1925 3103 
Q 1469 3103 1208 2742 
Q 947 2381 947 1747 
z
" transform="scale(0.015625)"/>
       <path id="DejaVuSans-29" d="M 513 4856 
L 1013 4856 
Q 1481 4119 1714 3412 
Q 1947 2706 1947 2009 
Q 1947 1309 1714 600 
Q 1481 -109 1013 -844 
L 513 -844 
Q 928 -128 1133 580 
Q 1338 1288 1338 2009 
Q 1338 2731 1133 3434 
Q 928 4138 513 4856 
z
" transform="scale(0.015625)"/>
      </defs>
      <use xlink:href="#DejaVuSans-54"/>
      <use xlink:href="#DejaVuSans-69" transform="translate(57.958984 0)"/>
      <use xlink:href="#DejaVuSans-6d" transform="translate(85.742188 0)"/>
      <use xlink:href="#DejaVuSans-65" transform="translate(183.154297 0)"/>
      <use xlink:href="#DejaVuSans-20" transform="translate(244.677734 0)"/>
      <use xlink:href="#DejaVuSans-28" transform="translate(276.464844 0)"/>
      <use xlink:href="#DejaVuSans-73" transform="translate(315.478516 0)"/>
      <use xlink:href="#DejaVuSans-65" transform="translate(367.578125 0)"/>
      <use xlink:href="#DejaVuSans-63" transform="translate(429.101562 0)"/>
      <use xlink:href="#DejaVuSans-6f" transform="translate(484.082031 0)"/>
      <use xlink:href="#DejaVuSans-6e" transform="translate(545.263672 0)"/>
      <use xlink:href="#DejaVuSans-64" transform="translate(608.642578 0)"/>
      <use xlink:href="#DejaVuSans-73" transform="translate(672.119141 0)"/>
      <use xlink:href="#DejaVuSans-29" transform="translate(724.21875 0)"/>
     </g>
    </g>
   </g>
   <g id="matplotlib.axis_2">
    <g id="ytick_1">
     <g id="line2d_9">
      <path d="M 57.508053 173.558739 
L 221.114604 173.558739 
" clip-path="url(#p323a8d1e96)" style="fill: none; stroke: #b0b0b0; stroke-width: 0.8; stroke-linecap: square"/>
     </g>
     <g id="line2d_10">
      <defs>
       <path id="m6ceee0edff" d="M 0 0 
L -3.5 0 
" style="stroke: #000000; stroke-width: 0.8"/>
      </defs>
      <g>
       <use xlink:href="#m6ceee0edff" x="57.508053" y="173.558739" style="stroke: #000000; stroke-width: 0.8"/>
      </g>
     </g>
     <g id="text_6">
      <!-- −1500 -->
      <g transform="translate(16.678365 177.357958) scale(0.1 -0.1)">
       <defs>
        <path id="DejaVuSans-2212" d="M 678 2272 
L 4684 2272 
L 4684 1741 
L 678 1741 
L 678 2272 
z
" transform="scale(0.015625)"/>
        <path id="DejaVuSans-35" d="M 691 4666 
L 3169 4666 
L 3169 4134 
L 1269 4134 
L 1269 2991 
Q 1406 3038 1543 3061 
Q 1681 3084 1819 3084 
Q 2600 3084 3056 2656 
Q 3513 2228 3513 1497 
Q 3513 744 3044 326 
Q 2575 -91 1722 -91 
Q 1428 -91 1123 -41 
Q 819 9 494 109 
L 494 744 
Q 775 591 1075 516 
Q 1375 441 1709 441 
Q 2250 441 2565 725 
Q 2881 1009 2881 1497 
Q 2881 1984 2565 2268 
Q 2250 2553 1709 2553 
Q 1456 2553 1204 2497 
Q 953 2441 691 2322 
L 691 4666 
z
" transform="scale(0.015625)"/>
       </defs>
       <use xlink:href="#DejaVuSans-2212"/>
       <use xlink:href="#DejaVuSans-31" transform="translate(83.789062 0)"/>
       <use xlink:href="#DejaVuSans-35" transform="translate(147.412109 0)"/>
       <use xlink:href="#DejaVuSans-30" transform="translate(211.035156 0)"/>
       <use xlink:href="#DejaVuSans-30" transform="translate(274.658203 0)"/>
      </g>
     </g>
    </g>
    <g id="ytick_2">
     <g id="line2d_11">
      <path d="M 57.508053 144.495352 
L 221.114604 144.495352 
" clip-path="url(#p323a8d1e96)" style="fill: none; stroke: #b0b0b0; stroke-width: 0.8; stroke-linecap: square"/>
     </g>
     <g id="line2d_12">
      <g>
       <use xlink:href="#m6ceee0edff" x="57.508053" y="144.495352" style="stroke: #000000; stroke-width: 0.8"/>
      </g>
     </g>
     <g id="text_7">
      <!-- −1000 -->
      <g transform="translate(16.678365 148.294571) scale(0.1 -0.1)">
       <use xlink:href="#DejaVuSans-2212"/>
       <use xlink:href="#DejaVuSans-31" transform="translate(83.789062 0)"/>
       <use xlink:href="#DejaVuSans-30" transform="translate(147.412109 0)"/>
       <use xlink:href="#DejaVuSans-30" transform="translate(211.035156 0)"/>
       <use xlink:href="#DejaVuSans-30" transform="translate(274.658203 0)"/>
      </g>
     </g>
    </g>
    <g id="ytick_3">
     <g id="line2d_13">
      <path d="M 57.508053 115.431965 
L 221.114604 115.431965 
" clip-path="url(#p323a8d1e96)" style="fill: none; stroke: #b0b0b0; stroke-width: 0.8; stroke-linecap: square"/>
     </g>
     <g id="line2d_14">
      <g>
       <use xlink:href="#m6ceee0edff" x="57.508053" y="115.431965" style="stroke: #000000; stroke-width: 0.8"/>
      </g>
     </g>
     <g id="text_8">
      <!-- −500 -->
      <g transform="translate(23.040865 119.231184) scale(0.1 -0.1)">
       <use xlink:href="#DejaVuSans-2212"/>
       <use xlink:href="#DejaVuSans-35" transform="translate(83.789062 0)"/>
       <use xlink:href="#DejaVuSans-30" transform="translate(147.412109 0)"/>
       <use xlink:href="#DejaVuSans-30" transform="translate(211.035156 0)"/>
      </g>
     </g>
    </g>
    <g id="ytick_4">
     <g id="line2d_15">
      <path d="M 57.508053 86.368578 
L 221.114604 86.368578 
" clip-path="url(#p323a8d1e96)" style="fill: none; stroke: #b0b0b0; stroke-width: 0.8; stroke-linecap: square"/>
     </g>
     <g id="line2d_16">
      <g>
       <use xlink:href="#m6ceee0edff" x="57.508053" y="86.368578" style="stroke: #000000; stroke-width: 0.8"/>
      </g>
     </g>
     <g id="text_9">
      <!-- 0 -->
      <g transform="translate(44.145553 90.167797) scale(0.1 -0.1)">
       <use xlink:href="#DejaVuSans-30"/>
      </g>
     </g>
    </g>
    <g id="ytick_5">
     <g id="line2d_17">
      <path d="M 57.508053 57.305191 
L 221.114604 57.305191 
" clip-path="url(#p323a8d1e96)" style="fill: none; stroke: #b0b0b0; stroke-width: 0.8; stroke-linecap: square"/>
     </g>
     <g id="line2d_18">
      <g>
       <use xlink:href="#m6ceee0edff" x="57.508053" y="57.305191" style="stroke: #000000; stroke-width: 0.8"/>
      </g>
     </g>
     <g id="text_10">
      <!-- 500 -->
      <g transform="translate(31.420553 61.10441) scale(0.1 -0.1)">
       <use xlink:href="#DejaVuSans-35"/>
       <use xlink:href="#DejaVuSans-30" transform="translate(63.623047 0)"/>
       <use xlink:href="#DejaVuSans-30" transform="translate(127.246094 0)"/>
      </g>
     </g>
    </g>
    <g id="ytick_6">
     <g id="line2d_19">
      <path d="M 57.508053 28.241804 
L 221.114604 28.241804 
" clip-path="url(#p323a8d1e96)" style="fill: none; stroke: #b0b0b0; stroke-width: 0.8; stroke-linecap: square"/>
     </g>
     <g id="line2d_20">
      <g>
       <use xlink:href="#m6ceee0edff" x="57.508053" y="28.241804" style="stroke: #000000; stroke-width: 0.8"/>
      </g>
     </g>
     <g id="text_11">
      <!-- 1000 -->
      <g transform="translate(25.058053 32.041023) scale(0.1 -0.1)">
       <use xlink:href="#DejaVuSans-31"/>
       <use xlink:href="#DejaVuSans-30" transform="translate(63.623047 0)"/>
       <use xlink:href="#DejaVuSans-30" transform="translate(127.246094 0)"/>
       <use xlink:href="#DejaVuSans-30" transform="translate(190.869141 0)"/>
      </g>
     </g>
    </g>
    <g id="text_12">
     <!-- Amplitude -->
     <g transform="translate(10.598678 118.444531) rotate(-90) scale(0.1 -0.1)">
      <defs>
       <path id="DejaVuSans-41" d="M 2188 4044 
L 1331 1722 
L 3047 1722 
L 2188 4044 
z
M 1831 4666 
L 2547 4666 
L 4325 0 
L 3669 0 
L 3244 1197 
L 1141 1197 
L 716 0 
L 50 0 
L 1831 4666 
z
" transform="scale(0.015625)"/>
       <path id="DejaVuSans-70" d="M 1159 525 
L 1159 -1331 
L 581 -1331 
L 581 3500 
L 1159 3500 
L 1159 2969 
Q 1341 3281 1617 3432 
Q 1894 3584 2278 3584 
Q 2916 3584 3314 3078 
Q 3713 2572 3713 1747 
Q 3713 922 3314 415 
Q 2916 -91 2278 -91 
Q 1894 -91 1617 61 
Q 1341 213 1159 525 
z
M 3116 1747 
Q 3116 2381 2855 2742 
Q 2594 3103 2138 3103 
Q 1681 3103 1420 2742 
Q 1159 2381 1159 1747 
Q 1159 1113 1420 752 
Q 1681 391 2138 391 
Q 2594 391 2855 752 
Q 3116 1113 3116 1747 
z
" transform="scale(0.015625)"/>
       <path id="DejaVuSans-6c" d="M 603 4863 
L 1178 4863 
L 1178 0 
L 603 0 
L 603 4863 
z
" transform="scale(0.015625)"/>
       <path id="DejaVuSans-74" d="M 1172 4494 
L 1172 3500 
L 2356 3500 
L 2356 3053 
L 1172 3053 
L 1172 1153 
Q 1172 725 1289 603 
Q 1406 481 1766 481 
L 2356 481 
L 2356 0 
L 1766 0 
Q 1100 0 847 248 
Q 594 497 594 1153 
L 594 3053 
L 172 3053 
L 172 3500 
L 594 3500 
L 594 4494 
L 1172 4494 
z
" transform="scale(0.015625)"/>
       <path id="DejaVuSans-75" d="M 544 1381 
L 544 3500 
L 1119 3500 
L 1119 1403 
Q 1119 906 1312 657 
Q 1506 409 1894 409 
Q 2359 409 2629 706 
Q 2900 1003 2900 1516 
L 2900 3500 
L 3475 3500 
L 3475 0 
L 2900 0 
L 2900 538 
Q 2691 219 2414 64 
Q 2138 -91 1772 -91 
Q 1169 -91 856 284 
Q 544 659 544 1381 
z
M 1991 3584 
L 1991 3584 
z
" transform="scale(0.015625)"/>
      </defs>
      <use xlink:href="#DejaVuSans-41"/>
      <use xlink:href="#DejaVuSans-6d" transform="translate(68.408203 0)"/>
      <use xlink:href="#DejaVuSans-70" transform="translate(165.820312 0)"/>
      <use xlink:href="#DejaVuSans-6c" transform="translate(229.296875 0)"/>
      <use xlink:href="#DejaVuSans-69" transform="translate(257.080078 0)"/>
      <use xlink:href="#DejaVuSans-74" transform="translate(284.863281 0)"/>
      <use xlink:href="#DejaVuSans-75" transform="translate(324.072266 0)"/>
      <use xlink:href="#DejaVuSans-64" transform="translate(387.451172 0)"/>
      <use xlink:href="#DejaVuSans-65" transform="translate(450.927734 0)"/>
     </g>
    </g>
   </g>
   <g id="line2d_21">
    <path d="M 64.944714 86.368578 
L 65.291874 86.264776 
L 66.085382 86.006163 
L 66.134977 86.043415 
L 66.184571 86.349765 
L 66.283759 86.306408 
L 66.333354 86.204511 
L 66.482136 86.523003 
L 66.531731 86.565816 
L 66.581325 86.824121 
L 66.630919 86.691479 
L 66.730108 86.815692 
L 66.928485 87.978166 
L 66.978079 87.823278 
L 67.027673 87.305876 
L 67.077268 87.610615 
L 67.126862 87.730761 
L 67.176456 87.488289 
L 67.325239 88.983282 
L 67.374833 88.964197 
L 67.622805 91.575766 
L 67.672399 91.552174 
L 67.771588 93.24313 
L 67.821182 93.212847 
L 67.870776 93.221236 
L 68.019559 94.729051 
L 68.069153 94.081188 
L 68.118747 94.354765 
L 68.416313 96.066444 
L 68.465907 95.412026 
L 68.61469 97.429118 
L 68.813067 99.481794 
L 68.862662 98.403 
L 68.912256 98.431481 
L 69.110633 100.485119 
L 69.160227 100.621151 
L 69.259416 101.754854 
L 69.30901 101.089366 
L 69.457793 100.271353 
L 69.556981 100.846064 
L 69.606576 100.008236 
L 69.65617 100.94991 
L 69.755359 101.897561 
L 69.804953 101.385858 
L 69.953736 102.589102 
L 70.00333 102.465463 
L 70.152113 104.129697 
L 70.201707 103.965703 
L 70.251301 104.803139 
L 70.300896 104.391191 
L 70.35049 104.298511 
L 70.499273 103.585895 
L 70.69765 105.740973 
L 70.747244 105.953332 
L 70.796838 104.375354 
L 70.896027 104.497407 
L 71.094404 105.95072 
L 71.193592 104.817648 
L 71.243187 104.852162 
L 71.292781 106.069148 
L 71.342375 105.896206 
L 71.39197 104.537269 
L 71.441564 105.320766 
L 71.540752 106.579381 
L 71.590347 106.445018 
L 71.639941 106.477464 
L 71.689535 104.983285 
L 71.739129 105.906926 
L 71.788724 106.458585 
L 71.838318 104.554476 
L 71.887912 104.836844 
L 71.937507 106.222526 
L 71.987101 105.066418 
L 72.036695 105.854273 
L 72.086289 105.52975 
L 72.135884 104.582078 
L 72.185478 105.526909 
L 72.235072 105.268961 
L 72.284667 105.745281 
L 72.334261 105.090794 
L 72.433449 105.135506 
L 72.483044 106.111118 
L 72.532638 105.107307 
L 72.582232 105.707106 
L 72.681421 105.618187 
L 72.731015 105.305505 
L 72.780609 105.927732 
L 72.830204 104.975447 
L 72.879798 105.479973 
L 72.978986 105.890358 
L 73.028581 105.611302 
L 73.078175 106.379301 
L 73.127769 105.357744 
L 73.226958 105.57335 
L 73.375741 106.182781 
L 73.474929 106.236614 
L 73.524523 104.899463 
L 73.574118 105.293707 
L 73.623712 104.950144 
L 73.673306 104.610953 
L 73.7229 105.796369 
L 73.772495 104.261252 
L 73.822089 104.289614 
L 73.871683 106.249112 
L 73.921278 105.577748 
L 74.07006 104.569027 
L 74.119655 104.964211 
L 74.268437 103.69601 
L 74.318032 104.404362 
L 74.466815 102.540253 
L 74.516409 103.801553 
L 74.566003 103.691122 
L 74.615597 103.359182 
L 74.665192 101.893292 
L 74.714786 102.533709 
L 74.813974 102.876486 
L 74.863569 102.428631 
L 74.913163 103.61437 
L 74.962757 103.040649 
L 75.012352 103.098323 
L 75.061946 102.745016 
L 75.11154 102.799172 
L 75.161134 103.066232 
L 75.210729 102.70491 
L 75.260323 101.390877 
L 75.309917 103.777415 
L 75.409106 103.417518 
L 75.557889 101.968143 
L 75.706671 102.51813 
L 75.756266 102.21583 
L 75.80586 102.659374 
L 75.855454 102.223047 
L 75.954643 101.142902 
L 76.004237 101.509059 
L 76.103426 102.138146 
L 76.15302 101.696321 
L 76.252208 102.623157 
L 76.301803 102.481911 
L 76.450586 101.242247 
L 76.549774 100.639918 
L 76.599368 101.233097 
L 76.648963 100.969222 
L 76.698557 99.853693 
L 76.748151 100.407471 
L 76.797745 100.489151 
L 76.996123 98.818998 
L 77.045717 99.317972 
L 77.095311 98.52276 
L 77.144905 99.18355 
L 77.1945 98.731008 
L 77.244094 99.593852 
L 77.293688 98.553237 
L 77.492065 100.233243 
L 77.54166 100.128616 
L 77.591254 100.477767 
L 77.640848 100.255561 
L 77.690442 99.940495 
L 77.740037 101.418661 
L 77.789631 100.16639 
L 77.839225 100.171462 
L 77.938414 101.948936 
L 78.037602 101.785162 
L 78.087197 101.836377 
L 78.285574 100.268962 
L 78.335168 100.985329 
L 78.384762 100.787031 
L 78.632734 97.76342 
L 78.682328 97.900783 
L 78.731922 97.668292 
L 78.781516 98.208208 
L 78.831111 98.083689 
L 78.880705 97.871379 
L 79.029488 95.21797 
L 79.079082 95.87718 
L 79.128676 95.246536 
L 79.178271 95.48723 
L 79.227865 95.197552 
L 79.426242 93.985112 
L 79.575025 95.917699 
L 79.624619 95.646601 
L 79.674213 95.475192 
L 79.723808 94.731253 
L 79.773402 95.36538 
L 79.822996 95.10141 
L 79.87259 95.912752 
L 79.922185 94.654515 
L 79.971779 95.522525 
L 80.021373 95.494819 
L 80.120562 93.877049 
L 80.170156 94.293044 
L 80.269345 93.406397 
L 80.318939 93.687577 
L 80.418127 94.966167 
L 80.56691 92.88271 
L 80.616505 93.34438 
L 80.666099 93.940368 
L 80.814882 91.829797 
L 80.864476 91.857899 
L 80.91407 89.723076 
L 80.963664 90.147765 
L 81.013259 90.410461 
L 81.162042 88.81953 
L 81.211636 88.870841 
L 81.26123 90.19969 
L 81.360419 87.924563 
L 81.410013 88.280555 
L 81.60839 87.565598 
L 81.806767 86.603129 
L 81.856361 85.813717 
L 81.95555 85.836539 
L 82.153927 84.643407 
L 82.203521 84.547668 
L 82.253116 83.959532 
L 82.30271 85.028141 
L 82.401898 84.853183 
L 82.451493 84.842162 
L 82.501087 84.597186 
L 82.64987 83.026743 
L 82.699464 83.37786 
L 82.749058 82.574996 
L 82.798653 83.187709 
L 83.096218 81.232252 
L 83.145813 80.0381 
L 83.195407 80.326796 
L 83.245001 80.365053 
L 83.34419 79.62992 
L 83.393784 80.210872 
L 83.443378 79.514564 
L 83.592161 78.186373 
L 83.641755 78.308489 
L 83.69135 78.866319 
L 83.740944 78.373557 
L 83.889727 77.237984 
L 83.939321 78.367298 
L 83.988915 77.928389 
L 84.088104 75.901244 
L 84.137698 76.389207 
L 84.286481 77.21681 
L 84.336075 76.674677 
L 84.385669 76.807508 
L 84.435264 77.121078 
L 84.633641 74.827752 
L 84.683235 75.385906 
L 84.732829 75.224232 
L 84.881612 72.63188 
L 84.931206 73.640673 
L 84.980801 73.871094 
L 85.079989 72.098763 
L 85.129584 72.72348 
L 85.179178 73.076515 
L 85.228772 72.642529 
L 85.278366 71.765058 
L 85.327961 73.037692 
L 85.377555 71.523033 
L 85.476743 70.787071 
L 85.526338 71.747638 
L 85.575932 71.36081 
L 85.625526 71.238535 
L 85.774309 70.579938 
L 85.823903 70.615646 
L 85.923092 71.448828 
L 85.972686 70.071594 
L 86.071875 70.163581 
L 86.121469 70.092616 
L 86.171063 70.975915 
L 86.220658 70.455933 
L 86.36944 69.817047 
L 86.468629 68.788064 
L 86.567817 69.458616 
L 86.617412 69.249623 
L 86.667006 69.729385 
L 86.7166 69.316394 
L 86.914977 66.014991 
L 86.964572 67.166279 
L 87.014166 65.949708 
L 87.113355 67.030698 
L 87.162949 67.857533 
L 87.212543 67.176784 
L 87.311732 66.243412 
L 87.361326 66.862522 
L 87.41092 65.620327 
L 87.460514 66.139416 
L 87.559703 65.86973 
L 87.609297 66.038743 
L 87.658892 66.866898 
L 87.708486 64.747817 
L 87.75808 65.230592 
L 87.807674 66.241237 
L 87.857269 64.99888 
L 87.906863 64.937766 
L 88.006051 64.886815 
L 88.055646 65.556429 
L 88.10524 64.30128 
L 88.154834 65.253574 
L 88.204429 64.894595 
L 88.254023 65.210783 
L 88.402806 74.80577 
L 88.4524 72.481115 
L 88.601183 40.477518 
L 88.700371 83.413879 
L 88.749966 81.632612 
L 88.849154 49.196318 
L 88.898748 49.710754 
L 88.948343 51.204471 
L 89.097125 80.247191 
L 89.245908 58.851105 
L 89.295503 67.137332 
L 89.394691 46.987596 
L 89.49388 93.198595 
L 89.543474 89.057601 
L 89.593068 92.732609 
L 89.692257 53.697818 
L 89.791445 19.390331 
L 89.84104 31.067411 
L 89.940228 114.188943 
L 89.989822 103.162219 
L 90.089011 36.195436 
L 90.138605 56.88539 
L 90.1882 67.169461 
L 90.237794 54.076084 
L 90.287388 68.912619 
L 90.386577 107.601969 
L 90.485765 50.685314 
L 90.535359 54.12174 
L 90.584954 53.83532 
L 90.634548 50.856718 
L 90.733737 67.728736 
L 90.832925 93.640866 
L 90.882519 90.221938 
L 91.031302 48.539902 
L 91.130491 111.813102 
L 91.180085 95.352168 
L 91.279274 49.222898 
L 91.328868 52.090857 
L 91.477651 57.426099 
L 91.576839 102.726579 
L 91.626433 101.464085 
L 91.676028 85.225985 
L 91.725622 86.140223 
L 91.775216 92.864394 
L 91.824811 84.540171 
L 91.923999 61.746035 
L 92.023188 83.188666 
L 92.072782 75.10993 
L 92.17197 56.258191 
L 92.221565 61.733612 
L 92.51913 73.08509 
L 92.618319 60.726722 
L 92.667913 53.752483 
L 92.717507 61.601577 
L 92.816696 73.775532 
L 92.86629 68.601256 
L 92.965479 52.875737 
L 93.015073 59.118573 
L 93.064667 65.852784 
L 93.114262 62.309787 
L 93.163856 57.964968 
L 93.263045 86.327456 
L 93.411827 106.57432 
L 93.610204 11.165843 
L 93.659799 39.956042 
L 93.808582 128.021278 
L 93.858176 122.23255 
L 94.155741 17.206344 
L 94.304524 68.270596 
L 94.354119 57.745139 
L 94.502901 41.446791 
L 94.701278 130.23517 
L 94.750873 116.728357 
L 94.899656 49.816687 
L 95.048438 99.684644 
L 95.246815 45.778555 
L 95.29641 50.806064 
L 95.395598 78.66225 
L 95.445193 70.47986 
L 95.494787 73.749538 
L 95.593975 103.197088 
L 95.693164 44.829837 
L 95.742758 61.776371 
L 95.841947 131.43648 
L 95.891541 120.989938 
L 96.040324 76.023401 
L 96.139512 31.456447 
L 96.238701 71.266361 
L 96.288295 64.401305 
L 96.33789 58.346109 
L 96.437078 94.943838 
L 96.486672 93.721951 
L 96.585861 73.026439 
L 96.635455 75.114389 
L 96.833832 140.145426 
L 96.883427 139.444829 
L 96.982615 100.581409 
L 97.081804 60.847572 
L 97.131398 62.397967 
L 97.428964 131.871883 
L 97.478558 127.906436 
L 97.726529 39.215619 
L 97.825718 86.081323 
L 97.974501 161.256791 
L 98.32166 71.494643 
L 98.371255 75.769454 
L 98.569632 167.136995 
L 98.66882 138.161757 
L 98.916792 85.461664 
L 99.065575 11.559929 
L 99.214357 67.457287 
L 99.36314 108.556906 
L 99.412735 106.056551 
L 99.561517 75.457721 
L 99.611112 84.389337 
L 99.859083 124.046774 
L 99.908677 132.881679 
L 99.958272 131.996388 
L 100.107054 64.49688 
L 100.206243 22.583604 
L 100.255837 30.013205 
L 100.602997 151.642446 
L 100.801374 92.965691 
L 100.900563 101.21538 
L 101.148534 128.995078 
L 101.198128 128.507818 
L 101.396505 83.736319 
L 101.4461 85.985997 
L 101.495694 87.446447 
L 101.594883 98.765999 
L 101.644477 97.724361 
L 101.743665 88.536034 
L 101.79326 93.078332 
L 101.991637 117.375241 
L 102.041231 117.953381 
L 102.190014 110.219922 
L 102.239608 111.482755 
L 102.388391 146.871236 
L 102.437985 154.663553 
L 102.48758 151.2744 
L 102.735551 102.768407 
L 102.785145 103.136063 
L 102.884334 101.251338 
L 103.330682 63.077694 
L 103.380276 65.698342 
L 103.479465 79.17971 
L 103.529059 77.880414 
L 103.677842 49.195881 
L 103.777031 54.143129 
L 103.876219 70.918852 
L 104.074596 100.60948 
L 104.124191 100.16517 
L 104.223379 118.608296 
L 104.421756 149.952378 
L 104.669728 174.477907 
L 104.719322 170.534565 
L 104.967293 104.607187 
L 105.16567 70.37771 
L 105.215265 66.842349 
L 105.264859 67.375219 
L 105.413642 83.9696 
L 105.463236 82.770666 
L 105.711207 50.005283 
L 105.760802 50.102245 
L 106.058367 88.597738 
L 106.157556 82.138043 
L 106.355933 76.703748 
L 106.504716 88.61791 
L 106.703093 95.626372 
L 106.802281 89.454167 
L 106.951064 80.894547 
L 107.000658 81.1191 
L 107.050253 80.947839 
L 107.099847 81.175266 
L 107.24863 87.998582 
L 107.298224 86.689409 
L 107.59579 70.518146 
L 107.744573 86.49064 
L 107.94295 104.307472 
L 108.042138 107.579735 
L 108.29011 123.552536 
L 108.339704 125.672034 
L 108.389298 125.078679 
L 108.538081 111.971692 
L 109.083618 52.086744 
L 109.281995 38.92406 
L 109.331589 39.692128 
L 109.480372 57.109184 
L 109.728344 84.65054 
L 109.777938 84.926575 
L 109.926721 90.865489 
L 110.174692 104.955816 
L 110.273881 106.971956 
L 110.373069 99.590632 
L 110.62104 67.976839 
L 110.670635 68.848328 
L 110.819418 74.847207 
L 110.869012 73.324381 
L 111.116983 54.307119 
L 111.166578 57.173967 
L 111.364955 73.922583 
L 111.563332 89.497851 
L 111.66252 90.12179 
L 111.811303 81.421217 
L 111.910492 76.495037 
L 111.960086 77.510898 
L 112.00968 77.5669 
L 112.307246 83.178028 
L 112.456029 76.881204 
L 112.704 68.63567 
L 112.951971 73.920313 
L 113.199943 82.489597 
L 113.249537 82.723765 
L 113.348726 81.035026 
L 113.39832 81.798 
L 113.497508 83.713339 
L 113.695885 91.751124 
L 113.795074 90.77325 
L 114.043045 81.97645 
L 114.191828 79.224902 
L 114.340611 76.130738 
L 114.390205 75.902393 
L 114.4398 76.174514 
L 114.638177 78.999776 
L 114.687771 78.992085 
L 114.886148 86.678176 
L 115.034931 94.860145 
L 115.084525 94.550295 
L 115.233308 88.143477 
L 115.530874 72.694753 
L 115.679656 67.187564 
L 115.729251 68.625942 
L 115.828439 68.342359 
L 116.076411 65.485452 
L 116.126005 66.193117 
L 116.175599 65.387395 
L 116.225193 65.980474 
L 116.423571 61.336994 
L 116.869919 89.922966 
L 116.969108 87.498398 
L 117.217079 92.883892 
L 117.266673 94.993445 
L 117.365862 94.887272 
L 117.415456 94.815895 
L 117.663427 82.700716 
L 117.762616 79.911318 
L 117.81221 80.161013 
L 118.060182 82.802119 
L 118.258559 78.710169 
L 118.605719 66.779905 
L 118.655313 67.864578 
L 119.20085 92.201749 
L 119.250444 91.183474 
L 119.399227 88.470897 
L 119.448821 87.70874 
L 119.746387 96.723242 
L 119.795981 96.43175 
L 120.440707 73.991066 
L 120.539895 66.702172 
L 120.639084 67.053316 
L 120.688678 68.164615 
L 121.135027 96.116646 
L 121.382998 101.663212 
L 121.482187 100.784818 
L 121.730158 108.152867 
L 121.779752 108.001519 
L 122.176506 97.021425 
L 122.374883 91.230299 
L 122.424478 90.790246 
L 123.019609 101.709391 
L 123.069203 101.438862 
L 123.61474 109.321894 
L 124.358654 97.792499 
L 124.457843 99.102955 
L 124.507437 98.893839 
L 124.557032 99.621766 
L 124.606626 99.336451 
L 124.805003 96.599471 
L 124.904191 93.464325 
L 125.00338 94.171702 
L 125.300946 100.599079 
L 125.598511 94.881298 
L 125.6977 94.817006 
L 125.896077 101.15372 
L 125.945671 103.295129 
L 125.995265 102.338455 
L 126.094454 101.674955 
L 126.243237 103.940879 
L 126.292831 103.910746 
L 126.441614 105.812869 
L 126.491208 105.757545 
L 126.540803 105.433613 
L 126.590397 105.754852 
L 126.639991 106.203552 
L 127.036745 97.546313 
L 127.483094 90.177942 
L 127.532688 89.733126 
L 127.582282 90.68738 
L 127.631877 89.808907 
L 127.681471 90.10383 
L 127.979036 86.866781 
L 128.028631 86.906443 
L 128.078225 86.724313 
L 128.425385 83.270318 
L 128.474979 84.463932 
L 128.524573 83.997086 
L 128.574168 83.926157 
L 128.921328 89.347447 
L 128.970922 88.561913 
L 129.020516 88.920943 
L 129.169299 90.886158 
L 129.218893 90.820779 
L 129.268488 90.706361 
L 129.318082 90.08069 
L 129.367676 90.682366 
L 129.714836 88.470054 
L 129.913213 83.521066 
L 130.309967 71.737257 
L 130.706722 76.330038 
L 130.756316 76.006047 
L 130.905099 78.37943 
L 130.954693 77.046901 
L 131.053881 79.788701 
L 131.103476 79.4367 
L 131.202664 81.192932 
L 131.252259 80.307921 
L 131.450636 81.565012 
L 131.50023 81.480152 
L 131.549824 80.740207 
L 131.599418 81.185282 
L 131.996173 83.072517 
L 132.293738 80.544469 
L 132.343333 81.01396 
L 132.392927 79.727185 
L 132.442521 80.322625 
L 132.492115 80.353686 
L 132.54171 79.703388 
L 132.591304 80.286446 
L 132.640898 80.932454 
L 132.789681 79.002037 
L 132.88887 79.506934 
L 133.037652 78.271768 
L 133.087247 78.58073 
L 133.136841 79.408361 
L 133.186435 78.477159 
L 133.533595 82.436009 
L 133.583189 82.207443 
L 133.682378 81.473835 
L 133.731972 81.987801 
L 133.781567 80.871547 
L 133.831161 81.715082 
L 133.880755 81.340356 
L 133.930349 81.431629 
L 134.079132 82.621257 
L 134.327104 79.327628 
L 134.376698 80.41936 
L 134.426292 80.306142 
L 134.475886 80.445646 
L 134.674263 82.294704 
L 134.723858 81.865872 
L 134.773452 81.928846 
L 134.823046 82.117644 
L 134.922235 83.870774 
L 134.971829 83.747039 
L 135.021423 83.952531 
L 135.120612 82.596892 
L 135.170206 83.049019 
L 135.219801 82.89759 
L 135.269395 83.086422 
L 135.517366 76.746802 
L 135.56696 76.730341 
L 135.616555 76.146879 
L 135.715743 76.251121 
L 135.864526 77.70883 
L 135.91412 77.010177 
L 136.013309 79.08193 
L 136.062903 78.742196 
L 136.112497 78.160204 
L 136.162092 78.845251 
L 136.211686 78.739337 
L 136.360469 80.19599 
L 136.410063 79.563318 
L 136.459657 80.346204 
L 137.054789 86.580435 
L 137.104383 86.281738 
L 137.153977 85.953976 
L 137.203571 86.983224 
L 137.253166 86.898962 
L 137.401949 85.790019 
L 137.501137 84.453902 
L 137.550731 82.146121 
L 137.64992 82.439838 
L 137.848297 78.463477 
L 137.99708 75.795042 
L 138.096268 75.838461 
L 138.145863 75.295657 
L 138.393834 79.94342 
L 138.443428 79.088266 
L 138.493023 80.086339 
L 138.542617 79.712446 
L 138.592211 80.443753 
L 138.6914 77.898088 
L 138.740994 77.963048 
L 138.790588 78.870529 
L 138.840183 78.725807 
L 138.889777 77.797566 
L 138.939371 78.171708 
L 139.236937 81.565266 
L 139.336125 81.225294 
L 139.584097 78.437317 
L 139.633691 79.401383 
L 139.683285 78.550371 
L 139.732879 78.902037 
L 139.782474 78.495274 
L 139.832068 78.524626 
L 139.881662 78.320861 
L 139.980851 78.242587 
L 140.030445 79.197335 
L 140.129634 78.977311 
L 140.179228 78.574599 
L 140.328011 81.129353 
L 140.377605 80.16286 
L 140.427199 81.290258 
L 140.526388 82.330457 
L 140.625576 81.864526 
L 140.774359 79.64253 
L 140.923142 79.937076 
L 140.972736 79.387699 
L 141.121519 80.951106 
L 141.419085 83.573027 
L 141.468679 82.695736 
L 141.518273 83.680012 
L 141.567868 83.033547 
L 141.71665 84.512317 
L 141.766245 84.510658 
L 141.964622 83.098377 
L 142.014216 83.065696 
L 142.212593 84.592674 
L 142.262187 84.225617 
L 142.361376 85.637385 
L 142.41097 84.415926 
L 142.510159 84.493065 
L 142.658942 83.790311 
L 143.154884 90.5226 
L 143.204479 89.622687 
L 143.254073 90.903284 
L 143.303667 90.694036 
L 143.353261 90.585943 
L 143.402856 90.964698 
L 143.45245 90.489834 
L 143.601233 89.410921 
L 143.650827 90.110615 
L 143.700421 89.403984 
L 143.849204 86.890874 
L 143.948393 88.848601 
L 143.997987 88.535879 
L 144.047581 87.967321 
L 144.14677 90.054153 
L 144.196364 89.653432 
L 144.245958 90.23287 
L 144.444336 94.151921 
L 144.543524 94.711899 
L 144.642713 95.795656 
L 144.692307 95.7184 
L 144.741901 95.956178 
L 144.791495 97.770784 
L 144.890684 97.560355 
L 144.940278 97.531329 
L 144.989873 99.304433 
L 145.039467 98.755766 
L 145.089061 98.415229 
L 145.18825 99.233812 
L 145.337032 96.969375 
L 145.386627 98.027618 
L 145.436221 98.057751 
L 145.53541 96.097095 
L 145.585004 96.440656 
L 145.783381 98.633686 
L 145.832975 98.407611 
L 145.882569 98.54831 
L 145.932164 98.060034 
L 145.981758 98.686046 
L 146.031352 97.742093 
L 146.080947 97.806716 
L 146.130541 98.217567 
L 146.180135 97.226218 
L 146.229729 97.908993 
L 146.279324 98.68033 
L 146.328918 98.234135 
L 146.378512 98.211159 
L 146.428106 98.872241 
L 146.477701 98.79916 
L 146.527295 98.573468 
L 146.626484 99.869939 
L 146.676078 100.699401 
L 146.725672 99.911109 
L 146.775266 100.083909 
L 146.824861 101.797216 
L 146.874455 99.909317 
L 146.973643 100.988374 
L 147.072832 100.025507 
L 147.122426 100.973294 
L 147.172021 100.626258 
L 147.221615 100.452618 
L 147.320803 100.756524 
L 147.370398 100.651325 
L 147.419992 101.402593 
L 147.519181 100.147957 
L 147.568775 100.302871 
L 147.717558 102.041981 
L 147.767152 101.087167 
L 147.816746 101.193761 
L 148.114312 97.384642 
L 148.2135 97.861736 
L 148.263095 96.612437 
L 148.312689 97.169442 
L 148.362283 97.118161 
L 148.461472 95.22212 
L 148.511066 95.363704 
L 148.56066 95.737751 
L 148.808632 93.192816 
L 148.90782 94.49644 
L 148.957414 93.662555 
L 149.007009 93.610753 
L 149.056603 94.005398 
L 149.106197 92.747255 
L 149.155792 94.503442 
L 149.25498 94.191777 
L 149.304574 94.377036 
L 149.502951 91.291844 
L 149.60214 91.782269 
L 149.651734 91.924839 
L 149.701329 90.335231 
L 149.750923 91.50408 
L 150.197271 85.94242 
L 150.246866 86.016421 
L 150.494837 83.897118 
L 150.64362 85.637099 
L 150.693214 83.437051 
L 150.742808 84.289872 
L 150.792403 84.543253 
L 150.941185 83.953954 
L 150.99078 83.771931 
L 151.040374 83.904953 
L 151.089968 84.081419 
L 151.139563 84.001718 
L 151.189157 83.850837 
L 152.081854 69.264824 
L 152.131448 68.822247 
L 152.181042 69.154988 
L 152.329825 70.012829 
L 152.379419 69.793322 
L 152.429014 68.696335 
L 152.528202 68.906169 
L 152.577796 70.815508 
L 152.627391 70.326455 
L 152.726579 69.872337 
L 152.825768 71.273147 
L 152.875362 70.512286 
L 152.924956 70.711519 
L 152.974551 71.787503 
L 153.073739 69.363896 
L 153.123333 69.964288 
L 153.172928 69.903262 
L 153.222522 69.326152 
L 153.272116 70.972044 
L 153.321711 70.602623 
L 153.371305 69.994868 
L 153.420899 70.610642 
L 153.520088 69.63402 
L 153.768059 65.418486 
L 153.867248 65.592182 
L 153.966436 63.320245 
L 154.01603 63.947204 
L 154.065625 63.484738 
L 154.115219 64.53438 
L 154.36319 60.552142 
L 154.412785 60.809951 
L 154.561567 59.14219 
L 154.611162 59.33869 
L 154.71035 60.309664 
L 154.759945 58.64742 
L 154.809539 60.668665 
L 154.859133 60.388917 
L 154.908727 60.664705 
L 154.958322 60.738925 
L 155.107104 63.073703 
L 155.255887 61.343668 
L 155.305482 62.596333 
L 155.40467 62.365619 
L 155.454264 62.428759 
L 155.652641 59.528616 
L 155.702236 60.808527 
L 156.049396 58.178178 
L 156.148584 58.967721 
L 156.198178 58.540098 
L 156.297367 57.337775 
L 156.346961 58.332121 
L 156.396556 58.122554 
L 156.495744 57.190464 
L 156.545338 57.661089 
L 156.644527 58.33862 
L 156.694121 57.618481 
L 156.743716 58.126639 
L 156.892498 60.432109 
L 156.942093 60.323048 
L 156.991687 60.401997 
L 157.190064 62.897474 
L 157.338847 63.441599 
L 157.388441 63.447465 
L 157.537224 64.828422 
L 157.586818 64.250186 
L 157.636412 64.930824 
L 157.686007 64.848899 
L 157.735601 63.907245 
L 157.785195 64.442628 
L 157.83479 65.65793 
L 157.884384 64.717759 
L 157.933978 64.99105 
L 157.983572 64.786787 
L 158.033167 64.80664 
L 158.132355 65.536488 
L 158.181949 66.745924 
L 158.281138 66.529323 
L 158.330732 66.877199 
L 158.479515 68.725051 
L 158.529109 68.847976 
L 158.628298 70.203842 
L 158.727486 69.456642 
L 158.777081 70.491773 
L 158.826675 69.760814 
L 158.925864 70.726875 
L 158.975458 70.588758 
L 159.025052 70.482182 
L 159.074646 73.264203 
L 159.173835 72.890314 
L 159.372212 74.890819 
L 159.421806 74.220695 
L 159.570589 77.002283 
L 159.620183 76.200141 
L 159.669778 76.494142 
L 160.116126 80.283985 
L 160.264909 83.017459 
L 160.314503 82.929251 
L 160.463286 84.005527 
L 160.51288 83.784284 
L 160.661663 86.063175 
L 160.760852 85.728351 
L 160.810446 85.987638 
L 160.959229 86.985067 
L 161.108012 85.963606 
L 161.355983 86.953025 
L 161.55436 88.66144 
L 161.653549 87.241303 
L 161.752737 90.387077 
L 161.802331 89.476044 
L 161.851926 89.340037 
L 162.099897 92.715718 
L 162.149491 91.535513 
L 162.199086 91.574171 
L 162.298274 93.727716 
L 162.347869 93.093407 
L 162.496651 95.748863 
L 162.546246 95.735343 
L 162.645434 95.904401 
L 162.794217 98.101488 
L 162.943 99.312067 
L 163.091783 100.848874 
L 163.141377 100.528218 
L 163.190971 101.117176 
L 163.240565 100.944613 
L 163.29016 100.819936 
L 163.538131 102.509294 
L 163.587725 101.000078 
L 163.63732 102.492476 
L 163.934885 104.213194 
L 163.98448 104.125343 
L 164.034074 105.368462 
L 164.083668 104.751925 
L 164.133262 104.599906 
L 164.331639 107.400537 
L 164.381234 106.486904 
L 164.430828 107.563103 
L 164.579611 106.323451 
L 164.728394 107.759485 
L 164.777988 107.785202 
L 165.075554 111.404396 
L 165.125148 112.589253 
L 165.224336 112.403712 
L 165.273931 112.777913 
L 165.323525 112.683218 
L 165.373119 112.641348 
L 165.521902 113.529818 
L 165.621091 113.474121 
L 165.670685 114.371486 
L 165.720279 114.213907 
L 165.769873 114.13467 
L 165.869062 116.025068 
L 166.017845 114.936504 
L 166.067439 114.724888 
L 166.117033 115.093059 
L 166.166628 114.73484 
L 166.216222 114.539902 
L 166.265816 114.798127 
L 166.365005 113.105505 
L 166.414599 114.102703 
L 166.464193 113.499707 
L 166.513788 112.347741 
L 166.563382 112.954129 
L 166.612976 112.878604 
L 166.66257 113.016194 
L 166.712165 112.600937 
L 166.761759 113.465009 
L 166.811353 111.838388 
L 166.860947 112.484528 
L 167.00973 113.014216 
L 167.108919 112.359264 
L 167.158513 112.969327 
L 167.257702 110.98246 
L 167.307296 111.694177 
L 167.456079 112.318927 
L 167.753644 108.570516 
L 167.803239 108.758748 
L 167.852833 109.114457 
L 167.902427 108.267666 
L 167.952021 108.474991 
L 168.001616 108.536525 
L 168.05121 109.307653 
L 168.100804 108.815768 
L 168.199993 106.5134 
L 168.299181 106.696527 
L 168.348776 106.534986 
L 168.39837 107.550367 
L 168.447964 106.454903 
L 168.497559 106.466013 
L 168.596747 105.546627 
L 168.844718 102.536482 
L 168.894313 102.963944 
L 169.241473 98.266798 
L 169.291067 99.108696 
L 169.390255 96.764715 
L 169.43985 97.707 
L 169.489444 97.143366 
L 169.539038 96.499772 
L 169.588633 97.849052 
L 169.638227 96.561673 
L 169.687821 95.95037 
L 169.737415 96.200075 
L 169.78701 97.02608 
L 169.836604 95.047922 
L 169.935792 95.461253 
L 170.084575 93.561393 
L 170.13417 93.6638 
L 170.183764 94.463841 
L 170.332547 91.892174 
L 170.382141 93.082565 
L 170.431735 92.699127 
L 170.481329 92.372196 
L 170.580518 90.848516 
L 170.630112 91.339886 
L 170.878084 89.060412 
L 170.927678 89.556959 
L 170.977272 89.220083 
L 171.126055 88.817719 
L 171.175649 87.700548 
L 171.274838 87.804115 
L 171.324432 87.957218 
L 171.374026 87.501309 
L 171.621998 89.739706 
L 171.770781 89.005403 
L 171.820375 89.733039 
L 171.869969 89.460339 
L 171.919563 89.35946 
L 172.068346 87.383352 
L 172.117941 88.194125 
L 172.167535 86.674227 
L 172.266723 86.735313 
L 172.4651 84.373904 
L 172.564289 85.713017 
L 172.613883 84.669191 
L 172.663478 85.178448 
L 172.713072 85.129539 
L 172.762666 85.617218 
L 172.81226 85.469003 
L 172.861855 85.001012 
L 172.911449 85.568975 
L 172.961043 85.771416 
L 173.010637 85.666453 
L 173.060232 84.935091 
L 173.109826 85.674394 
L 173.15942 85.845039 
L 173.308203 84.887035 
L 173.357797 84.940151 
L 173.407392 84.177719 
L 173.456986 84.385278 
L 173.605769 85.037804 
L 173.655363 85.357938 
L 173.704957 84.892652 
L 173.903334 87.140565 
L 174.002523 86.230021 
L 174.052117 87.699873 
L 174.101711 86.460804 
L 174.151306 86.217389 
L 174.2009 84.947243 
L 174.250494 85.924757 
L 174.300089 86.124899 
L 174.498466 85.450543 
L 174.597654 85.652915 
L 174.647249 85.427984 
L 174.696843 84.200884 
L 174.746437 85.358822 
L 174.89522 84.326661 
L 174.944814 84.738542 
L 174.994408 84.403257 
L 175.044003 83.981907 
L 175.093597 85.158696 
L 175.143191 84.211737 
L 175.291974 82.890286 
L 175.391163 83.480615 
L 175.440757 82.832951 
L 175.539945 82.908659 
L 175.58954 82.709524 
L 175.688728 81.44538 
L 175.787917 82.693644 
L 175.887105 80.892329 
L 175.9367 81.473656 
L 175.986294 82.18813 
L 176.035888 81.922505 
L 176.085482 81.396397 
L 176.135077 81.815919 
L 176.184671 82.031433 
L 176.234265 81.343405 
L 176.383048 84.023659 
L 176.531831 83.0145 
L 176.581425 83.826033 
L 176.631019 83.039878 
L 176.829397 81.923405 
L 176.978179 83.149239 
L 177.027774 82.273968 
L 177.077368 82.465593 
L 177.176556 83.045931 
L 177.374934 81.341446 
L 177.424528 81.263344 
L 177.474122 81.762882 
L 177.523716 80.587597 
L 177.573311 81.218211 
L 177.622905 81.53561 
L 177.672499 81.36384 
L 177.771688 80.100757 
L 177.821282 81.013732 
L 177.870876 80.6145 
L 177.920471 80.304589 
L 178.019659 81.172927 
L 178.069253 80.628305 
L 178.168442 81.789282 
L 178.267631 80.829712 
L 178.366819 80.712802 
L 178.416413 81.531569 
L 178.466008 81.529414 
L 178.565196 80.130073 
L 178.61479 80.902026 
L 178.813168 82.130008 
L 178.862762 81.323766 
L 178.912356 81.897643 
L 178.96195 81.982604 
L 179.011545 82.656589 
L 179.061139 81.023844 
L 179.110733 81.177644 
L 179.160327 81.524801 
L 179.209922 80.525857 
L 179.259516 81.340515 
L 179.30911 81.894043 
L 179.358705 79.979422 
L 179.408299 81.57331 
L 179.457893 81.912135 
L 179.65627 80.115952 
L 179.705864 80.724896 
L 179.755459 79.692452 
L 179.805053 80.84132 
L 179.854647 80.582962 
L 180.00343 81.816786 
L 180.053024 80.959751 
L 180.102619 81.069606 
L 180.152213 81.95575 
L 180.201807 81.708182 
L 180.251402 81.195012 
L 180.300996 81.300675 
L 180.400184 81.794936 
L 180.499373 80.564791 
L 180.598561 82.322536 
L 180.648156 81.771605 
L 180.69775 81.279453 
L 180.747344 81.790277 
L 180.846533 81.955609 
L 180.945721 80.963272 
L 180.995316 81.143873 
L 181.04491 82.156116 
L 181.094504 80.561059 
L 181.144098 81.769222 
L 181.342476 80.413808 
L 181.441664 80.579023 
L 181.491258 79.35264 
L 181.590447 79.546778 
L 181.788824 80.611738 
L 181.838418 80.531668 
L 181.888013 79.887236 
L 181.987201 79.906793 
L 182.036795 79.940471 
L 182.08639 79.0175 
L 182.135984 80.117628 
L 182.185578 79.592511 
L 182.235172 79.632347 
L 182.284767 80.427123 
L 182.383955 80.283161 
L 182.43355 80.686776 
L 182.483144 80.072766 
L 182.532738 80.319461 
L 182.582332 80.469883 
L 182.631927 80.03642 
L 182.780709 81.660174 
L 182.830304 81.135542 
L 182.929492 81.77374 
L 183.227058 79.953449 
L 183.276652 80.649755 
L 183.326247 80.076876 
L 183.425435 80.418729 
L 183.524624 79.589207 
L 183.574218 80.681799 
L 183.623812 80.153777 
L 183.772595 79.677503 
L 183.822189 80.058166 
L 183.871784 79.87592 
L 184.020566 77.548981 
L 184.119755 79.769377 
L 184.169349 79.393454 
L 184.218943 78.778378 
L 184.268538 79.04188 
L 184.367726 79.220697 
L 184.516509 78.311043 
L 184.566103 78.915684 
L 184.615698 78.092027 
L 184.665292 78.977128 
L 184.714886 78.499454 
L 184.863669 79.340682 
L 184.962858 79.604107 
L 185.062046 78.63211 
L 185.161235 80.537642 
L 185.260423 79.27668 
L 185.310017 80.133266 
L 185.359612 79.178941 
L 185.4588 80.051168 
L 185.557989 78.428337 
L 185.607583 78.83007 
L 185.706772 79.181458 
L 185.905149 77.359489 
L 186.103526 78.474003 
L 186.252309 77.613562 
L 186.301903 77.752391 
L 186.450686 76.200528 
L 186.599469 78.677911 
L 186.748251 78.157398 
L 186.797846 77.855754 
L 186.946629 75.918655 
L 187.045817 77.411369 
L 187.095411 76.477363 
L 187.293788 74.572775 
L 187.343383 74.617639 
L 187.492166 76.385603 
L 187.54176 76.094983 
L 187.591354 76.396464 
L 187.640948 77.849753 
L 187.690543 77.781852 
L 187.88892 76.422448 
L 188.037703 78.204766 
L 188.136891 76.517918 
L 188.186485 77.136892 
L 188.23608 77.088669 
L 188.285674 76.327413 
L 188.335268 76.435072 
L 188.384862 76.69113 
L 188.434457 76.235791 
L 188.58324 74.1075 
L 188.732022 75.564688 
L 188.831211 75.593012 
L 188.880805 74.480018 
L 188.979994 73.424151 
L 189.029588 75.409853 
L 189.079182 75.074068 
L 189.277559 74.492666 
L 189.426342 74.972507 
L 189.525531 74.443585 
L 189.575125 74.513825 
L 189.922285 77.833602 
L 190.120662 75.689125 
L 190.219851 77.367827 
L 190.269445 76.4734 
L 190.319039 76.295894 
L 190.368633 78.297672 
L 190.418228 77.394171 
L 190.467822 77.418073 
L 190.616605 79.560553 
L 190.666199 79.471747 
L 190.715793 78.842411 
L 190.765388 79.71935 
L 190.814982 78.557734 
L 190.864576 79.955694 
L 190.91417 79.57035 
L 191.112548 82.056194 
L 191.211736 81.376009 
L 191.26133 82.46536 
L 191.310925 82.05198 
L 191.360519 82.114296 
L 191.410113 82.013107 
L 191.60849 81.360134 
L 191.658085 81.957194 
L 191.707679 81.489504 
L 191.806867 80.780154 
L 191.856462 81.236899 
L 191.906056 81.988695 
L 191.95565 81.093567 
L 192.005244 81.008667 
L 192.054839 82.329112 
L 192.104433 81.816293 
L 192.154027 81.899158 
L 192.203622 83.123011 
L 192.253216 82.465863 
L 192.30281 82.45754 
L 192.352404 83.482566 
L 192.401999 83.294714 
L 192.451593 82.875685 
L 192.501187 84.223745 
L 192.550782 83.492756 
L 192.699564 85.112714 
L 192.798753 85.005097 
L 192.897941 86.9813 
L 192.947536 86.651542 
L 192.99713 87.360976 
L 193.046724 86.656326 
L 193.145913 86.21604 
L 193.294696 88.149932 
L 193.34429 87.91142 
L 193.393884 88.31758 
L 193.542667 86.086204 
L 193.641856 87.891135 
L 193.69145 87.746588 
L 194.088204 91.673652 
L 194.137798 91.211695 
L 194.286581 92.574715 
L 194.336175 91.992972 
L 194.38577 92.719743 
L 194.484958 92.693025 
L 194.534552 92.483501 
L 194.584147 93.226871 
L 194.633741 92.907878 
L 194.683335 92.836398 
L 194.73293 93.420962 
L 194.782524 92.780219 
L 194.881712 93.110774 
L 194.931307 93.067365 
L 195.030495 95.524472 
L 195.080089 94.895122 
L 195.278467 93.632011 
L 195.328061 95.319401 
L 195.377655 94.765743 
L 195.576032 93.762422 
L 195.625627 94.161823 
L 195.724815 95.149207 
L 195.774409 94.392623 
L 195.824004 94.937497 
L 195.923192 94.657359 
L 196.022381 95.869068 
L 196.071975 95.267865 
L 196.121569 95.526645 
L 196.171164 95.116934 
L 196.220758 95.481389 
L 196.270352 96.169356 
L 196.319946 95.493651 
L 196.369541 95.417836 
L 196.419135 96.322472 
L 196.468729 95.485774 
L 196.518323 95.954665 
L 196.716701 93.920788 
L 196.766295 95.779872 
L 196.815889 95.3672 
L 196.865483 93.910356 
L 196.915078 95.237284 
L 196.964672 96.421513 
L 197.014266 96.205462 
L 197.06386 95.017514 
L 197.113455 95.042278 
L 197.262238 96.488328 
L 197.460615 95.288118 
L 197.510209 94.516206 
L 197.559803 96.691414 
L 197.609397 96.133332 
L 197.658992 95.227763 
L 197.708586 96.294537 
L 197.75818 96.693704 
L 197.807775 94.779756 
L 197.857369 95.961477 
L 197.906963 96.523341 
L 197.956557 96.246986 
L 198.055746 95.754284 
L 198.10534 94.945422 
L 198.154934 97.489082 
L 198.204529 95.651308 
L 198.254123 95.746823 
L 198.303717 95.567347 
L 198.4525 98.092256 
L 198.502094 98.064841 
L 198.551689 97.880801 
L 198.601283 97.208841 
L 198.700472 98.59705 
L 198.750066 98.159195 
L 199.047631 100.470105 
L 199.196414 99.075759 
L 199.246009 99.444821 
L 199.345197 98.11895 
L 199.394791 98.932974 
L 199.444386 98.758738 
L 199.49398 98.44846 
L 199.543574 99.066089 
L 199.593168 98.616658 
L 199.642763 97.838049 
L 199.692357 98.456842 
L 199.741951 99.380329 
L 199.84114 99.363161 
L 200.039517 97.387898 
L 200.089111 97.603711 
L 200.138705 96.927905 
L 200.1883 97.730543 
L 200.237894 97.624922 
L 200.287488 98.586527 
L 200.337083 98.092432 
L 200.386677 97.806134 
L 200.436271 98.411275 
L 200.485865 98.163428 
L 200.634648 97.264331 
L 200.684242 98.11507 
L 200.783431 98.034642 
L 200.833025 97.497678 
L 200.88262 98.516169 
L 200.932214 98.412051 
L 201.031402 97.460656 
L 201.080997 97.530649 
L 201.130591 98.240803 
L 201.229779 96.963461 
L 201.279374 97.557524 
L 201.428157 95.416441 
L 201.477751 96.150847 
L 201.527345 96.735734 
L 201.576939 95.335734 
L 201.626534 96.152653 
L 201.775317 95.576112 
L 201.874505 96.53016 
L 201.973694 95.257837 
L 202.023288 95.354017 
L 202.072882 95.793782 
L 202.172071 94.415125 
L 202.221665 95.322056 
L 202.271259 94.11774 
L 202.370448 94.298732 
L 202.519231 95.010851 
L 202.568825 94.281686 
L 202.668013 95.66182 
L 202.717608 95.392931 
L 202.816796 96.933013 
L 202.866391 95.95662 
L 202.965579 95.561271 
L 203.114362 96.678505 
L 203.163956 96.084196 
L 203.21355 96.473186 
L 203.263145 97.033289 
L 203.362333 95.258611 
L 203.511116 96.969598 
L 203.659899 95.049712 
L 203.808682 95.941093 
L 203.957465 93.640626 
L 204.007059 94.364865 
L 204.056653 93.618604 
L 204.453407 89.846182 
L 204.651784 92.197917 
L 204.850162 90.679851 
L 205.048539 92.245058 
L 205.098133 90.832688 
L 205.147727 91.308978 
L 205.197321 91.252347 
L 205.346104 92.330163 
L 205.395699 90.900407 
L 205.494887 90.980375 
L 205.693264 89.439283 
L 205.742858 90.406254 
L 205.792453 89.991798 
L 205.891641 88.908427 
L 205.99083 89.024491 
L 206.040424 89.108485 
L 206.288395 86.518367 
L 206.33799 87.169454 
L 206.387584 85.746079 
L 206.437178 85.812276 
L 206.486773 86.265145 
L 206.536367 85.781807 
L 206.635555 84.960727 
L 206.68515 85.270867 
L 206.734744 84.956013 
L 206.784338 84.783014 
L 206.833932 85.156379 
L 207.131498 83.158363 
L 207.230687 83.348065 
L 207.429064 81.864672 
L 207.478658 82.538758 
L 207.528252 81.98805 
L 207.627441 81.063762 
L 207.677035 81.661284 
L 207.726629 80.624762 
L 207.825818 80.719242 
L 207.875412 81.257143 
L 208.024195 79.663603 
L 208.073789 79.870477 
L 208.123384 79.620117 
L 208.321761 77.992172 
L 208.371355 79.302515 
L 208.420949 77.929086 
L 208.569732 78.689047 
L 208.718515 77.088195 
L 208.768109 77.925056 
L 208.817703 77.585643 
L 208.867298 76.054899 
L 208.966486 76.2712 
L 209.016081 75.103618 
L 209.065675 76.157603 
L 209.115269 76.225423 
L 209.164863 75.777575 
L 209.214458 76.444204 
L 209.313646 75.395564 
L 209.36324 76.217002 
L 209.412835 75.727574 
L 209.512023 76.231882 
L 209.561618 74.009683 
L 209.611212 75.256677 
L 209.660806 75.26106 
L 209.759995 74.508242 
L 209.958372 71.296438 
L 210.007966 71.45499 
L 210.156749 70.437167 
L 210.255937 70.673756 
L 210.454315 68.720562 
L 210.603097 70.307627 
L 210.702286 70.411953 
L 210.999852 73.128033 
L 211.09904 72.526497 
L 211.198229 73.537622 
L 211.247823 73.160601 
L 211.297417 73.269862 
L 211.347011 73.271837 
L 211.495794 74.243561 
L 211.545389 74.178168 
L 211.644577 75.428314 
L 211.694171 75.056387 
L 211.842954 76.955198 
L 211.892548 76.700891 
L 212.14052 78.166377 
L 212.48768 81.286468 
L 212.785245 83.021384 
L 213.132405 85.006693 
L 213.677942 86.342888 
L 213.677942 86.342888 
" clip-path="url(#p323a8d1e96)" style="fill: none; stroke: #1f77b4; stroke-width: 1.5; stroke-linecap: square"/>
   </g>
   <g id="patch_3">
    <path d="M 57.508053 182.64351 
L 57.508053 3.00024 
" style="fill: none; stroke: #000000; stroke-width: 0.8; stroke-linejoin: miter; stroke-linecap: square"/>
   </g>
   <g id="patch_4">
    <path d="M 221.114604 182.64351 
L 221.114604 3.00024 
" style="fill: none; stroke: #000000; stroke-width: 0.8; stroke-linejoin: miter; stroke-linecap: square"/>
   </g>
   <g id="patch_5">
    <path d="M 57.508053 182.64351 
L 221.114604 182.64351 
" style="fill: none; stroke: #000000; stroke-width: 0.8; stroke-linejoin: miter; stroke-linecap: square"/>
   </g>
   <g id="patch_6">
    <path d="M 57.508053 3.00024 
L 221.114604 3.00024 
" style="fill: none; stroke: #000000; stroke-width: 0.8; stroke-linejoin: miter; stroke-linecap: square"/>
   </g>
  </g>
  <g id="axes_2">
   <g id="patch_7">
    <path d="M 265.393209 182.64351 
L 428.99976 182.64351 
L 428.99976 3.00024 
L 265.393209 3.00024 
z
" style="fill: #ffffff"/>
   </g>
   <g id="matplotlib.axis_3">
    <g id="xtick_5">
     <g id="line2d_22">
      <path d="M 295.172989 182.64351 
L 295.172989 3.00024 
" clip-path="url(#p6152fb7fcc)" style="fill: none; stroke: #b0b0b0; stroke-width: 0.8; stroke-linecap: square"/>
     </g>
     <g id="line2d_23">
      <g>
       <use xlink:href="#m3905bd5b67" x="295.172989" y="182.64351" style="stroke: #000000; stroke-width: 0.8"/>
      </g>
     </g>
     <g id="text_13">
      <!-- $\mathdefault{10^{-1}}$ -->
      <g transform="translate(283.422989 197.241948) scale(0.1 -0.1)">
       <use xlink:href="#DejaVuSans-31" transform="translate(0 0.684375)"/>
       <use xlink:href="#DejaVuSans-30" transform="translate(63.623047 0.684375)"/>
       <use xlink:href="#DejaVuSans-2212" transform="translate(128.203125 38.965625) scale(0.7)"/>
       <use xlink:href="#DejaVuSans-31" transform="translate(186.855469 38.965625) scale(0.7)"/>
      </g>
     </g>
    </g>
    <g id="xtick_6">
     <g id="line2d_24">
      <path d="M 342.002005 182.64351 
L 342.002005 3.00024 
" clip-path="url(#p6152fb7fcc)" style="fill: none; stroke: #b0b0b0; stroke-width: 0.8; stroke-linecap: square"/>
     </g>
     <g id="line2d_25">
      <g>
       <use xlink:href="#m3905bd5b67" x="342.002005" y="182.64351" style="stroke: #000000; stroke-width: 0.8"/>
      </g>
     </g>
     <g id="text_14">
      <!-- $\mathdefault{10^{0}}$ -->
      <g transform="translate(333.202005 197.241948) scale(0.1 -0.1)">
       <use xlink:href="#DejaVuSans-31" transform="translate(0 0.765625)"/>
       <use xlink:href="#DejaVuSans-30" transform="translate(63.623047 0.765625)"/>
       <use xlink:href="#DejaVuSans-30" transform="translate(128.203125 39.046875) scale(0.7)"/>
      </g>
     </g>
    </g>
    <g id="xtick_7">
     <g id="line2d_26">
      <path d="M 388.831021 182.64351 
L 388.831021 3.00024 
" clip-path="url(#p6152fb7fcc)" style="fill: none; stroke: #b0b0b0; stroke-width: 0.8; stroke-linecap: square"/>
     </g>
     <g id="line2d_27">
      <g>
       <use xlink:href="#m3905bd5b67" x="388.831021" y="182.64351" style="stroke: #000000; stroke-width: 0.8"/>
      </g>
     </g>
     <g id="text_15">
      <!-- $\mathdefault{10^{1}}$ -->
      <g transform="translate(380.031021 197.241948) scale(0.1 -0.1)">
       <use xlink:href="#DejaVuSans-31" transform="translate(0 0.684375)"/>
       <use xlink:href="#DejaVuSans-30" transform="translate(63.623047 0.684375)"/>
       <use xlink:href="#DejaVuSans-31" transform="translate(128.203125 38.965625) scale(0.7)"/>
      </g>
     </g>
    </g>
    <g id="xtick_8">
     <g id="line2d_28">
      <defs>
       <path id="m84943b8da6" d="M 0 0 
L 0 2 
" style="stroke: #000000; stroke-width: 0.6"/>
      </defs>
      <g>
       <use xlink:href="#m84943b8da6" x="270.687092" y="182.64351" style="stroke: #000000; stroke-width: 0.6"/>
      </g>
     </g>
    </g>
    <g id="xtick_9">
     <g id="line2d_29">
      <g>
       <use xlink:href="#m84943b8da6" x="276.53785" y="182.64351" style="stroke: #000000; stroke-width: 0.6"/>
      </g>
     </g>
    </g>
    <g id="xtick_10">
     <g id="line2d_30">
      <g>
       <use xlink:href="#m84943b8da6" x="281.076051" y="182.64351" style="stroke: #000000; stroke-width: 0.6"/>
      </g>
     </g>
    </g>
    <g id="xtick_11">
     <g id="line2d_31">
      <g>
       <use xlink:href="#m84943b8da6" x="284.78403" y="182.64351" style="stroke: #000000; stroke-width: 0.6"/>
      </g>
     </g>
    </g>
    <g id="xtick_12">
     <g id="line2d_32">
      <g>
       <use xlink:href="#m84943b8da6" x="287.919083" y="182.64351" style="stroke: #000000; stroke-width: 0.6"/>
      </g>
     </g>
    </g>
    <g id="xtick_13">
     <g id="line2d_33">
      <g>
       <use xlink:href="#m84943b8da6" x="290.634788" y="182.64351" style="stroke: #000000; stroke-width: 0.6"/>
      </g>
     </g>
    </g>
    <g id="xtick_14">
     <g id="line2d_34">
      <g>
       <use xlink:href="#m84943b8da6" x="293.030211" y="182.64351" style="stroke: #000000; stroke-width: 0.6"/>
      </g>
     </g>
    </g>
    <g id="xtick_15">
     <g id="line2d_35">
      <g>
       <use xlink:href="#m84943b8da6" x="309.269928" y="182.64351" style="stroke: #000000; stroke-width: 0.6"/>
      </g>
     </g>
    </g>
    <g id="xtick_16">
     <g id="line2d_36">
      <g>
       <use xlink:href="#m84943b8da6" x="317.516108" y="182.64351" style="stroke: #000000; stroke-width: 0.6"/>
      </g>
     </g>
    </g>
    <g id="xtick_17">
     <g id="line2d_37">
      <g>
       <use xlink:href="#m84943b8da6" x="323.366866" y="182.64351" style="stroke: #000000; stroke-width: 0.6"/>
      </g>
     </g>
    </g>
    <g id="xtick_18">
     <g id="line2d_38">
      <g>
       <use xlink:href="#m84943b8da6" x="327.905067" y="182.64351" style="stroke: #000000; stroke-width: 0.6"/>
      </g>
     </g>
    </g>
    <g id="xtick_19">
     <g id="line2d_39">
      <g>
       <use xlink:href="#m84943b8da6" x="331.613046" y="182.64351" style="stroke: #000000; stroke-width: 0.6"/>
      </g>
     </g>
    </g>
    <g id="xtick_20">
     <g id="line2d_40">
      <g>
       <use xlink:href="#m84943b8da6" x="334.748099" y="182.64351" style="stroke: #000000; stroke-width: 0.6"/>
      </g>
     </g>
    </g>
    <g id="xtick_21">
     <g id="line2d_41">
      <g>
       <use xlink:href="#m84943b8da6" x="337.463805" y="182.64351" style="stroke: #000000; stroke-width: 0.6"/>
      </g>
     </g>
    </g>
    <g id="xtick_22">
     <g id="line2d_42">
      <g>
       <use xlink:href="#m84943b8da6" x="339.859227" y="182.64351" style="stroke: #000000; stroke-width: 0.6"/>
      </g>
     </g>
    </g>
    <g id="xtick_23">
     <g id="line2d_43">
      <g>
       <use xlink:href="#m84943b8da6" x="356.098944" y="182.64351" style="stroke: #000000; stroke-width: 0.6"/>
      </g>
     </g>
    </g>
    <g id="xtick_24">
     <g id="line2d_44">
      <g>
       <use xlink:href="#m84943b8da6" x="364.345124" y="182.64351" style="stroke: #000000; stroke-width: 0.6"/>
      </g>
     </g>
    </g>
    <g id="xtick_25">
     <g id="line2d_45">
      <g>
       <use xlink:href="#m84943b8da6" x="370.195882" y="182.64351" style="stroke: #000000; stroke-width: 0.6"/>
      </g>
     </g>
    </g>
    <g id="xtick_26">
     <g id="line2d_46">
      <g>
       <use xlink:href="#m84943b8da6" x="374.734083" y="182.64351" style="stroke: #000000; stroke-width: 0.6"/>
      </g>
     </g>
    </g>
    <g id="xtick_27">
     <g id="line2d_47">
      <g>
       <use xlink:href="#m84943b8da6" x="378.442062" y="182.64351" style="stroke: #000000; stroke-width: 0.6"/>
      </g>
     </g>
    </g>
    <g id="xtick_28">
     <g id="line2d_48">
      <g>
       <use xlink:href="#m84943b8da6" x="381.577115" y="182.64351" style="stroke: #000000; stroke-width: 0.6"/>
      </g>
     </g>
    </g>
    <g id="xtick_29">
     <g id="line2d_49">
      <g>
       <use xlink:href="#m84943b8da6" x="384.292821" y="182.64351" style="stroke: #000000; stroke-width: 0.6"/>
      </g>
     </g>
    </g>
    <g id="xtick_30">
     <g id="line2d_50">
      <g>
       <use xlink:href="#m84943b8da6" x="386.688243" y="182.64351" style="stroke: #000000; stroke-width: 0.6"/>
      </g>
     </g>
    </g>
    <g id="xtick_31">
     <g id="line2d_51">
      <g>
       <use xlink:href="#m84943b8da6" x="402.92796" y="182.64351" style="stroke: #000000; stroke-width: 0.6"/>
      </g>
     </g>
    </g>
    <g id="xtick_32">
     <g id="line2d_52">
      <g>
       <use xlink:href="#m84943b8da6" x="411.17414" y="182.64351" style="stroke: #000000; stroke-width: 0.6"/>
      </g>
     </g>
    </g>
    <g id="xtick_33">
     <g id="line2d_53">
      <g>
       <use xlink:href="#m84943b8da6" x="417.024898" y="182.64351" style="stroke: #000000; stroke-width: 0.6"/>
      </g>
     </g>
    </g>
    <g id="xtick_34">
     <g id="line2d_54">
      <g>
       <use xlink:href="#m84943b8da6" x="421.563099" y="182.64351" style="stroke: #000000; stroke-width: 0.6"/>
      </g>
     </g>
    </g>
    <g id="xtick_35">
     <g id="line2d_55">
      <g>
       <use xlink:href="#m84943b8da6" x="425.271078" y="182.64351" style="stroke: #000000; stroke-width: 0.6"/>
      </g>
     </g>
    </g>
    <g id="xtick_36">
     <g id="line2d_56">
      <g>
       <use xlink:href="#m84943b8da6" x="428.406131" y="182.64351" style="stroke: #000000; stroke-width: 0.6"/>
      </g>
     </g>
    </g>
    <g id="text_16">
     <!-- Frequency (Hz) -->
     <g transform="translate(309.491797 210.920073) scale(0.1 -0.1)">
      <defs>
       <path id="DejaVuSans-46" d="M 628 4666 
L 3309 4666 
L 3309 4134 
L 1259 4134 
L 1259 2759 
L 3109 2759 
L 3109 2228 
L 1259 2228 
L 1259 0 
L 628 0 
L 628 4666 
z
" transform="scale(0.015625)"/>
       <path id="DejaVuSans-72" d="M 2631 2963 
Q 2534 3019 2420 3045 
Q 2306 3072 2169 3072 
Q 1681 3072 1420 2755 
Q 1159 2438 1159 1844 
L 1159 0 
L 581 0 
L 581 3500 
L 1159 3500 
L 1159 2956 
Q 1341 3275 1631 3429 
Q 1922 3584 2338 3584 
Q 2397 3584 2469 3576 
Q 2541 3569 2628 3553 
L 2631 2963 
z
" transform="scale(0.015625)"/>
       <path id="DejaVuSans-71" d="M 947 1747 
Q 947 1113 1208 752 
Q 1469 391 1925 391 
Q 2381 391 2643 752 
Q 2906 1113 2906 1747 
Q 2906 2381 2643 2742 
Q 2381 3103 1925 3103 
Q 1469 3103 1208 2742 
Q 947 2381 947 1747 
z
M 2906 525 
Q 2725 213 2448 61 
Q 2172 -91 1784 -91 
Q 1150 -91 751 415 
Q 353 922 353 1747 
Q 353 2572 751 3078 
Q 1150 3584 1784 3584 
Q 2172 3584 2448 3432 
Q 2725 3281 2906 2969 
L 2906 3500 
L 3481 3500 
L 3481 -1331 
L 2906 -1331 
L 2906 525 
z
" transform="scale(0.015625)"/>
       <path id="DejaVuSans-79" d="M 2059 -325 
Q 1816 -950 1584 -1140 
Q 1353 -1331 966 -1331 
L 506 -1331 
L 506 -850 
L 844 -850 
Q 1081 -850 1212 -737 
Q 1344 -625 1503 -206 
L 1606 56 
L 191 3500 
L 800 3500 
L 1894 763 
L 2988 3500 
L 3597 3500 
L 2059 -325 
z
" transform="scale(0.015625)"/>
       <path id="DejaVuSans-48" d="M 628 4666 
L 1259 4666 
L 1259 2753 
L 3553 2753 
L 3553 4666 
L 4184 4666 
L 4184 0 
L 3553 0 
L 3553 2222 
L 1259 2222 
L 1259 0 
L 628 0 
L 628 4666 
z
" transform="scale(0.015625)"/>
       <path id="DejaVuSans-7a" d="M 353 3500 
L 3084 3500 
L 3084 2975 
L 922 459 
L 3084 459 
L 3084 0 
L 275 0 
L 275 525 
L 2438 3041 
L 353 3041 
L 353 3500 
z
" transform="scale(0.015625)"/>
      </defs>
      <use xlink:href="#DejaVuSans-46"/>
      <use xlink:href="#DejaVuSans-72" transform="translate(50.269531 0)"/>
      <use xlink:href="#DejaVuSans-65" transform="translate(89.132812 0)"/>
      <use xlink:href="#DejaVuSans-71" transform="translate(150.65625 0)"/>
      <use xlink:href="#DejaVuSans-75" transform="translate(214.132812 0)"/>
      <use xlink:href="#DejaVuSans-65" transform="translate(277.511719 0)"/>
      <use xlink:href="#DejaVuSans-6e" transform="translate(339.035156 0)"/>
      <use xlink:href="#DejaVuSans-63" transform="translate(402.414062 0)"/>
      <use xlink:href="#DejaVuSans-79" transform="translate(457.394531 0)"/>
      <use xlink:href="#DejaVuSans-20" transform="translate(516.574219 0)"/>
      <use xlink:href="#DejaVuSans-28" transform="translate(548.361328 0)"/>
      <use xlink:href="#DejaVuSans-48" transform="translate(587.375 0)"/>
      <use xlink:href="#DejaVuSans-7a" transform="translate(662.570312 0)"/>
      <use xlink:href="#DejaVuSans-29" transform="translate(715.060547 0)"/>
     </g>
    </g>
   </g>
   <g id="matplotlib.axis_4">
    <g id="ytick_7">
     <g id="line2d_57">
      <path d="M 265.393209 148.900506 
L 428.99976 148.900506 
" clip-path="url(#p6152fb7fcc)" style="fill: none; stroke: #b0b0b0; stroke-width: 0.8; stroke-linecap: square"/>
     </g>
     <g id="line2d_58">
      <g>
       <use xlink:href="#m6ceee0edff" x="265.393209" y="148.900506" style="stroke: #000000; stroke-width: 0.8"/>
      </g>
     </g>
     <g id="text_17">
      <!-- $\mathdefault{10^{2}}$ -->
      <g transform="translate(240.793209 152.699725) scale(0.1 -0.1)">
       <use xlink:href="#DejaVuSans-31" transform="translate(0 0.765625)"/>
       <use xlink:href="#DejaVuSans-30" transform="translate(63.623047 0.765625)"/>
       <use xlink:href="#DejaVuSans-32" transform="translate(128.203125 39.046875) scale(0.7)"/>
      </g>
     </g>
    </g>
    <g id="ytick_8">
     <g id="line2d_59">
      <path d="M 265.393209 108.383524 
L 428.99976 108.383524 
" clip-path="url(#p6152fb7fcc)" style="fill: none; stroke: #b0b0b0; stroke-width: 0.8; stroke-linecap: square"/>
     </g>
     <g id="line2d_60">
      <g>
       <use xlink:href="#m6ceee0edff" x="265.393209" y="108.383524" style="stroke: #000000; stroke-width: 0.8"/>
      </g>
     </g>
     <g id="text_18">
      <!-- $\mathdefault{10^{3}}$ -->
      <g transform="translate(240.793209 112.182743) scale(0.1 -0.1)">
       <use xlink:href="#DejaVuSans-31" transform="translate(0 0.765625)"/>
       <use xlink:href="#DejaVuSans-30" transform="translate(63.623047 0.765625)"/>
       <use xlink:href="#DejaVuSans-33" transform="translate(128.203125 39.046875) scale(0.7)"/>
      </g>
     </g>
    </g>
    <g id="ytick_9">
     <g id="line2d_61">
      <path d="M 265.393209 67.866542 
L 428.99976 67.866542 
" clip-path="url(#p6152fb7fcc)" style="fill: none; stroke: #b0b0b0; stroke-width: 0.8; stroke-linecap: square"/>
     </g>
     <g id="line2d_62">
      <g>
       <use xlink:href="#m6ceee0edff" x="265.393209" y="67.866542" style="stroke: #000000; stroke-width: 0.8"/>
      </g>
     </g>
     <g id="text_19">
      <!-- $\mathdefault{10^{4}}$ -->
      <g transform="translate(240.793209 71.665761) scale(0.1 -0.1)">
       <defs>
        <path id="DejaVuSans-34" d="M 2419 4116 
L 825 1625 
L 2419 1625 
L 2419 4116 
z
M 2253 4666 
L 3047 4666 
L 3047 1625 
L 3713 1625 
L 3713 1100 
L 3047 1100 
L 3047 0 
L 2419 0 
L 2419 1100 
L 313 1100 
L 313 1709 
L 2253 4666 
z
" transform="scale(0.015625)"/>
       </defs>
       <use xlink:href="#DejaVuSans-31" transform="translate(0 0.684375)"/>
       <use xlink:href="#DejaVuSans-30" transform="translate(63.623047 0.684375)"/>
       <use xlink:href="#DejaVuSans-34" transform="translate(128.203125 38.965625) scale(0.7)"/>
      </g>
     </g>
    </g>
    <g id="ytick_10">
     <g id="line2d_63">
      <path d="M 265.393209 27.34956 
L 428.99976 27.34956 
" clip-path="url(#p6152fb7fcc)" style="fill: none; stroke: #b0b0b0; stroke-width: 0.8; stroke-linecap: square"/>
     </g>
     <g id="line2d_64">
      <g>
       <use xlink:href="#m6ceee0edff" x="265.393209" y="27.34956" style="stroke: #000000; stroke-width: 0.8"/>
      </g>
     </g>
     <g id="text_20">
      <!-- $\mathdefault{10^{5}}$ -->
      <g transform="translate(240.793209 31.148779) scale(0.1 -0.1)">
       <use xlink:href="#DejaVuSans-31" transform="translate(0 0.684375)"/>
       <use xlink:href="#DejaVuSans-30" transform="translate(63.623047 0.684375)"/>
       <use xlink:href="#DejaVuSans-35" transform="translate(128.203125 38.965625) scale(0.7)"/>
      </g>
     </g>
    </g>
    <g id="ytick_11">
     <g id="line2d_65">
      <defs>
       <path id="m20dd7b124b" d="M 0 0 
L -2 0 
" style="stroke: #000000; stroke-width: 0.6"/>
      </defs>
      <g>
       <use xlink:href="#m20dd7b124b" x="265.393209" y="177.220661" style="stroke: #000000; stroke-width: 0.6"/>
      </g>
     </g>
    </g>
    <g id="ytick_12">
     <g id="line2d_66">
      <g>
       <use xlink:href="#m20dd7b124b" x="265.393209" y="170.085975" style="stroke: #000000; stroke-width: 0.6"/>
      </g>
     </g>
    </g>
    <g id="ytick_13">
     <g id="line2d_67">
      <g>
       <use xlink:href="#m20dd7b124b" x="265.393209" y="165.023834" style="stroke: #000000; stroke-width: 0.6"/>
      </g>
     </g>
    </g>
    <g id="ytick_14">
     <g id="line2d_68">
      <g>
       <use xlink:href="#m20dd7b124b" x="265.393209" y="161.097333" style="stroke: #000000; stroke-width: 0.6"/>
      </g>
     </g>
    </g>
    <g id="ytick_15">
     <g id="line2d_69">
      <g>
       <use xlink:href="#m20dd7b124b" x="265.393209" y="157.889148" style="stroke: #000000; stroke-width: 0.6"/>
      </g>
     </g>
    </g>
    <g id="ytick_16">
     <g id="line2d_70">
      <g>
       <use xlink:href="#m20dd7b124b" x="265.393209" y="155.176666" style="stroke: #000000; stroke-width: 0.6"/>
      </g>
     </g>
    </g>
    <g id="ytick_17">
     <g id="line2d_71">
      <g>
       <use xlink:href="#m20dd7b124b" x="265.393209" y="152.827007" style="stroke: #000000; stroke-width: 0.6"/>
      </g>
     </g>
    </g>
    <g id="ytick_18">
     <g id="line2d_72">
      <g>
       <use xlink:href="#m20dd7b124b" x="265.393209" y="150.754461" style="stroke: #000000; stroke-width: 0.6"/>
      </g>
     </g>
    </g>
    <g id="ytick_19">
     <g id="line2d_73">
      <g>
       <use xlink:href="#m20dd7b124b" x="265.393209" y="136.703679" style="stroke: #000000; stroke-width: 0.6"/>
      </g>
     </g>
    </g>
    <g id="ytick_20">
     <g id="line2d_74">
      <g>
       <use xlink:href="#m20dd7b124b" x="265.393209" y="129.568993" style="stroke: #000000; stroke-width: 0.6"/>
      </g>
     </g>
    </g>
    <g id="ytick_21">
     <g id="line2d_75">
      <g>
       <use xlink:href="#m20dd7b124b" x="265.393209" y="124.506852" style="stroke: #000000; stroke-width: 0.6"/>
      </g>
     </g>
    </g>
    <g id="ytick_22">
     <g id="line2d_76">
      <g>
       <use xlink:href="#m20dd7b124b" x="265.393209" y="120.580351" style="stroke: #000000; stroke-width: 0.6"/>
      </g>
     </g>
    </g>
    <g id="ytick_23">
     <g id="line2d_77">
      <g>
       <use xlink:href="#m20dd7b124b" x="265.393209" y="117.372166" style="stroke: #000000; stroke-width: 0.6"/>
      </g>
     </g>
    </g>
    <g id="ytick_24">
     <g id="line2d_78">
      <g>
       <use xlink:href="#m20dd7b124b" x="265.393209" y="114.659684" style="stroke: #000000; stroke-width: 0.6"/>
      </g>
     </g>
    </g>
    <g id="ytick_25">
     <g id="line2d_79">
      <g>
       <use xlink:href="#m20dd7b124b" x="265.393209" y="112.310025" style="stroke: #000000; stroke-width: 0.6"/>
      </g>
     </g>
    </g>
    <g id="ytick_26">
     <g id="line2d_80">
      <g>
       <use xlink:href="#m20dd7b124b" x="265.393209" y="110.23748" style="stroke: #000000; stroke-width: 0.6"/>
      </g>
     </g>
    </g>
    <g id="ytick_27">
     <g id="line2d_81">
      <g>
       <use xlink:href="#m20dd7b124b" x="265.393209" y="96.186697" style="stroke: #000000; stroke-width: 0.6"/>
      </g>
     </g>
    </g>
    <g id="ytick_28">
     <g id="line2d_82">
      <g>
       <use xlink:href="#m20dd7b124b" x="265.393209" y="89.052011" style="stroke: #000000; stroke-width: 0.6"/>
      </g>
     </g>
    </g>
    <g id="ytick_29">
     <g id="line2d_83">
      <g>
       <use xlink:href="#m20dd7b124b" x="265.393209" y="83.98987" style="stroke: #000000; stroke-width: 0.6"/>
      </g>
     </g>
    </g>
    <g id="ytick_30">
     <g id="line2d_84">
      <g>
       <use xlink:href="#m20dd7b124b" x="265.393209" y="80.063369" style="stroke: #000000; stroke-width: 0.6"/>
      </g>
     </g>
    </g>
    <g id="ytick_31">
     <g id="line2d_85">
      <g>
       <use xlink:href="#m20dd7b124b" x="265.393209" y="76.855184" style="stroke: #000000; stroke-width: 0.6"/>
      </g>
     </g>
    </g>
    <g id="ytick_32">
     <g id="line2d_86">
      <g>
       <use xlink:href="#m20dd7b124b" x="265.393209" y="74.142702" style="stroke: #000000; stroke-width: 0.6"/>
      </g>
     </g>
    </g>
    <g id="ytick_33">
     <g id="line2d_87">
      <g>
       <use xlink:href="#m20dd7b124b" x="265.393209" y="71.793044" style="stroke: #000000; stroke-width: 0.6"/>
      </g>
     </g>
    </g>
    <g id="ytick_34">
     <g id="line2d_88">
      <g>
       <use xlink:href="#m20dd7b124b" x="265.393209" y="69.720498" style="stroke: #000000; stroke-width: 0.6"/>
      </g>
     </g>
    </g>
    <g id="ytick_35">
     <g id="line2d_89">
      <g>
       <use xlink:href="#m20dd7b124b" x="265.393209" y="55.669715" style="stroke: #000000; stroke-width: 0.6"/>
      </g>
     </g>
    </g>
    <g id="ytick_36">
     <g id="line2d_90">
      <g>
       <use xlink:href="#m20dd7b124b" x="265.393209" y="48.535029" style="stroke: #000000; stroke-width: 0.6"/>
      </g>
     </g>
    </g>
    <g id="ytick_37">
     <g id="line2d_91">
      <g>
       <use xlink:href="#m20dd7b124b" x="265.393209" y="43.472889" style="stroke: #000000; stroke-width: 0.6"/>
      </g>
     </g>
    </g>
    <g id="ytick_38">
     <g id="line2d_92">
      <g>
       <use xlink:href="#m20dd7b124b" x="265.393209" y="39.546387" style="stroke: #000000; stroke-width: 0.6"/>
      </g>
     </g>
    </g>
    <g id="ytick_39">
     <g id="line2d_93">
      <g>
       <use xlink:href="#m20dd7b124b" x="265.393209" y="36.338202" style="stroke: #000000; stroke-width: 0.6"/>
      </g>
     </g>
    </g>
    <g id="ytick_40">
     <g id="line2d_94">
      <g>
       <use xlink:href="#m20dd7b124b" x="265.393209" y="33.62572" style="stroke: #000000; stroke-width: 0.6"/>
      </g>
     </g>
    </g>
    <g id="ytick_41">
     <g id="line2d_95">
      <g>
       <use xlink:href="#m20dd7b124b" x="265.393209" y="31.276062" style="stroke: #000000; stroke-width: 0.6"/>
      </g>
     </g>
    </g>
    <g id="ytick_42">
     <g id="line2d_96">
      <g>
       <use xlink:href="#m20dd7b124b" x="265.393209" y="29.203516" style="stroke: #000000; stroke-width: 0.6"/>
      </g>
     </g>
    </g>
    <g id="ytick_43">
     <g id="line2d_97">
      <g>
       <use xlink:href="#m20dd7b124b" x="265.393209" y="15.152734" style="stroke: #000000; stroke-width: 0.6"/>
      </g>
     </g>
    </g>
    <g id="ytick_44">
     <g id="line2d_98">
      <g>
       <use xlink:href="#m20dd7b124b" x="265.393209" y="8.018047" style="stroke: #000000; stroke-width: 0.6"/>
      </g>
     </g>
    </g>
    <g id="text_21">
     <!-- Spectrum -->
     <g transform="translate(234.713521 117.050781) rotate(-90) scale(0.1 -0.1)">
      <defs>
       <path id="DejaVuSans-53" d="M 3425 4513 
L 3425 3897 
Q 3066 4069 2747 4153 
Q 2428 4238 2131 4238 
Q 1616 4238 1336 4038 
Q 1056 3838 1056 3469 
Q 1056 3159 1242 3001 
Q 1428 2844 1947 2747 
L 2328 2669 
Q 3034 2534 3370 2195 
Q 3706 1856 3706 1288 
Q 3706 609 3251 259 
Q 2797 -91 1919 -91 
Q 1588 -91 1214 -16 
Q 841 59 441 206 
L 441 856 
Q 825 641 1194 531 
Q 1563 422 1919 422 
Q 2459 422 2753 634 
Q 3047 847 3047 1241 
Q 3047 1584 2836 1778 
Q 2625 1972 2144 2069 
L 1759 2144 
Q 1053 2284 737 2584 
Q 422 2884 422 3419 
Q 422 4038 858 4394 
Q 1294 4750 2059 4750 
Q 2388 4750 2728 4690 
Q 3069 4631 3425 4513 
z
" transform="scale(0.015625)"/>
      </defs>
      <use xlink:href="#DejaVuSans-53"/>
      <use xlink:href="#DejaVuSans-70" transform="translate(63.476562 0)"/>
      <use xlink:href="#DejaVuSans-65" transform="translate(126.953125 0)"/>
      <use xlink:href="#DejaVuSans-63" transform="translate(188.476562 0)"/>
      <use xlink:href="#DejaVuSans-74" transform="translate(243.457031 0)"/>
      <use xlink:href="#DejaVuSans-72" transform="translate(282.666016 0)"/>
      <use xlink:href="#DejaVuSans-75" transform="translate(323.779297 0)"/>
      <use xlink:href="#DejaVuSans-6d" transform="translate(387.158203 0)"/>
     </g>
    </g>
   </g>
   <g id="line2d_99">
    <path d="M -1 43.556289 
L 272.82987 43.444091 
L 286.926809 44.305176 
L 295.172989 24.705036 
L 301.023747 39.040744 
L 305.561948 16.091462 
L 309.269928 11.165843 
L 312.40498 18.671311 
L 317.516108 28.250157 
L 319.658886 43.704198 
L 321.597265 36.848549 
L 323.366866 48.764389 
L 324.994741 41.667869 
L 326.501918 49.863028 
L 327.905067 52.819814 
L 329.217624 63.445653 
L 330.450582 54.696472 
L 331.613046 65.020922 
L 332.712643 62.245229 
L 333.755825 75.70277 
L 334.748099 79.077682 
L 335.694203 57.214182 
L 336.598245 51.882638 
L 337.463805 59.728829 
L 338.294025 64.350098 
L 339.09168 54.742406 
L 339.859227 55.542668 
L 340.598857 55.005106 
L 341.312529 60.057482 
L 342.002005 63.885796 
L 342.668871 61.330491 
L 343.314563 96.173748 
L 343.940384 57.435208 
L 344.547521 66.179291 
L 345.137057 65.948028 
L 345.709985 56.746435 
L 346.267214 59.868878 
L 346.809582 64.918924 
L 347.33786 68.527465 
L 347.852763 56.288742 
L 348.354951 48.585519 
L 348.845037 48.112626 
L 349.323591 47.14624 
L 349.791142 47.252818 
L 350.248185 44.345668 
L 350.695183 44.763797 
L 351.560743 42.890861 
L 351.980089 44.308241 
L 352.793701 52.986455 
L 353.188618 58.553836 
L 353.576012 57.206443 
L 354.329342 49.450187 
L 354.695795 48.94427 
L 355.055762 63.764984 
L 355.409468 59.198918 
L 355.757127 50.144209 
L 356.43511 43.542321 
L 356.765809 44.794108 
L 357.726819 71.927163 
L 358.644459 45.116588 
L 358.941364 42.888489 
L 359.233996 42.218521 
L 359.522477 44.881058 
L 359.806923 46.192528 
L 360.087446 46.545239 
L 360.364152 49.900583 
L 360.637144 50.317972 
L 360.90652 41.928956 
L 361.172375 37.97387 
L 361.69388 35.285548 
L 361.949702 36.319615 
L 362.202346 38.176102 
L 362.45189 38.983621 
L 363.18266 52.44173 
L 363.420529 54.225928 
L 363.655648 54.668598 
L 363.88808 49.873299 
L 364.117886 48.023759 
L 364.345124 49.441347 
L 364.569851 53.245275 
L 365.01199 75.626145 
L 365.229506 77.071382 
L 365.444721 59.705638 
L 365.657681 55.581271 
L 365.868436 62.753924 
L 366.077028 62.160249 
L 366.283503 55.381385 
L 366.487902 60.681781 
L 366.690268 59.232263 
L 367.089057 62.265972 
L 367.480176 65.923598 
L 367.672951 61.357655 
L 367.863916 66.276618 
L 368.053104 77.796514 
L 368.240548 113.249661 
L 368.426281 75.711248 
L 368.610333 76.861637 
L 368.973513 60.051989 
L 369.330322 50.513058 
L 369.506406 48.382364 
L 369.854066 47.157849 
L 370.195882 50.102861 
L 370.36466 51.641992 
L 370.532048 50.24355 
L 370.69807 50.436324 
L 371.026103 57.100489 
L 371.188156 56.373745 
L 371.348928 58.920966 
L 371.823757 75.188957 
L 371.979602 100.126822 
L 372.134261 100.978316 
L 372.287753 73.155968 
L 372.440095 77.378107 
L 372.591304 76.028939 
L 372.741398 80.755623 
L 372.890392 95.4979 
L 373.038302 84.9157 
L 373.185145 63.533784 
L 373.330934 61.626088 
L 373.619416 72.63019 
L 373.762136 70.849061 
L 374.323208 52.122087 
L 374.598045 54.732748 
L 375.13682 46.21686 
L 375.269313 46.316636 
L 375.790818 57.811338 
L 375.919131 57.093723 
L 376.04664 57.51522 
L 376.173354 60.139465 
L 376.672461 98.084252 
L 376.795347 90.755622 
L 376.917495 92.388699 
L 377.159612 77.887829 
L 377.398881 113.382556 
L 377.635367 68.641992 
L 377.752587 64.76036 
L 377.869135 65.03978 
L 378.100246 67.837201 
L 378.214824 72.445831 
L 378.328761 71.897057 
L 378.442062 66.378386 
L 378.554736 66.926376 
L 378.88906 62.633248 
L 379.108928 59.427471 
L 379.434336 68.607597 
L 379.541659 68.016329 
L 379.648418 64.466235 
L 379.75462 66.396177 
L 379.86027 72.001025 
L 379.965374 70.45054 
L 380.173966 64.586604 
L 380.277466 66.372089 
L 380.482898 82.888355 
L 380.584841 82.337928 
L 380.787206 66.880184 
L 380.887639 67.295546 
L 381.087029 74.256521 
L 381.284483 57.883903 
L 381.382495 56.086298 
L 381.480038 57.380343 
L 381.67373 67.979665 
L 382.337487 46.345448 
L 382.430565 45.985386 
L 382.523219 46.818759 
L 382.798676 50.437864 
L 382.889672 50.178176 
L 382.980263 51.390772 
L 383.070452 51.373754 
L 383.249639 49.417977 
L 383.777917 57.453297 
L 383.951004 58.148478 
L 384.122631 53.971078 
L 384.377384 47.405315 
L 384.712167 44.13057 
L 384.877514 44.691156 
L 385.285095 60.230528 
L 385.36564 59.849032 
L 385.445867 60.124564 
L 385.525779 59.899085 
L 385.605378 58.824442 
L 386.07654 79.81455 
L 386.154017 89.230836 
L 386.231199 87.3617 
L 386.30809 75.651465 
L 386.384691 76.810392 
L 386.461005 78.455164 
L 386.537033 85.973754 
L 386.612779 83.706119 
L 386.763428 79.275139 
L 386.91297 86.623296 
L 386.98733 87.033736 
L 387.135241 74.909569 
L 387.355109 62.815318 
L 387.716354 57.632192 
L 387.930061 54.385281 
L 388.0008 54.31929 
L 388.350853 50.583472 
L 388.626622 54.518041 
L 388.763116 55.579587 
L 388.966155 66.508894 
L 389.233759 87.948344 
L 389.432176 77.112521 
L 389.497887 80.899964 
L 389.563386 83.366301 
L 389.628676 93.140515 
L 389.693756 121.298243 
L 389.887757 75.963634 
L 390.143579 62.150634 
L 390.270293 60.865716 
L 390.583667 70.647488 
L 390.645767 70.398525 
L 390.830936 69.101558 
L 390.892286 69.808503 
L 391.014434 76.446537 
L 391.075234 75.895033 
L 391.135853 74.844804 
L 391.436266 54.813178 
L 391.495819 54.579527 
L 391.614406 52.236569 
L 391.673441 52.249277 
L 391.791 50.906 
L 391.907883 49.462433 
L 391.966073 49.59127 
L 392.024098 49.478946 
L 392.425699 61.18781 
L 392.539001 73.139516 
L 392.707778 106.544936 
L 392.930658 69.774404 
L 393.151122 59.155141 
L 393.314916 63.518726 
L 393.423383 68.27205 
L 393.798527 55.354583 
L 393.851558 55.257442 
L 394.009828 60.337126 
L 394.166876 87.653036 
L 394.218957 112.090033 
L 394.270905 94.17913 
L 394.374404 84.086337 
L 394.425957 88.516036 
L 394.47738 84.664593 
L 394.528672 86.940463 
L 394.579836 88.630569 
L 394.630872 97.025399 
L 394.681779 92.860188 
L 394.783214 81.192523 
L 394.833742 88.275377 
L 394.884145 87.90809 
L 394.934423 83.890286 
L 394.984578 84.265522 
L 395.084517 95.492715 
L 395.134303 92.423425 
L 395.183967 91.909753 
L 395.381421 78.670599 
L 395.430486 79.989569 
L 395.479434 79.655238 
L 395.528263 80.595991 
L 395.722418 72.722756 
L 395.770669 72.494948 
L 395.818805 73.11565 
L 395.866828 72.247586 
L 395.914737 73.187421 
L 396.057793 75.112171 
L 396.105255 72.145548 
L 396.199848 73.099961 
L 396.246981 72.274999 
L 396.294004 74.874947 
L 396.387726 74.32448 
L 396.434425 74.458938 
L 396.481018 74.237301 
L 396.527504 74.721754 
L 396.849964 98.724458 
L 396.895615 94.413812 
L 397.16739 73.665142 
L 397.212335 77.438996 
L 397.301928 76.476775 
L 397.346577 77.049491 
L 397.391128 74.855065 
L 397.479939 74.925165 
L 397.524199 75.142275 
L 397.568363 73.284378 
L 397.656405 73.77107 
L 398.090985 62.743082 
L 397.744067 73.852689 
L 398.133937 63.013219 
L 398.219569 64.229785 
L 398.389759 74.663341 
L 398.516473 89.7623 
L 398.558537 86.307172 
L 398.725925 89.476417 
L 398.850568 120.54377 
L 399.01558 70.135497 
L 399.179264 61.567572 
L 399.21998 63.027389 
L 399.260614 62.400997 
L 399.462578 70.705798 
L 399.622717 89.220669 
L 399.662556 115.013591 
L 399.702317 97.575695 
L 399.899962 78.179818 
L 399.939262 78.862763 
L 400.095706 102.452495 
L 400.173479 123.603636 
L 400.289583 94.626534 
L 400.366619 97.773435 
L 400.405028 96.015436 
L 400.519822 88.317411 
L 400.557943 92.580047 
L 400.595993 88.152992 
L 400.709717 84.399762 
L 400.747484 84.999397 
L 400.935275 76.171302 
L 401.121347 90.606684 
L 401.268989 126.507557 
L 401.305733 126.024 
L 401.488462 91.70844 
L 401.633472 81.419221 
L 401.884778 104.566168 
L 401.956013 123.533651 
L 402.026999 112.654467 
L 402.168233 90.999367 
L 402.238484 91.092876 
L 402.273519 91.248323 
L 402.343407 91.528614 
L 402.378262 88.494742 
L 402.654968 112.520749 
L 402.689293 112.411358 
L 402.72356 102.346798 
L 402.75777 110.388905 
L 402.791922 115.555587 
L 402.826017 105.225496 
L 403.264126 71.668616 
L 403.297439 72.028132 
L 403.46319 80.710919 
L 403.529114 81.629146 
L 403.627601 78.368289 
L 403.692996 79.029512 
L 403.725614 78.313386 
L 404.113008 71.184005 
L 404.144961 72.117692 
L 404.240517 77.070092 
L 404.461752 103.783724 
L 404.524522 104.704044 
L 404.555835 99.010975 
L 404.742705 76.342937 
L 404.866338 79.640122 
L 404.897129 77.640495 
L 404.958572 79.749096 
L 405.01983 79.324444 
L 405.172172 94.518675 
L 405.353489 141.294553 
L 405.592758 84.00846 
L 405.622469 83.433547 
L 405.652138 77.912643 
L 405.740884 79.587553 
L 405.799833 86.535929 
L 405.829244 85.46692 
L 405.946464 96.374244 
L 406.207764 73.550169 
L 406.236591 73.471832 
L 406.265378 73.782284 
L 406.322828 72.251143 
L 406.380117 73.386183 
L 406.465749 74.312933 
L 406.692354 111.626061 
L 406.720503 96.002502 
L 406.860666 81.093894 
L 406.888583 82.695916 
L 406.916462 79.896795 
L 406.972105 81.389158 
L 407.027597 77.802683 
L 407.082937 80.971881 
L 407.110551 81.803265 
L 407.248061 94.228583 
L 407.275451 94.056793 
L 407.302805 94.319678 
L 407.411854 129.186716 
L 407.439025 117.15595 
L 407.628213 93.418195 
L 407.655097 97.746463 
L 407.681945 90.969014 
L 407.708758 91.274624 
L 407.762278 92.511505 
L 407.895465 82.946272 
L 407.921998 84.207121 
L 407.948497 81.074855 
L 408.027786 84.630931 
L 408.133026 89.780502 
L 408.159251 89.697445 
L 408.237724 104.744873 
L 408.289872 103.300332 
L 408.367843 119.735709 
L 408.393768 113.69201 
L 408.419659 143.284517 
L 408.445517 113.204762 
L 408.471343 124.354825 
L 408.574318 92.954316 
L 408.599981 93.229161 
L 408.651209 93.590547 
L 408.72781 86.340007 
L 408.778718 88.961387 
L 408.829498 86.069708 
L 408.854841 84.857724 
L 408.880152 88.129889 
L 408.905432 87.537719 
L 409.031362 95.011272 
L 409.081516 86.091539 
L 409.156516 87.083756 
L 409.355176 102.935584 
L 409.527425 90.616917 
L 409.551913 91.697246 
L 409.576372 90.761666 
L 409.649573 85.31933 
L 409.673915 89.321518 
L 409.89169 110.976497 
L 409.915744 105.817247 
L 409.939769 128.217371 
L 410.035588 117.737127 
L 410.059473 119.652029 
L 410.083329 137.962334 
L 410.107158 119.595159 
L 410.154731 122.578925 
L 410.320367 105.46052 
L 410.367444 110.146551 
L 410.414414 117.725264 
L 410.437857 111.181197 
L 410.461274 105.855555 
L 410.484664 132.877292 
L 410.531364 104.339985 
L 410.554673 113.513117 
L 410.577956 94.611777 
L 410.647645 98.953044 
L 410.670822 114.598145 
L 410.763266 106.840954 
L 410.80933 117.800908 
L 410.878233 113.760226 
L 410.901148 105.993707 
L 410.924038 152.901898 
L 410.992553 109.135726 
L 411.01534 109.619347 
L 411.038102 118.6253 
L 411.060838 103.476162 
L 411.106235 117.189565 
L 411.128895 97.749447 
L 411.219284 105.265205 
L 411.286814 122.019268 
L 411.264329 103.325294 
L 411.331709 106.358117 
L 411.398867 96.982387 
L 411.443516 99.775343 
L 411.532521 106.519053 
L 411.488067 99.346501 
L 411.554711 100.952009 
L 411.576878 100.494916 
L 411.70937 122.691111 
L 411.731369 113.065184 
L 411.753344 142.68533 
L 411.775295 139.961235 
L 411.797222 139.005112 
L 411.862862 113.409197 
L 411.906505 128.800264 
L 411.950055 118.293376 
L 411.993511 133.883301 
L 412.015204 122.919831 
L 412.101748 145.066644 
L 412.187924 145.877994 
L 412.209411 105.899832 
L 412.337859 154.037294 
L 412.359189 115.512523 
L 412.465501 120.34473 
L 412.486697 150.485574 
L 412.529023 112.380876 
L 412.550153 114.401731 
L 412.697452 96.878808 
L 412.718407 103.803674 
L 412.760254 96.757652 
L 412.802015 102.961097 
L 412.822864 99.636663 
L 412.885281 103.829758 
L 412.906044 101.087893 
L 412.988886 97.753589 
L 413.050796 119.517304 
L 413.071391 103.78697 
L 413.091965 128.456004 
L 413.153563 108.719928 
L 413.174054 149.695657 
L 413.255814 118.505967 
L 413.276202 129.518894 
L 413.29657 98.244904 
L 413.316918 103.114042 
L 413.337246 102.071324 
L 413.418353 128.512117 
L 413.438579 109.796275 
L 413.499138 104.555344 
L 413.478972 115.810331 
L 413.519284 106.332788 
L 413.639744 118.827901 
L 413.659751 106.036122 
L 413.679739 145.4898 
L 413.759494 112.898382 
L 413.799255 108.575133 
L 413.878544 152.497508 
L 413.957525 108.600893 
L 413.977222 164.383589 
L 413.996901 119.003427 
L 414.055822 117.248637 
L 414.095008 126.547757 
L 414.153646 104.295791 
L 414.212115 109.451309 
L 414.270417 131.374567 
L 414.289814 108.508537 
L 414.309192 98.747304 
L 414.386522 112.406952 
L 414.425076 105.149939 
L 414.463558 127.073925 
L 414.482772 106.847399 
L 414.540304 147.753528 
L 414.559445 154.364495 
L 414.578568 126.586528 
L 414.616761 115.487033 
L 414.63583 134.947382 
L 414.71193 111.584439 
L 414.73091 124.171321 
L 414.825548 101.262148 
L 414.844423 155.539191 
L 414.938535 116.366049 
L 414.976058 110.83225 
L 415.032213 119.46207 
L 415.050897 111.69145 
L 415.106847 141.089789 
L 415.088214 109.403867 
L 415.144061 115.860484 
L 415.162643 111.610319 
L 415.218286 149.701117 
L 415.273777 137.170251 
L 415.292241 140.616526 
L 415.310688 115.793568 
L 415.402671 121.734527 
L 415.457663 145.335108 
L 415.512506 145.216358 
L 415.530754 115.082886 
L 415.62175 126.886549 
L 415.658034 134.090638 
L 415.694255 120.223154 
L 415.71234 140.623672 
L 415.766502 105.726768 
L 415.802529 131.087418 
L 415.820519 109.226704 
L 415.856452 139.545233 
L 415.910231 126.856804 
L 415.981716 134.769016 
L 416.035166 112.555163 
L 416.106214 160.317461 
L 416.212324 159.679589 
L 416.265172 116.100759 
L 416.335422 129.411532 
L 416.4752 108.832456 
L 416.579407 155.126018 
L 416.596723 130.34652 
L 416.63131 115.701575 
L 416.648582 133.053479 
L 416.665839 131.506559 
L 416.683082 151.775439 
L 416.717523 107.808306 
L 416.751906 113.260724 
L 416.769076 114.239333 
L 416.786231 132.410378 
L 416.820498 108.20713 
L 416.871791 109.238415 
L 416.88886 112.652057 
L 416.905915 152.60961 
L 417.007943 139.763927 
L 417.109462 111.718708 
L 417.126333 127.335523 
L 417.210477 154.283153 
L 417.193676 115.876427 
L 417.227264 122.913134 
L 417.260796 131.702074 
L 417.277542 115.362213 
L 417.344387 131.547982 
L 417.444244 112.285322 
L 417.46084 113.3192 
L 417.477422 168.658654 
L 417.560128 113.436239 
L 417.675356 133.075852 
L 417.691764 126.863644 
L 417.72454 127.891134 
L 417.740908 157.335559 
L 417.80625 122.024175 
L 417.822553 130.47667 
L 417.838842 131.465414 
L 417.871382 166.388191 
L 417.936307 124.147394 
L 418.001025 130.607044 
L 418.017172 116.269537 
L 418.033307 145.180775 
L 418.065537 110.581346 
L 418.129846 144.628437 
L 418.225929 122.233741 
L 418.241899 141.973143 
L 418.257856 146.171733 
L 418.273801 125.702022 
L 418.289733 125.141891 
L 418.305653 125.691793 
L 418.353338 120.587395 
L 418.432565 147.722104 
L 418.55869 118.410703 
L 418.668412 174.477907 
L 418.684038 130.190143 
L 418.699652 130.402844 
L 418.777544 145.903251 
L 418.76199 128.389475 
L 418.808618 144.211835 
L 418.886094 119.187981 
L 418.932439 124.14083 
L 419.009446 155.482982 
L 419.055511 150.287936 
L 419.162591 116.504469 
L 419.177843 128.311314 
L 419.223528 154.272433 
L 419.253928 121.777561 
L 419.284282 139.555193 
L 419.299443 122.336298 
L 419.32973 146.480772 
L 419.390168 144.374466 
L 419.480491 127.171037 
L 419.43538 161.290806 
L 419.510509 128.542907 
L 419.525502 123.893387 
L 419.540484 148.234268 
L 419.585362 132.965525 
L 419.689696 169.414757 
L 419.659941 114.693771 
L 419.704557 145.929832 
L 419.793497 121.896687 
L 419.808283 129.418252 
L 419.852575 163.491801 
L 419.926182 144.718865 
L 419.984877 126.163337 
L 419.955551 147.126724 
L 420.028787 144.028929 
L 420.043402 144.356334 
L 420.10176 122.817535 
L 420.116323 148.444012 
L 420.130876 125.987228 
L 420.145418 172.684212 
L 420.232455 135.629529 
L 420.261385 146.65943 
L 420.275834 138.96933 
L 420.290273 124.774453 
L 420.362316 146.426215 
L 420.391062 151.165784 
L 420.419767 143.55733 
L 420.434104 144.195411 
L 420.519917 127.498847 
L 420.462749 165.463202 
L 420.548441 135.706937 
L 420.591152 161.226132 
L 420.619576 135.563 
L 420.662138 140.947318 
L 420.704612 121.496457 
L 420.789293 159.838524 
L 420.817442 134.286212 
L 420.831502 133.13039 
L 420.859592 145.138276 
L 420.873623 119.601484 
L 420.943632 137.014385 
L 420.985522 133.4537 
L 420.999466 143.222988 
L 421.013401 146.616181 
L 421.041241 132.644705 
L 421.096809 141.748244 
L 421.124535 110.375268 
L 421.138385 81.782176 
L 421.193687 134.460192 
L 421.221282 127.129894 
L 421.303844 160.149797 
L 421.24884 123.528513 
L 421.33129 142.217778 
L 421.399744 125.588253 
L 421.440706 139.970019 
L 421.495193 152.833019 
L 421.522383 123.318341 
L 421.535964 131.276759 
L 421.549536 111.082933 
L 421.563099 113.268864 
" clip-path="url(#p6152fb7fcc)" style="fill: none; stroke: #1f77b4; stroke-width: 1.5; stroke-linecap: square"/>
   </g>
   <g id="patch_8">
    <path d="M 265.393209 182.64351 
L 265.393209 3.00024 
" style="fill: none; stroke: #000000; stroke-width: 0.8; stroke-linejoin: miter; stroke-linecap: square"/>
   </g>
   <g id="patch_9">
    <path d="M 428.99976 182.64351 
L 428.99976 3.00024 
" style="fill: none; stroke: #000000; stroke-width: 0.8; stroke-linejoin: miter; stroke-linecap: square"/>
   </g>
   <g id="patch_10">
    <path d="M 265.393209 182.64351 
L 428.99976 182.64351 
" style="fill: none; stroke: #000000; stroke-width: 0.8; stroke-linejoin: miter; stroke-linecap: square"/>
   </g>
   <g id="patch_11">
    <path d="M 265.393209 3.00024 
L 428.99976 3.00024 
" style="fill: none; stroke: #000000; stroke-width: 0.8; stroke-linejoin: miter; stroke-linecap: square"/>
   </g>
  </g>
 </g>
 <defs>
  <clipPath id="p323a8d1e96">
   <rect x="57.508053" y="3.00024" width="163.606551" height="179.64327"/>
  </clipPath>
  <clipPath id="p6152fb7fcc">
   <rect x="265.393209" y="3.00024" width="163.606551" height="179.64327"/>
  </clipPath>
 </defs>
</svg>
