<?xml version="1.0" encoding="utf-8" standalone="no"?>
<!DOCTYPE svg PUBLIC "-//W3C//DTD SVG 1.1//EN"
  "http://www.w3.org/Graphics/SVG/1.1/DTD/svg11.dtd">
<svg xmlns:xlink="http://www.w3.org/1999/xlink" width="266.4pt" height="266.4pt" viewBox="0 0 266.4 266.4" xmlns="http://www.w3.org/2000/svg" version="1.1">
 <metadata>
  <rdf:RDF xmlns:dc="http://purl.org/dc/elements/1.1/" xmlns:cc="http://creativecommons.org/ns#" xmlns:rdf="http://www.w3.org/1999/02/22-rdf-syntax-ns#">
   <cc:Work>
    <dc:type rdf:resource="http://purl.org/dc/dcmitype/StillImage"/>
    <dc:date>2024-08-26T14:49:23.645782</dc:date>
    <dc:format>image/svg+xml</dc:format>
    <dc:creator>
     <cc:Agent>
      <dc:title>Matplotlib v3.8.4, https://matplotlib.org/</dc:title>
     </cc:Agent>
    </dc:creator>
   </cc:Work>
  </rdf:RDF>
 </metadata>
 <defs>
  <style type="text/css">*{stroke-linejoin: round; stroke-linecap: butt}</style>
 </defs>
 <g id="figure_1">
  <g id="patch_1">
   <path d="M 0 266.4 
L 266.4 266.4 
L 266.4 0 
L 0 0 
L 0 266.4 
z
" style="fill: none"/>
  </g>
  <g id="axes_1">
   <g id="line2d_1">
    <defs>
     <path id="mfeae176837" d="M 0 17.5 
C 4.641054 17.5 9.092648 15.65609 12.374369 12.374369 
C 15.65609 9.092648 17.5 4.641054 17.5 0 
C 17.5 -4.641054 15.65609 -9.092648 12.374369 -12.374369 
C 9.092648 -15.65609 4.641054 -17.5 0 -17.5 
C -4.641054 -17.5 -9.092648 -15.65609 -12.374369 -12.374369 
C -15.65609 -9.092648 -17.5 -4.641054 -17.5 0 
C -17.5 4.641054 -15.65609 9.092648 -12.374369 12.374369 
C -9.092648 15.65609 -4.641054 17.5 0 17.5 
z
" style="stroke: #fab92a"/>
    </defs>
    <g clip-path="url(#p654ecafa20)">
     <use xlink:href="#mfeae176837" x="69.318" y="69.318" style="fill: #fab92a; stroke: #fab92a"/>
     <use xlink:href="#mfeae176837" x="133.2" y="133.2" style="fill: #fab92a; stroke: #fab92a"/>
     <use xlink:href="#mfeae176837" x="197.082" y="197.082" style="fill: #fab92a; stroke: #fab92a"/>
    </g>
   </g>
   <g id="line2d_2">
    <defs>
     <path id="m3c8b8314db" d="M 0 17.5 
C 4.641054 17.5 9.092648 15.65609 12.374369 12.374369 
C 15.65609 9.092648 17.5 4.641054 17.5 0 
C 17.5 -4.641054 15.65609 -9.092648 12.374369 -12.374369 
C 9.092648 -15.65609 4.641054 -17.5 0 -17.5 
C -4.641054 -17.5 -9.092648 -15.65609 -12.374369 -12.374369 
C -15.65609 -9.092648 -17.5 -4.641054 -17.5 0 
C -17.5 4.641054 -15.65609 9.092648 -12.374369 12.374369 
C -9.092648 15.65609 -4.641054 17.5 0 17.5 
z
" style="stroke: #b2b2b2"/>
    </defs>
    <g clip-path="url(#p654ecafa20)">
     <use xlink:href="#m3c8b8314db" x="133.2" y="69.318" style="fill: #b2b2b2; stroke: #b2b2b2"/>
     <use xlink:href="#m3c8b8314db" x="197.082" y="133.2" style="fill: #b2b2b2; stroke: #b2b2b2"/>
    </g>
   </g>
   <g id="line2d_3">
    <defs>
     <path id="md45bee7f32" d="M 0 17.5 
C 4.641054 17.5 9.092648 15.65609 12.374369 12.374369 
C 15.65609 9.092648 17.5 4.641054 17.5 0 
C 17.5 -4.641054 15.65609 -9.092648 12.374369 -12.374369 
C 9.092648 -15.65609 4.641054 -17.5 0 -17.5 
C -4.641054 -17.5 -9.092648 -15.65609 -12.374369 -12.374369 
C -15.65609 -9.092648 -17.5 -4.641054 -17.5 0 
C -17.5 4.641054 -15.65609 9.092648 -12.374369 12.374369 
C -9.092648 15.65609 -4.641054 17.5 0 17.5 
z
" style="stroke: #3b97ad"/>
    </defs>
    <g clip-path="url(#p654ecafa20)">
     <use xlink:href="#md45bee7f32" x="197.082" y="69.318" style="fill: #3b97ad; stroke: #3b97ad"/>
    </g>
   </g>
   <g id="PolyCollection_1">
    <defs>
     <path id="m8854f46052" d="M 21.1608 -21.1608 
L 21.1608 -245.2392 
L 245.2392 -21.1608 
L 245.2392 -21.1608 
L 245.2392 -21.1608 
L 21.1608 -21.1608 
z
"/>
    </defs>
    <g>
     <use xlink:href="#m8854f46052" x="0" y="266.4" style="fill: #3b97ad"/>
    </g>
   </g>
  </g>
  <g id="axes_2">
   <g id="line2d_4">
    <path d="M 243.163636 243.163636 
L 23.236364 243.163636 
L 23.236364 23.236364 
L 243.163636 23.236364 
" style="fill: none; stroke: #3b97ad; stroke-width: 25; stroke-linecap: round"/>
   </g>
   <g id="line2d_5">
    <path d="M 23.236364 243.163636 
L 243.163636 243.163636 
L 243.163636 23.236364 
L 23.236364 23.236364 
" style="fill: none; stroke: #3b97ad; stroke-width: 25; stroke-linecap: round"/>
   </g>
  </g>
  <g id="axes_3">
   <g id="text_1">
    <!-- cov -->
    <g style="fill: #ffffff" transform="translate(50.411681 165.250065) rotate(-45) scale(0.4 -0.4)">
     <defs>
      <path id="UbuntuSansMono-Bold-63" d="M 2266 -77 
Q 1574 -77 1145 156 
Q 717 390 515 790 
Q 314 1190 314 1683 
Q 314 2048 429 2371 
Q 544 2694 781 2937 
Q 1018 3181 1382 3318 
Q 1747 3456 2246 3456 
Q 2547 3456 2790 3414 
Q 3034 3373 3283 3270 
L 3091 2560 
Q 2950 2611 2774 2649 
Q 2598 2688 2323 2688 
Q 1907 2688 1660 2557 
Q 1414 2426 1312 2202 
Q 1210 1978 1210 1683 
Q 1210 1376 1325 1155 
Q 1440 934 1696 812 
Q 1952 691 2368 691 
Q 2573 691 2803 720 
Q 3034 749 3213 813 
L 3341 83 
Q 3219 38 3059 3 
Q 2899 -32 2700 -54 
Q 2502 -77 2266 -77 
z
" transform="scale(0.015625)"/>
      <path id="UbuntuSansMono-Bold-6f" d="M 1798 -96 
Q 1325 -96 966 131 
Q 608 358 406 761 
Q 205 1165 205 1690 
Q 205 2221 413 2617 
Q 621 3014 979 3235 
Q 1338 3456 1798 3456 
Q 2272 3456 2627 3235 
Q 2982 3014 3184 2617 
Q 3386 2221 3386 1690 
Q 3386 1165 3187 761 
Q 2989 358 2633 131 
Q 2278 -96 1798 -96 
z
M 1786 672 
Q 2016 672 2173 800 
Q 2330 928 2406 1155 
Q 2483 1382 2483 1683 
Q 2483 1984 2409 2211 
Q 2336 2438 2185 2563 
Q 2035 2688 1798 2688 
Q 1574 2688 1417 2563 
Q 1261 2438 1181 2211 
Q 1101 1984 1101 1683 
Q 1101 1382 1174 1155 
Q 1248 928 1398 800 
Q 1549 672 1786 672 
z
" transform="scale(0.015625)"/>
      <path id="UbuntuSansMono-Bold-76" d="M 1389 0 
Q 1178 422 954 950 
Q 730 1478 515 2086 
Q 301 2694 102 3366 
L 1024 3366 
Q 1114 3008 1242 2585 
Q 1370 2163 1510 1756 
Q 1651 1350 1773 1024 
Q 1862 1267 1974 1558 
Q 2086 1850 2201 2166 
Q 2317 2483 2419 2790 
Q 2522 3098 2586 3366 
L 3482 3366 
Q 3334 2861 3164 2390 
Q 2995 1920 2819 1494 
Q 2643 1069 2467 694 
Q 2291 320 2131 0 
L 1389 0 
z
" transform="scale(0.015625)"/>
     </defs>
     <use xlink:href="#UbuntuSansMono-Bold-63"/>
     <use xlink:href="#UbuntuSansMono-Bold-6f" x="55.999985"/>
     <use xlink:href="#UbuntuSansMono-Bold-76" x="111.999969"/>
    </g>
    <!-- seis -->
    <g style="fill: #ffffff" transform="translate(65.971566 212.488333) rotate(-45) scale(0.4 -0.4)">
     <defs>
      <path id="UbuntuSansMono-Bold-73" d="M 1626 -77 
Q 1338 -77 1104 -29 
Q 870 19 691 83 
Q 512 147 384 198 
L 525 941 
Q 768 845 1056 755 
Q 1344 666 1632 666 
Q 1958 666 2131 714 
Q 2304 762 2304 902 
Q 2304 1030 2208 1104 
Q 2112 1178 1955 1235 
Q 1798 1293 1613 1350 
Q 1421 1408 1219 1481 
Q 1018 1555 851 1670 
Q 685 1786 579 1962 
Q 474 2138 474 2400 
Q 474 2688 624 2928 
Q 774 3168 1091 3312 
Q 1408 3456 1914 3456 
Q 2240 3456 2525 3405 
Q 2810 3354 3021 3264 
L 2880 2515 
Q 2803 2541 2656 2589 
Q 2509 2637 2320 2675 
Q 2131 2714 1920 2714 
Q 1587 2714 1468 2634 
Q 1350 2554 1350 2458 
Q 1350 2355 1440 2278 
Q 1530 2202 1680 2144 
Q 1830 2086 2010 2022 
Q 2202 1958 2406 1878 
Q 2611 1798 2784 1680 
Q 2957 1562 3062 1382 
Q 3168 1203 3168 934 
Q 3168 653 3021 422 
Q 2874 192 2538 57 
Q 2202 -77 1626 -77 
z
" transform="scale(0.015625)"/>
      <path id="UbuntuSansMono-Bold-65" d="M 2074 -77 
Q 1504 -77 1088 118 
Q 672 314 448 701 
Q 224 1088 224 1658 
Q 224 2106 355 2442 
Q 486 2778 713 3005 
Q 941 3232 1225 3344 
Q 1510 3456 1811 3456 
Q 2310 3456 2649 3257 
Q 2989 3059 3161 2675 
Q 3334 2291 3334 1728 
Q 3334 1645 3331 1552 
Q 3328 1459 3322 1395 
L 1133 1395 
Q 1133 1069 1405 880 
Q 1677 691 2106 691 
Q 2368 691 2614 745 
Q 2861 800 3021 858 
L 3142 109 
Q 2918 26 2656 -25 
Q 2394 -77 2074 -77 
z
M 1133 2010 
L 2483 2010 
Q 2483 2189 2419 2349 
Q 2355 2509 2211 2611 
Q 2067 2714 1830 2714 
Q 1600 2714 1453 2614 
Q 1306 2515 1229 2355 
Q 1152 2195 1133 2010 
z
" transform="scale(0.015625)"/>
      <path id="UbuntuSansMono-Bold-69" d="M 2394 -77 
Q 1939 -77 1673 99 
Q 1408 275 1299 604 
Q 1190 934 1190 1395 
L 1190 2637 
L 256 2637 
L 256 3366 
L 2074 3366 
L 2074 1280 
Q 2074 1082 2122 950 
Q 2170 819 2275 755 
Q 2381 691 2554 691 
Q 2669 691 2841 720 
Q 3014 749 3232 851 
L 3347 141 
Q 3168 58 3001 10 
Q 2835 -38 2681 -57 
Q 2528 -77 2394 -77 
z
M 1510 3840 
Q 1286 3840 1120 3993 
Q 954 4147 954 4403 
Q 954 4666 1120 4816 
Q 1286 4966 1510 4966 
Q 1734 4966 1900 4816 
Q 2067 4666 2067 4403 
Q 2067 4147 1900 3993 
Q 1734 3840 1510 3840 
z
" transform="scale(0.015625)"/>
     </defs>
     <use xlink:href="#UbuntuSansMono-Bold-73"/>
     <use xlink:href="#UbuntuSansMono-Bold-65" x="55.999985"/>
     <use xlink:href="#UbuntuSansMono-Bold-69" x="111.999969"/>
     <use xlink:href="#UbuntuSansMono-Bold-73" x="167.999954"/>
    </g>
    <!-- net -->
    <g style="fill: #ffffff" transform="translate(113.209834 228.048218) rotate(-45) scale(0.4 -0.4)">
     <defs>
      <path id="UbuntuSansMono-Bold-6e" d="M 454 0 
L 454 3264 
Q 691 3328 1040 3385 
Q 1389 3443 1792 3443 
Q 2330 3443 2627 3248 
Q 2925 3053 3043 2707 
Q 3162 2362 3162 1901 
L 3162 0 
L 2278 0 
L 2278 1786 
Q 2278 2099 2233 2294 
Q 2189 2490 2070 2582 
Q 1952 2675 1734 2675 
Q 1638 2675 1539 2665 
Q 1440 2656 1331 2643 
L 1331 0 
L 454 0 
z
" transform="scale(0.015625)"/>
      <path id="UbuntuSansMono-Bold-74" d="M 2310 -77 
Q 1901 -77 1613 19 
Q 1325 115 1174 403 
Q 1024 691 1024 1254 
L 1024 2637 
L 256 2637 
L 256 3366 
L 1024 3366 
L 1024 4218 
L 1907 4358 
L 1907 3366 
L 3322 3366 
L 3322 2637 
L 1907 2637 
L 1907 1274 
Q 1907 1024 1968 899 
Q 2029 774 2144 732 
Q 2259 691 2406 691 
Q 2656 691 2835 723 
Q 3014 755 3264 870 
L 3386 109 
Q 3142 6 2857 -35 
Q 2573 -77 2310 -77 
z
" transform="scale(0.015625)"/>
     </defs>
     <use xlink:href="#UbuntuSansMono-Bold-6e"/>
     <use xlink:href="#UbuntuSansMono-Bold-65" x="55.999985"/>
     <use xlink:href="#UbuntuSansMono-Bold-74" x="111.999969"/>
    </g>
   </g>
  </g>
 </g>
 <defs>
  <clipPath id="p654ecafa20">
   <rect x="34.92" y="34.92" width="196.56" height="196.56"/>
  </clipPath>
 </defs>
</svg>
