<?xml version="1.0" encoding="utf-8" standalone="no"?>
<!DOCTYPE svg PUBLIC "-//W3C//DTD SVG 1.1//EN"
  "http://www.w3.org/Graphics/SVG/1.1/DTD/svg11.dtd">
<svg xmlns:xlink="http://www.w3.org/1999/xlink" width="266.4pt" height="311.76pt" viewBox="0 0 266.4 311.76" xmlns="http://www.w3.org/2000/svg" version="1.1">
 <metadata>
  <rdf:RDF xmlns:dc="http://purl.org/dc/elements/1.1/" xmlns:cc="http://creativecommons.org/ns#" xmlns:rdf="http://www.w3.org/1999/02/22-rdf-syntax-ns#">
   <cc:Work>
    <dc:type rdf:resource="http://purl.org/dc/dcmitype/StillImage"/>
    <dc:date>2024-07-11T23:20:04.940599</dc:date>
    <dc:format>image/svg+xml</dc:format>
    <dc:creator>
     <cc:Agent>
      <dc:title>Matplotlib v3.8.0, https://matplotlib.org/</dc:title>
     </cc:Agent>
    </dc:creator>
   </cc:Work>
  </rdf:RDF>
 </metadata>
 <defs>
  <style type="text/css">*{stroke-linejoin: round; stroke-linecap: butt}</style>
 </defs>
 <g id="figure_1">
  <g id="patch_1">
   <path d="M 0 311.76 
L 266.4 311.76 
L 266.4 -0 
L 0 -0 
L 0 311.76 
z
" style="fill: none"/>
  </g>
  <g id="axes_1">
   <g id="line2d_1">
    <defs>
     <path id="mb25caa2b76" d="M 0 17.5 
C 4.641054 17.5 9.092648 15.65609 12.374369 12.374369 
C 15.65609 9.092648 17.5 4.641054 17.5 0 
C 17.5 -4.641054 15.65609 -9.092648 12.374369 -12.374369 
C 9.092648 -15.65609 4.641054 -17.5 0 -17.5 
C -4.641054 -17.5 -9.092648 -15.65609 -12.374369 -12.374369 
C -15.65609 -9.092648 -17.5 -4.641054 -17.5 0 
C -17.5 4.641054 -15.65609 9.092648 -12.374369 12.374369 
C -9.092648 15.65609 -4.641054 17.5 0 17.5 
z
" style="stroke: #fab92a"/>
    </defs>
    <g clip-path="url(#pb1a56227da)">
     <use xlink:href="#mb25caa2b76" x="69.318" y="64.278" style="fill: #fab92a; stroke: #fab92a"/>
     <use xlink:href="#mb25caa2b76" x="133.2" y="128.16" style="fill: #fab92a; stroke: #fab92a"/>
     <use xlink:href="#mb25caa2b76" x="197.082" y="192.042" style="fill: #fab92a; stroke: #fab92a"/>
    </g>
   </g>
   <g id="line2d_2">
    <defs>
     <path id="ma227eaa4fc" d="M 0 17.5 
C 4.641054 17.5 9.092648 15.65609 12.374369 12.374369 
C 15.65609 9.092648 17.5 4.641054 17.5 0 
C 17.5 -4.641054 15.65609 -9.092648 12.374369 -12.374369 
C 9.092648 -15.65609 4.641054 -17.5 0 -17.5 
C -4.641054 -17.5 -9.092648 -15.65609 -12.374369 -12.374369 
C -15.65609 -9.092648 -17.5 -4.641054 -17.5 0 
C -17.5 4.641054 -15.65609 9.092648 -12.374369 12.374369 
C -9.092648 15.65609 -4.641054 17.5 0 17.5 
z
" style="stroke: #b2b2b2"/>
    </defs>
    <g clip-path="url(#pb1a56227da)">
     <use xlink:href="#ma227eaa4fc" x="133.2" y="64.278" style="fill: #b2b2b2; stroke: #b2b2b2"/>
     <use xlink:href="#ma227eaa4fc" x="197.082" y="128.16" style="fill: #b2b2b2; stroke: #b2b2b2"/>
    </g>
   </g>
   <g id="line2d_3">
    <g clip-path="url(#pb1a56227da)">
     <use xlink:href="#ma227eaa4fc" x="69.318" y="128.16" style="fill: #b2b2b2; stroke: #b2b2b2"/>
     <use xlink:href="#ma227eaa4fc" x="133.2" y="192.042" style="fill: #b2b2b2; stroke: #b2b2b2"/>
    </g>
   </g>
   <g id="line2d_4">
    <defs>
     <path id="me980b4545f" d="M 0 17.5 
C 4.641054 17.5 9.092648 15.65609 12.374369 12.374369 
C 15.65609 9.092648 17.5 4.641054 17.5 0 
C 17.5 -4.641054 15.65609 -9.092648 12.374369 -12.374369 
C 9.092648 -15.65609 4.641054 -17.5 0 -17.5 
C -4.641054 -17.5 -9.092648 -15.65609 -12.374369 -12.374369 
C -15.65609 -9.092648 -17.5 -4.641054 -17.5 0 
C -17.5 4.641054 -15.65609 9.092648 -12.374369 12.374369 
C -9.092648 15.65609 -4.641054 17.5 0 17.5 
z
" style="stroke: #19807c"/>
    </defs>
    <g clip-path="url(#pb1a56227da)">
     <use xlink:href="#me980b4545f" x="197.082" y="64.278" style="fill: #19807c; stroke: #19807c"/>
    </g>
   </g>
   <g id="line2d_5">
    <defs>
     <path id="mb7f66a5164" d="M 0 0 
L 0 17.5 
M 0 0 
L 14 -8.75 
M 0 0 
L -14 -8.75 
" style="stroke: #19807c; stroke-width: 7"/>
    </defs>
    <g clip-path="url(#pb1a56227da)">
     <use xlink:href="#mb7f66a5164" x="69.318" y="192.042" style="fill: #19807c; stroke: #19807c; stroke-width: 7"/>
    </g>
   </g>
   <g id="line2d_6">
    <defs>
     <path id="m20ac286954" d="M 0 0 
L 0 -17.5 
M 0 0 
L -14 8.75 
M 0 0 
L 14 8.75 
" style="stroke: #19807c; stroke-width: 7"/>
    </defs>
    <g clip-path="url(#pb1a56227da)">
     <use xlink:href="#m20ac286954" x="69.318" y="192.042" style="fill: #19807c; stroke: #19807c; stroke-width: 7"/>
    </g>
   </g>
   <g id="PolyCollection_1">
    <defs>
     <path id="mc8792a7815" d="M 21.1608 -71.5608 
L 21.1608 -295.6392 
L 245.2392 -71.5608 
L 245.2392 -71.5608 
L 245.2392 -71.5608 
L 21.1608 -71.5608 
z
"/>
    </defs>
    <g>
     <use xlink:href="#mc8792a7815" x="0" y="311.76" style="fill: #b2b2b2; fill-opacity: 0.3"/>
    </g>
   </g>
  </g>
  <g id="axes_2">
   <g id="line2d_7">
    <path d="M 243.163636 238.123636 
L 23.236364 238.123636 
L 23.236364 18.196364 
L 243.163636 18.196364 
" clip-path="url(#p2e1bc48e3e)" style="fill: none; stroke: #19807c; stroke-width: 10; stroke-linecap: round"/>
   </g>
   <g id="line2d_8">
    <path d="M 23.236364 238.123636 
L 243.163636 238.123636 
L 243.163636 18.196364 
L 23.236364 18.196364 
" clip-path="url(#p2e1bc48e3e)" style="fill: none; stroke: #19807c; stroke-width: 10; stroke-linecap: round"/>
   </g>
  </g>
  <g id="axes_3">
   <g id="text_1">
    <!-- covseisnet -->
    <g style="fill: #19807c" transform="translate(18.059766 292.656094) scale(0.45 -0.45)">
     <defs>
      <path id="Ubuntu-Bold-63" d="M 288 1683 
Q 288 2048 406 2371 
Q 525 2694 749 2934 
Q 973 3174 1293 3315 
Q 1613 3456 2022 3456 
Q 2291 3456 2515 3408 
Q 2739 3360 2950 3270 
L 2752 2509 
Q 2618 2560 2458 2598 
Q 2298 2637 2099 2637 
Q 1677 2637 1469 2374 
Q 1261 2112 1261 1683 
Q 1261 1229 1456 979 
Q 1651 730 2138 730 
Q 2310 730 2508 762 
Q 2707 794 2874 864 
L 3008 83 
Q 2842 13 2592 -38 
Q 2342 -90 2042 -90 
Q 1581 -90 1248 48 
Q 915 186 700 422 
Q 486 659 387 982 
Q 288 1306 288 1683 
z
" transform="scale(0.015625)"/>
      <path id="Ubuntu-Bold-6f" d="M 3597 1690 
Q 3597 1293 3481 963 
Q 3366 634 3148 400 
Q 2931 166 2627 38 
Q 2323 -90 1946 -90 
Q 1574 -90 1270 38 
Q 966 166 748 400 
Q 531 634 409 963 
Q 288 1293 288 1690 
Q 288 2086 413 2412 
Q 538 2739 758 2969 
Q 979 3200 1283 3328 
Q 1587 3456 1946 3456 
Q 2310 3456 2614 3328 
Q 2918 3200 3136 2969 
Q 3354 2739 3475 2412 
Q 3597 2086 3597 1690 
z
M 2624 1690 
Q 2624 2131 2448 2384 
Q 2272 2637 1946 2637 
Q 1619 2637 1440 2384 
Q 1261 2131 1261 1690 
Q 1261 1248 1440 989 
Q 1619 730 1946 730 
Q 2272 730 2448 989 
Q 2624 1248 2624 1690 
z
" transform="scale(0.015625)"/>
      <path id="Ubuntu-Bold-76" d="M 1363 0 
Q 1037 640 701 1497 
Q 365 2355 64 3366 
L 1075 3366 
Q 1139 3117 1225 2825 
Q 1312 2534 1405 2236 
Q 1498 1939 1590 1657 
Q 1683 1376 1773 1146 
Q 1856 1376 1952 1657 
Q 2048 1939 2141 2236 
Q 2234 2534 2320 2825 
Q 2406 3117 2470 3366 
L 3456 3366 
Q 3155 2355 2819 1497 
Q 2483 640 2157 0 
L 1363 0 
z
" transform="scale(0.015625)"/>
      <path id="Ubuntu-Bold-73" d="M 1414 685 
Q 1677 685 1785 736 
Q 1894 787 1894 934 
Q 1894 1050 1753 1136 
Q 1613 1222 1325 1331 
Q 1101 1414 918 1504 
Q 736 1594 608 1718 
Q 480 1843 409 2016 
Q 339 2189 339 2432 
Q 339 2906 691 3181 
Q 1043 3456 1658 3456 
Q 1965 3456 2246 3401 
Q 2528 3347 2694 3283 
L 2528 2541 
Q 2362 2598 2166 2643 
Q 1971 2688 1728 2688 
Q 1280 2688 1280 2438 
Q 1280 2381 1299 2336 
Q 1318 2291 1376 2249 
Q 1434 2208 1533 2160 
Q 1632 2112 1786 2054 
Q 2099 1939 2304 1827 
Q 2509 1715 2627 1584 
Q 2746 1453 2794 1293 
Q 2842 1133 2842 922 
Q 2842 422 2467 166 
Q 2093 -90 1408 -90 
Q 960 -90 662 -13 
Q 365 64 250 115 
L 410 890 
Q 653 794 909 739 
Q 1165 685 1414 685 
z
" transform="scale(0.015625)"/>
      <path id="Ubuntu-Bold-65" d="M 288 1658 
Q 288 2106 425 2442 
Q 563 2778 787 3002 
Q 1011 3226 1302 3341 
Q 1594 3456 1901 3456 
Q 2618 3456 3034 3017 
Q 3450 2579 3450 1728 
Q 3450 1645 3443 1545 
Q 3437 1446 3430 1370 
L 1267 1370 
Q 1299 1075 1542 902 
Q 1786 730 2195 730 
Q 2458 730 2710 778 
Q 2963 826 3123 896 
L 3251 122 
Q 3174 83 3046 44 
Q 2918 6 2761 -22 
Q 2605 -51 2425 -70 
Q 2246 -90 2067 -90 
Q 1613 -90 1277 44 
Q 941 179 720 412 
Q 499 646 393 966 
Q 288 1286 288 1658 
z
M 2528 2022 
Q 2522 2144 2486 2259 
Q 2451 2374 2377 2464 
Q 2304 2554 2192 2611 
Q 2080 2669 1914 2669 
Q 1754 2669 1638 2614 
Q 1523 2560 1446 2470 
Q 1370 2381 1328 2262 
Q 1286 2144 1267 2022 
L 2528 2022 
z
" transform="scale(0.015625)"/>
      <path id="Ubuntu-Bold-69" d="M 1402 0 
L 448 0 
L 448 3366 
L 1402 3366 
L 1402 0 
z
M 1491 4339 
Q 1491 4077 1321 3926 
Q 1152 3776 922 3776 
Q 691 3776 521 3926 
Q 352 4077 352 4339 
Q 352 4602 521 4752 
Q 691 4902 922 4902 
Q 1152 4902 1321 4752 
Q 1491 4602 1491 4339 
z
" transform="scale(0.015625)"/>
      <path id="Ubuntu-Bold-6e" d="M 448 3251 
Q 691 3322 1075 3382 
Q 1459 3443 1882 3443 
Q 2310 3443 2595 3331 
Q 2880 3219 3046 3014 
Q 3213 2810 3283 2528 
Q 3354 2246 3354 1901 
L 3354 0 
L 2400 0 
L 2400 1786 
Q 2400 2246 2278 2438 
Q 2157 2630 1824 2630 
Q 1722 2630 1606 2620 
Q 1491 2611 1402 2598 
L 1402 0 
L 448 0 
L 448 3251 
z
" transform="scale(0.015625)"/>
      <path id="Ubuntu-Bold-74" d="M 416 4205 
L 1370 4358 
L 1370 3366 
L 2515 3366 
L 2515 2573 
L 1370 2573 
L 1370 1389 
Q 1370 1088 1475 909 
Q 1581 730 1901 730 
Q 2054 730 2217 758 
Q 2381 787 2515 838 
L 2650 96 
Q 2477 26 2265 -25 
Q 2054 -77 1747 -77 
Q 1357 -77 1101 28 
Q 845 134 691 323 
Q 538 512 477 781 
Q 416 1050 416 1376 
L 416 4205 
z
" transform="scale(0.015625)"/>
     </defs>
     <use xlink:href="#Ubuntu-Bold-63"/>
     <use xlink:href="#Ubuntu-Bold-6f" x="49.999985"/>
     <use xlink:href="#Ubuntu-Bold-76" x="110.699982"/>
     <use xlink:href="#Ubuntu-Bold-73" x="165.699966"/>
     <use xlink:href="#Ubuntu-Bold-65" x="214.199951"/>
     <use xlink:href="#Ubuntu-Bold-69" x="272.599945"/>
     <use xlink:href="#Ubuntu-Bold-73" x="301.499939"/>
     <use xlink:href="#Ubuntu-Bold-6e" x="349.999924"/>
     <use xlink:href="#Ubuntu-Bold-65" x="408.899918"/>
     <use xlink:href="#Ubuntu-Bold-74" x="467.299911"/>
    </g>
   </g>
  </g>
 </g>
 <defs>
  <clipPath id="pb1a56227da">
   <rect x="34.92" y="29.88" width="196.56" height="196.56"/>
  </clipPath>
  <clipPath id="p2e1bc48e3e">
   <rect x="12.24" y="7.2" width="241.92" height="241.92"/>
  </clipPath>
 </defs>
</svg>
