<?xml version="1.0" encoding="utf-8" standalone="no"?>
<!DOCTYPE svg PUBLIC "-//W3C//DTD SVG 1.1//EN"
  "http://www.w3.org/Graphics/SVG/1.1/DTD/svg11.dtd">
<svg xmlns:xlink="http://www.w3.org/1999/xlink" width="210.96pt" height="210.96pt" viewBox="0 0 210.96 210.96" xmlns="http://www.w3.org/2000/svg" version="1.1">
 <metadata>
  <rdf:RDF xmlns:dc="http://purl.org/dc/elements/1.1/" xmlns:cc="http://creativecommons.org/ns#" xmlns:rdf="http://www.w3.org/1999/02/22-rdf-syntax-ns#">
   <cc:Work>
    <dc:type rdf:resource="http://purl.org/dc/dcmitype/StillImage"/>
    <dc:date>2024-08-26T14:49:23.671139</dc:date>
    <dc:format>image/svg+xml</dc:format>
    <dc:creator>
     <cc:Agent>
      <dc:title>Matplotlib v3.8.4, https://matplotlib.org/</dc:title>
     </cc:Agent>
    </dc:creator>
   </cc:Work>
  </rdf:RDF>
 </metadata>
 <defs>
  <style type="text/css">*{stroke-linejoin: round; stroke-linecap: butt}</style>
 </defs>
 <g id="figure_1">
  <g id="patch_1">
   <path d="M 0 210.96 
L 210.96 210.96 
L 210.96 0 
L 0 0 
L 0 210.96 
z
" style="fill: none"/>
  </g>
  <g id="axes_1">
   <g id="line2d_1">
    <defs>
     <path id="mb57bee61c6" d="M 0 30 
C 7.956093 30 15.587396 26.839011 21.213203 21.213203 
C 26.839011 15.587396 30 7.956093 30 0 
C 30 -7.956093 26.839011 -15.587396 21.213203 -21.213203 
C 15.587396 -26.839011 7.956093 -30 0 -30 
C -7.956093 -30 -15.587396 -26.839011 -21.213203 -21.213203 
C -26.839011 -15.587396 -30 -7.956093 -30 0 
C -30 7.956093 -26.839011 15.587396 -21.213203 21.213203 
C -15.587396 26.839011 -7.956093 30 0 30 
z
" style="stroke: #fab92a; stroke-width: 10"/>
    </defs>
    <g clip-path="url(#p4f726c1cbf)">
     <use xlink:href="#mb57bee61c6" x="105.48" y="105.48" style="fill: #fab92a; stroke: #fab92a; stroke-width: 10"/>
    </g>
   </g>
   <g id="PolyCollection_1">
    <defs>
     <path id="m408e97b241" d="M 26.856 -26.856 
L 26.856 -184.104 
L 184.104 -26.856 
L 184.104 -26.856 
L 184.104 -26.856 
L 26.856 -26.856 
z
"/>
    </defs>
    <g>
     <use xlink:href="#m408e97b241" x="0" y="210.96" style="fill: #3b97ad"/>
    </g>
   </g>
  </g>
  <g id="axes_2">
   <g id="line2d_2">
    <path d="M 185.661818 185.661818 
L 25.298182 185.661818 
L 25.298182 25.298182 
L 185.661818 25.298182 
" style="fill: none; stroke: #3b97ad; stroke-width: 40; stroke-linecap: round"/>
   </g>
   <g id="line2d_3">
    <path d="M 25.298182 185.661818 
L 185.661818 185.661818 
L 185.661818 25.298182 
L 25.298182 25.298182 
" style="fill: none; stroke: #3b97ad; stroke-width: 40; stroke-linecap: round"/>
   </g>
  </g>
 </g>
 <defs>
  <clipPath id="p4f726c1cbf">
   <rect x="7.2" y="7.2" width="196.56" height="196.56"/>
  </clipPath>
 </defs>
</svg>
