<?xml version="1.0" encoding="utf-8" standalone="no"?>
<!DOCTYPE svg PUBLIC "-//W3C//DTD SVG 1.1//EN"
  "http://www.w3.org/Graphics/SVG/1.1/DTD/svg11.dtd">
<svg xmlns:xlink="http://www.w3.org/1999/xlink" width="862.09125pt" height="266.4pt" viewBox="0 0 862.09125 266.4" xmlns="http://www.w3.org/2000/svg" version="1.1">
 <metadata>
  <rdf:RDF xmlns:dc="http://purl.org/dc/elements/1.1/" xmlns:cc="http://creativecommons.org/ns#" xmlns:rdf="http://www.w3.org/1999/02/22-rdf-syntax-ns#">
   <cc:Work>
    <dc:type rdf:resource="http://purl.org/dc/dcmitype/StillImage"/>
    <dc:date>2024-07-18T12:38:40.867695</dc:date>
    <dc:format>image/svg+xml</dc:format>
    <dc:creator>
     <cc:Agent>
      <dc:title>Matplotlib v3.8.4, https://matplotlib.org/</dc:title>
     </cc:Agent>
    </dc:creator>
   </cc:Work>
  </rdf:RDF>
 </metadata>
 <defs>
  <style type="text/css">*{stroke-linejoin: round; stroke-linecap: butt}</style>
 </defs>
 <g id="figure_1">
  <g id="patch_1">
   <path d="M 0 266.4 
L 862.09125 266.4 
L 862.09125 0 
L 0 0 
L 0 266.4 
z
" style="fill: none"/>
  </g>
  <g id="axes_1">
   <g id="line2d_1">
    <defs>
     <path id="mf8af7c7e95" d="M 0 17.5 
C 4.641054 17.5 9.092648 15.65609 12.374369 12.374369 
C 15.65609 9.092648 17.5 4.641054 17.5 0 
C 17.5 -4.641054 15.65609 -9.092648 12.374369 -12.374369 
C 9.092648 -15.65609 4.641054 -17.5 0 -17.5 
C -4.641054 -17.5 -9.092648 -15.65609 -12.374369 -12.374369 
C -15.65609 -9.092648 -17.5 -4.641054 -17.5 0 
C -17.5 4.641054 -15.65609 9.092648 -12.374369 12.374369 
C -9.092648 15.65609 -4.641054 17.5 0 17.5 
z
" style="stroke: #fab92a"/>
    </defs>
    <g clip-path="url(#p9f88f458d4)">
     <use xlink:href="#mf8af7c7e95" x="64.278" y="69.318" style="fill: #fab92a; stroke: #fab92a"/>
     <use xlink:href="#mf8af7c7e95" x="128.16" y="133.2" style="fill: #fab92a; stroke: #fab92a"/>
     <use xlink:href="#mf8af7c7e95" x="192.042" y="197.082" style="fill: #fab92a; stroke: #fab92a"/>
    </g>
   </g>
   <g id="line2d_2">
    <defs>
     <path id="me1146fbc1e" d="M 0 17.5 
C 4.641054 17.5 9.092648 15.65609 12.374369 12.374369 
C 15.65609 9.092648 17.5 4.641054 17.5 0 
C 17.5 -4.641054 15.65609 -9.092648 12.374369 -12.374369 
C 9.092648 -15.65609 4.641054 -17.5 0 -17.5 
C -4.641054 -17.5 -9.092648 -15.65609 -12.374369 -12.374369 
C -15.65609 -9.092648 -17.5 -4.641054 -17.5 0 
C -17.5 4.641054 -15.65609 9.092648 -12.374369 12.374369 
C -9.092648 15.65609 -4.641054 17.5 0 17.5 
z
" style="stroke: #b2b2b2"/>
    </defs>
    <g clip-path="url(#p9f88f458d4)">
     <use xlink:href="#me1146fbc1e" x="128.16" y="69.318" style="fill: #b2b2b2; stroke: #b2b2b2"/>
     <use xlink:href="#me1146fbc1e" x="192.042" y="133.2" style="fill: #b2b2b2; stroke: #b2b2b2"/>
    </g>
   </g>
   <g id="line2d_3">
    <g clip-path="url(#p9f88f458d4)">
     <use xlink:href="#me1146fbc1e" x="64.278" y="133.2" style="fill: #b2b2b2; stroke: #b2b2b2"/>
     <use xlink:href="#me1146fbc1e" x="128.16" y="197.082" style="fill: #b2b2b2; stroke: #b2b2b2"/>
    </g>
   </g>
   <g id="line2d_4">
    <defs>
     <path id="m1270695abc" d="M 0 17.5 
C 4.641054 17.5 9.092648 15.65609 12.374369 12.374369 
C 15.65609 9.092648 17.5 4.641054 17.5 0 
C 17.5 -4.641054 15.65609 -9.092648 12.374369 -12.374369 
C 9.092648 -15.65609 4.641054 -17.5 0 -17.5 
C -4.641054 -17.5 -9.092648 -15.65609 -12.374369 -12.374369 
C -15.65609 -9.092648 -17.5 -4.641054 -17.5 0 
C -17.5 4.641054 -15.65609 9.092648 -12.374369 12.374369 
C -9.092648 15.65609 -4.641054 17.5 0 17.5 
z
" style="stroke: #19807c"/>
    </defs>
    <g clip-path="url(#p9f88f458d4)">
     <use xlink:href="#m1270695abc" x="192.042" y="69.318" style="fill: #19807c; stroke: #19807c"/>
    </g>
   </g>
   <g id="line2d_5">
    <defs>
     <path id="m334460363e" d="M 0 0 
L 0 17.5 
M 0 0 
L 14 -8.75 
M 0 0 
L -14 -8.75 
" style="stroke: #19807c; stroke-width: 7"/>
    </defs>
    <g clip-path="url(#p9f88f458d4)">
     <use xlink:href="#m334460363e" x="64.278" y="197.082" style="fill: #19807c; stroke: #19807c; stroke-width: 7"/>
    </g>
   </g>
   <g id="line2d_6">
    <defs>
     <path id="m3711b28afb" d="M 0 0 
L 0 -17.5 
M 0 0 
L -14 8.75 
M 0 0 
L 14 8.75 
" style="stroke: #19807c; stroke-width: 7"/>
    </defs>
    <g clip-path="url(#p9f88f458d4)">
     <use xlink:href="#m3711b28afb" x="64.278" y="197.082" style="fill: #19807c; stroke: #19807c; stroke-width: 7"/>
    </g>
   </g>
   <g id="PolyCollection_1">
    <defs>
     <path id="m66416f044d" d="M 16.1208 -21.1608 
L 16.1208 -245.2392 
L 240.1992 -21.1608 
L 240.1992 -21.1608 
L 240.1992 -21.1608 
L 16.1208 -21.1608 
z
"/>
    </defs>
    <g>
     <use xlink:href="#m66416f044d" x="0" y="266.4" style="fill: #b2b2b2; fill-opacity: 0.3"/>
    </g>
   </g>
  </g>
  <g id="axes_2">
   <g id="line2d_7">
    <path d="M 238.123636 243.163636 
L 18.196364 243.163636 
L 18.196364 23.236364 
L 238.123636 23.236364 
" clip-path="url(#peb56b9ad01)" style="fill: none; stroke: #19807c; stroke-width: 10; stroke-linecap: round"/>
   </g>
   <g id="line2d_8">
    <path d="M 18.196364 243.163636 
L 238.123636 243.163636 
L 238.123636 23.236364 
L 18.196364 23.236364 
" clip-path="url(#peb56b9ad01)" style="fill: none; stroke: #19807c; stroke-width: 10; stroke-linecap: round"/>
   </g>
  </g>
  <g id="axes_3">
   <g id="text_1">
    <!-- covseisnet -->
    <g style="fill: #19807c" transform="translate(279.36 168.65625) scale(1.2 -1.2)">
     <defs>
      <path id="Ubuntu-Regular-63" d="M 1958 -77 
Q 1555 -77 1251 51 
Q 947 179 739 409 
Q 531 640 428 957 
Q 326 1274 326 1658 
Q 326 2042 438 2362 
Q 550 2682 755 2915 
Q 960 3149 1257 3280 
Q 1555 3411 1920 3411 
Q 2144 3411 2368 3372 
Q 2592 3334 2797 3251 
L 2662 2746 
Q 2528 2810 2352 2848 
Q 2176 2886 1978 2886 
Q 1478 2886 1212 2572 
Q 947 2259 947 1658 
Q 947 1389 1008 1165 
Q 1069 941 1200 781 
Q 1331 621 1536 534 
Q 1741 448 2035 448 
Q 2272 448 2464 493 
Q 2656 538 2765 589 
L 2848 90 
Q 2797 58 2701 29 
Q 2605 0 2483 -22 
Q 2362 -45 2224 -61 
Q 2086 -77 1958 -77 
z
" transform="scale(0.015625)"/>
      <path id="Ubuntu-Regular-6f" d="M 3450 1664 
Q 3450 1267 3334 947 
Q 3219 627 3011 396 
Q 2803 166 2515 41 
Q 2227 -83 1888 -83 
Q 1549 -83 1261 41 
Q 973 166 765 396 
Q 557 627 441 947 
Q 326 1267 326 1664 
Q 326 2054 441 2377 
Q 557 2701 765 2931 
Q 973 3162 1261 3286 
Q 1549 3411 1888 3411 
Q 2227 3411 2515 3286 
Q 2803 3162 3011 2931 
Q 3219 2701 3334 2377 
Q 3450 2054 3450 1664 
z
M 2829 1664 
Q 2829 2227 2576 2556 
Q 2323 2886 1888 2886 
Q 1453 2886 1200 2556 
Q 947 2227 947 1664 
Q 947 1101 1200 771 
Q 1453 442 1888 442 
Q 2323 442 2576 771 
Q 2829 1101 2829 1664 
z
" transform="scale(0.015625)"/>
      <path id="Ubuntu-Regular-76" d="M 3110 3328 
Q 2861 2394 2525 1536 
Q 2189 678 1875 0 
L 1338 0 
Q 1024 678 688 1536 
Q 352 2394 102 3328 
L 742 3328 
Q 819 3014 924 2659 
Q 1030 2304 1148 1955 
Q 1267 1606 1388 1280 
Q 1510 954 1619 698 
Q 1728 954 1849 1280 
Q 1971 1606 2089 1955 
Q 2208 2304 2313 2659 
Q 2419 3014 2496 3328 
L 3110 3328 
z
" transform="scale(0.015625)"/>
      <path id="Ubuntu-Regular-73" d="M 1286 429 
Q 1651 429 1827 525 
Q 2003 621 2003 832 
Q 2003 1050 1830 1178 
Q 1658 1306 1261 1466 
Q 1069 1542 893 1622 
Q 717 1702 589 1811 
Q 461 1920 384 2073 
Q 307 2227 307 2451 
Q 307 2893 633 3152 
Q 960 3411 1523 3411 
Q 1664 3411 1805 3395 
Q 1946 3379 2067 3356 
Q 2189 3334 2281 3308 
Q 2374 3283 2426 3264 
L 2317 2752 
Q 2221 2803 2016 2857 
Q 1811 2912 1523 2912 
Q 1274 2912 1088 2813 
Q 902 2714 902 2502 
Q 902 2394 944 2310 
Q 986 2227 1072 2160 
Q 1158 2093 1286 2035 
Q 1414 1978 1594 1914 
Q 1830 1824 2016 1737 
Q 2202 1651 2333 1536 
Q 2464 1421 2534 1257 
Q 2605 1094 2605 858 
Q 2605 397 2262 160 
Q 1920 -77 1286 -77 
Q 845 -77 595 -3 
Q 346 70 256 109 
L 365 621 
Q 467 582 691 505 
Q 915 429 1286 429 
z
" transform="scale(0.015625)"/>
      <path id="Ubuntu-Regular-65" d="M 326 1658 
Q 326 2099 454 2428 
Q 582 2758 793 2976 
Q 1005 3194 1280 3302 
Q 1555 3411 1843 3411 
Q 2515 3411 2873 2992 
Q 3232 2573 3232 1715 
Q 3232 1677 3232 1616 
Q 3232 1555 3226 1504 
L 947 1504 
Q 986 986 1248 717 
Q 1510 448 2067 448 
Q 2381 448 2595 502 
Q 2810 557 2918 608 
L 3002 109 
Q 2893 51 2621 -13 
Q 2349 -77 2003 -77 
Q 1568 -77 1251 54 
Q 934 186 729 416 
Q 525 646 425 963 
Q 326 1280 326 1658 
z
M 2611 1984 
Q 2618 2387 2410 2646 
Q 2202 2906 1837 2906 
Q 1632 2906 1475 2826 
Q 1318 2746 1209 2618 
Q 1101 2490 1040 2323 
Q 979 2157 960 1984 
L 2611 1984 
z
" transform="scale(0.015625)"/>
      <path id="Ubuntu-Regular-69" d="M 1107 0 
L 512 0 
L 512 3328 
L 1107 3328 
L 1107 0 
z
M 806 3930 
Q 646 3930 534 4035 
Q 422 4141 422 4320 
Q 422 4499 534 4604 
Q 646 4710 806 4710 
Q 966 4710 1078 4604 
Q 1190 4499 1190 4320 
Q 1190 4141 1078 4035 
Q 966 3930 806 3930 
z
" transform="scale(0.015625)"/>
      <path id="Ubuntu-Regular-6e" d="M 512 3232 
Q 717 3283 1056 3340 
Q 1395 3398 1837 3398 
Q 2234 3398 2496 3286 
Q 2758 3174 2915 2972 
Q 3072 2771 3136 2489 
Q 3200 2208 3200 1869 
L 3200 0 
L 2605 0 
L 2605 1741 
Q 2605 2048 2563 2265 
Q 2522 2483 2426 2617 
Q 2330 2752 2170 2813 
Q 2010 2874 1773 2874 
Q 1677 2874 1574 2867 
Q 1472 2861 1379 2851 
Q 1286 2842 1212 2829 
Q 1139 2816 1107 2810 
L 1107 0 
L 512 0 
L 512 3232 
z
" transform="scale(0.015625)"/>
      <path id="Ubuntu-Regular-74" d="M 1069 3328 
L 2330 3328 
L 2330 2829 
L 1069 2829 
L 1069 1293 
Q 1069 1043 1107 880 
Q 1146 717 1222 624 
Q 1299 531 1414 492 
Q 1530 454 1683 454 
Q 1952 454 2115 515 
Q 2278 576 2342 602 
L 2458 109 
Q 2368 64 2144 -3 
Q 1920 -70 1632 -70 
Q 1293 -70 1072 16 
Q 851 102 716 275 
Q 582 448 528 701 
Q 474 954 474 1286 
L 474 4256 
L 1069 4358 
L 1069 3328 
z
" transform="scale(0.015625)"/>
     </defs>
     <use xlink:href="#Ubuntu-Regular-63"/>
     <use xlink:href="#Ubuntu-Regular-6f" x="46.499985"/>
     <use xlink:href="#Ubuntu-Regular-76" x="105.499969"/>
     <use xlink:href="#Ubuntu-Regular-73" x="155.699966"/>
     <use xlink:href="#Ubuntu-Regular-65" x="200.299957"/>
     <use xlink:href="#Ubuntu-Regular-69" x="256.199951"/>
     <use xlink:href="#Ubuntu-Regular-73" x="281.499939"/>
     <use xlink:href="#Ubuntu-Regular-6e" x="326.09993"/>
     <use xlink:href="#Ubuntu-Regular-65" x="383.499924"/>
     <use xlink:href="#Ubuntu-Regular-74" x="439.399918"/>
    </g>
   </g>
  </g>
 </g>
 <defs>
  <clipPath id="p9f88f458d4">
   <rect x="29.88" y="34.92" width="196.56" height="196.56"/>
  </clipPath>
  <clipPath id="peb56b9ad01">
   <rect x="7.2" y="12.24" width="241.92" height="241.92"/>
  </clipPath>
 </defs>
</svg>
