<?xml version="1.0" encoding="utf-8" standalone="no"?>
<!DOCTYPE svg PUBLIC "-//W3C//DTD SVG 1.1//EN"
  "http://www.w3.org/Graphics/SVG/1.1/DTD/svg11.dtd">
<svg xmlns:xlink="http://www.w3.org/1999/xlink" width="266.4pt" height="266.4pt" viewBox="0 0 266.4 266.4" xmlns="http://www.w3.org/2000/svg" version="1.1">
 <metadata>
  <rdf:RDF xmlns:dc="http://purl.org/dc/elements/1.1/" xmlns:cc="http://creativecommons.org/ns#" xmlns:rdf="http://www.w3.org/1999/02/22-rdf-syntax-ns#">
   <cc:Work>
    <dc:type rdf:resource="http://purl.org/dc/dcmitype/StillImage"/>
    <dc:date>2024-08-26T19:16:04.009408</dc:date>
    <dc:format>image/svg+xml</dc:format>
    <dc:creator>
     <cc:Agent>
      <dc:title>Matplotlib v3.8.0, https://matplotlib.org/</dc:title>
     </cc:Agent>
    </dc:creator>
   </cc:Work>
  </rdf:RDF>
 </metadata>
 <defs>
  <style type="text/css">*{stroke-linejoin: round; stroke-linecap: butt}</style>
 </defs>
 <g id="figure_1">
  <g id="patch_1">
   <path d="M 0 266.4 
L 266.4 266.4 
L 266.4 0 
L 0 0 
L 0 266.4 
z
" style="fill: none"/>
  </g>
  <g id="axes_1">
   <g id="line2d_1">
    <defs>
     <path id="m0c2b96725f" d="M 0 17.5 
C 4.641054 17.5 9.092648 15.65609 12.374369 12.374369 
C 15.65609 9.092648 17.5 4.641054 17.5 0 
C 17.5 -4.641054 15.65609 -9.092648 12.374369 -12.374369 
C 9.092648 -15.65609 4.641054 -17.5 0 -17.5 
C -4.641054 -17.5 -9.092648 -15.65609 -12.374369 -12.374369 
C -15.65609 -9.092648 -17.5 -4.641054 -17.5 0 
C -17.5 4.641054 -15.65609 9.092648 -12.374369 12.374369 
C -9.092648 15.65609 -4.641054 17.5 0 17.5 
z
" style="stroke: #fab92a"/>
    </defs>
    <g clip-path="url(#pd3ac2a81c4)">
     <use xlink:href="#m0c2b96725f" x="69.318" y="69.318" style="fill: #fab92a; stroke: #fab92a"/>
     <use xlink:href="#m0c2b96725f" x="133.2" y="133.2" style="fill: #fab92a; stroke: #fab92a"/>
     <use xlink:href="#m0c2b96725f" x="197.082" y="197.082" style="fill: #fab92a; stroke: #fab92a"/>
    </g>
   </g>
   <g id="line2d_2">
    <defs>
     <path id="m77356a6159" d="M 0 17.5 
C 4.641054 17.5 9.092648 15.65609 12.374369 12.374369 
C 15.65609 9.092648 17.5 4.641054 17.5 0 
C 17.5 -4.641054 15.65609 -9.092648 12.374369 -12.374369 
C 9.092648 -15.65609 4.641054 -17.5 0 -17.5 
C -4.641054 -17.5 -9.092648 -15.65609 -12.374369 -12.374369 
C -15.65609 -9.092648 -17.5 -4.641054 -17.5 0 
C -17.5 4.641054 -15.65609 9.092648 -12.374369 12.374369 
C -9.092648 15.65609 -4.641054 17.5 0 17.5 
z
" style="stroke: #b2b2b2"/>
    </defs>
    <g clip-path="url(#pd3ac2a81c4)">
     <use xlink:href="#m77356a6159" x="133.2" y="69.318" style="fill: #b2b2b2; stroke: #b2b2b2"/>
     <use xlink:href="#m77356a6159" x="197.082" y="133.2" style="fill: #b2b2b2; stroke: #b2b2b2"/>
    </g>
   </g>
   <g id="line2d_3">
    <defs>
     <path id="m1f90127fca" d="M 0 17.5 
C 4.641054 17.5 9.092648 15.65609 12.374369 12.374369 
C 15.65609 9.092648 17.5 4.641054 17.5 0 
C 17.5 -4.641054 15.65609 -9.092648 12.374369 -12.374369 
C 9.092648 -15.65609 4.641054 -17.5 0 -17.5 
C -4.641054 -17.5 -9.092648 -15.65609 -12.374369 -12.374369 
C -15.65609 -9.092648 -17.5 -4.641054 -17.5 0 
C -17.5 4.641054 -15.65609 9.092648 -12.374369 12.374369 
C -9.092648 15.65609 -4.641054 17.5 0 17.5 
z
" style="stroke: #3b97ad"/>
    </defs>
    <g clip-path="url(#pd3ac2a81c4)">
     <use xlink:href="#m1f90127fca" x="197.082" y="69.318" style="fill: #3b97ad; stroke: #3b97ad"/>
    </g>
   </g>
   <g id="PolyCollection_1">
    <defs>
     <path id="ma1591fb940" d="M 19.1952 -21.1608 
L 19.1952 -247.2048 
L 21.478473 -244.921527 
L 23.761745 -242.638255 
L 26.045018 -240.354982 
L 28.328291 -238.071709 
L 30.611564 -235.788436 
L 32.894836 -233.505164 
L 35.178109 -231.221891 
L 37.461382 -228.938618 
L 39.744655 -226.655345 
L 42.027927 -224.372073 
L 44.3112 -222.0888 
L 46.594473 -219.805527 
L 48.877745 -217.522255 
L 51.161018 -215.238982 
L 53.444291 -212.955709 
L 55.727564 -210.672436 
L 58.010836 -208.389164 
L 60.294109 -206.105891 
L 62.577382 -203.822618 
L 64.860655 -201.539345 
L 67.143927 -199.256073 
L 69.4272 -196.9728 
L 71.710473 -194.689527 
L 73.993745 -192.406255 
L 76.277018 -190.122982 
L 78.560291 -187.839709 
L 80.843564 -185.556436 
L 83.126836 -183.273164 
L 85.410109 -180.989891 
L 87.693382 -178.706618 
L 89.976655 -176.423345 
L 92.259927 -174.140073 
L 94.5432 -171.8568 
L 96.826473 -169.573527 
L 99.109745 -167.290255 
L 101.393018 -165.006982 
L 103.676291 -162.723709 
L 105.959564 -160.440436 
L 108.242836 -158.157164 
L 110.526109 -155.873891 
L 112.809382 -153.590618 
L 115.092655 -151.307345 
L 117.375927 -149.024073 
L 119.6592 -146.7408 
L 121.942473 -144.457527 
L 124.225745 -142.174255 
L 126.509018 -139.890982 
L 128.792291 -137.607709 
L 131.075564 -135.324436 
L 133.358836 -133.041164 
L 135.642109 -130.757891 
L 137.925382 -128.474618 
L 140.208655 -126.191345 
L 142.491927 -123.908073 
L 144.7752 -121.6248 
L 147.058473 -119.341527 
L 149.341745 -117.058255 
L 151.625018 -114.774982 
L 153.908291 -112.491709 
L 156.191564 -110.208436 
L 158.474836 -107.925164 
L 160.758109 -105.641891 
L 163.041382 -103.358618 
L 165.324655 -101.075345 
L 167.607927 -98.792073 
L 169.8912 -96.5088 
L 172.174473 -94.225527 
L 174.457745 -91.942255 
L 176.741018 -89.658982 
L 179.024291 -87.375709 
L 181.307564 -85.092436 
L 183.590836 -82.809164 
L 185.874109 -80.525891 
L 188.157382 -78.242618 
L 190.440655 -75.959345 
L 192.723927 -73.676073 
L 195.0072 -71.3928 
L 197.290473 -69.109527 
L 199.573745 -66.826255 
L 201.857018 -64.542982 
L 204.140291 -62.259709 
L 206.423564 -59.976436 
L 208.706836 -57.693164 
L 210.990109 -55.409891 
L 213.273382 -53.126618 
L 215.556655 -50.843345 
L 217.839927 -48.560073 
L 220.1232 -46.2768 
L 222.406473 -43.993527 
L 224.689745 -41.710255 
L 226.973018 -39.426982 
L 229.256291 -37.143709 
L 231.539564 -34.860436 
L 233.822836 -32.577164 
L 236.106109 -30.293891 
L 238.389382 -28.010618 
L 240.672655 -25.727345 
L 242.955927 -23.444073 
L 245.2392 -21.1608 
L 245.2392 -21.1608 
L 245.2392 -21.1608 
L 242.955927 -21.1608 
L 240.672655 -21.1608 
L 238.389382 -21.1608 
L 236.106109 -21.1608 
L 233.822836 -21.1608 
L 231.539564 -21.1608 
L 229.256291 -21.1608 
L 226.973018 -21.1608 
L 224.689745 -21.1608 
L 222.406473 -21.1608 
L 220.1232 -21.1608 
L 217.839927 -21.1608 
L 215.556655 -21.1608 
L 213.273382 -21.1608 
L 210.990109 -21.1608 
L 208.706836 -21.1608 
L 206.423564 -21.1608 
L 204.140291 -21.1608 
L 201.857018 -21.1608 
L 199.573745 -21.1608 
L 197.290473 -21.1608 
L 195.0072 -21.1608 
L 192.723927 -21.1608 
L 190.440655 -21.1608 
L 188.157382 -21.1608 
L 185.874109 -21.1608 
L 183.590836 -21.1608 
L 181.307564 -21.1608 
L 179.024291 -21.1608 
L 176.741018 -21.1608 
L 174.457745 -21.1608 
L 172.174473 -21.1608 
L 169.8912 -21.1608 
L 167.607927 -21.1608 
L 165.324655 -21.1608 
L 163.041382 -21.1608 
L 160.758109 -21.1608 
L 158.474836 -21.1608 
L 156.191564 -21.1608 
L 153.908291 -21.1608 
L 151.625018 -21.1608 
L 149.341745 -21.1608 
L 147.058473 -21.1608 
L 144.7752 -21.1608 
L 142.491927 -21.1608 
L 140.208655 -21.1608 
L 137.925382 -21.1608 
L 135.642109 -21.1608 
L 133.358836 -21.1608 
L 131.075564 -21.1608 
L 128.792291 -21.1608 
L 126.509018 -21.1608 
L 124.225745 -21.1608 
L 121.942473 -21.1608 
L 119.6592 -21.1608 
L 117.375927 -21.1608 
L 115.092655 -21.1608 
L 112.809382 -21.1608 
L 110.526109 -21.1608 
L 108.242836 -21.1608 
L 105.959564 -21.1608 
L 103.676291 -21.1608 
L 101.393018 -21.1608 
L 99.109745 -21.1608 
L 96.826473 -21.1608 
L 94.5432 -21.1608 
L 92.259927 -21.1608 
L 89.976655 -21.1608 
L 87.693382 -21.1608 
L 85.410109 -21.1608 
L 83.126836 -21.1608 
L 80.843564 -21.1608 
L 78.560291 -21.1608 
L 76.277018 -21.1608 
L 73.993745 -21.1608 
L 71.710473 -21.1608 
L 69.4272 -21.1608 
L 67.143927 -21.1608 
L 64.860655 -21.1608 
L 62.577382 -21.1608 
L 60.294109 -21.1608 
L 58.010836 -21.1608 
L 55.727564 -21.1608 
L 53.444291 -21.1608 
L 51.161018 -21.1608 
L 48.877745 -21.1608 
L 46.594473 -21.1608 
L 44.3112 -21.1608 
L 42.027927 -21.1608 
L 39.744655 -21.1608 
L 37.461382 -21.1608 
L 35.178109 -21.1608 
L 32.894836 -21.1608 
L 30.611564 -21.1608 
L 28.328291 -21.1608 
L 26.045018 -21.1608 
L 23.761745 -21.1608 
L 21.478473 -21.1608 
L 19.1952 -21.1608 
z
"/>
    </defs>
    <g>
     <use xlink:href="#ma1591fb940" x="0" y="266.4" style="fill: #3b97ad"/>
    </g>
   </g>
  </g>
  <g id="axes_2">
   <g id="line2d_4">
    <path d="M 243.163636 243.163636 
L 23.236364 243.163636 
L 23.236364 23.236364 
L 243.163636 23.236364 
" style="fill: none; stroke: #3b97ad; stroke-width: 14; stroke-linecap: round"/>
   </g>
   <g id="line2d_5">
    <path d="M 23.236364 243.163636 
L 243.163636 243.163636 
L 243.163636 23.236364 
L 23.236364 23.236364 
" style="fill: none; stroke: #3b97ad; stroke-width: 14; stroke-linecap: round"/>
   </g>
  </g>
  <g id="axes_3">
   <g id="text_1">
    <!-- covseisnet -->
    <g style="fill: #ffffff" transform="translate(29.792712 91.866949) rotate(-315) scale(0.4 -0.4)">
     <defs>
      <path id="Ubuntu-Bold-63" d="M 288 1683 
Q 288 2048 406 2371 
Q 525 2694 749 2934 
Q 973 3174 1293 3315 
Q 1613 3456 2022 3456 
Q 2291 3456 2515 3408 
Q 2739 3360 2950 3270 
L 2752 2509 
Q 2618 2560 2458 2598 
Q 2298 2637 2099 2637 
Q 1677 2637 1469 2374 
Q 1261 2112 1261 1683 
Q 1261 1229 1456 979 
Q 1651 730 2138 730 
Q 2310 730 2508 762 
Q 2707 794 2874 864 
L 3008 83 
Q 2842 13 2592 -38 
Q 2342 -90 2042 -90 
Q 1581 -90 1248 48 
Q 915 186 700 422 
Q 486 659 387 982 
Q 288 1306 288 1683 
z
" transform="scale(0.015625)"/>
      <path id="Ubuntu-Bold-6f" d="M 3597 1690 
Q 3597 1293 3481 963 
Q 3366 634 3148 400 
Q 2931 166 2627 38 
Q 2323 -90 1946 -90 
Q 1574 -90 1270 38 
Q 966 166 748 400 
Q 531 634 409 963 
Q 288 1293 288 1690 
Q 288 2086 413 2412 
Q 538 2739 758 2969 
Q 979 3200 1283 3328 
Q 1587 3456 1946 3456 
Q 2310 3456 2614 3328 
Q 2918 3200 3136 2969 
Q 3354 2739 3475 2412 
Q 3597 2086 3597 1690 
z
M 2624 1690 
Q 2624 2131 2448 2384 
Q 2272 2637 1946 2637 
Q 1619 2637 1440 2384 
Q 1261 2131 1261 1690 
Q 1261 1248 1440 989 
Q 1619 730 1946 730 
Q 2272 730 2448 989 
Q 2624 1248 2624 1690 
z
" transform="scale(0.015625)"/>
      <path id="Ubuntu-Bold-76" d="M 1363 0 
Q 1037 640 701 1497 
Q 365 2355 64 3366 
L 1075 3366 
Q 1139 3117 1225 2825 
Q 1312 2534 1405 2236 
Q 1498 1939 1590 1657 
Q 1683 1376 1773 1146 
Q 1856 1376 1952 1657 
Q 2048 1939 2141 2236 
Q 2234 2534 2320 2825 
Q 2406 3117 2470 3366 
L 3456 3366 
Q 3155 2355 2819 1497 
Q 2483 640 2157 0 
L 1363 0 
z
" transform="scale(0.015625)"/>
      <path id="Ubuntu-Bold-73" d="M 1414 685 
Q 1677 685 1785 736 
Q 1894 787 1894 934 
Q 1894 1050 1753 1136 
Q 1613 1222 1325 1331 
Q 1101 1414 918 1504 
Q 736 1594 608 1718 
Q 480 1843 409 2016 
Q 339 2189 339 2432 
Q 339 2906 691 3181 
Q 1043 3456 1658 3456 
Q 1965 3456 2246 3401 
Q 2528 3347 2694 3283 
L 2528 2541 
Q 2362 2598 2166 2643 
Q 1971 2688 1728 2688 
Q 1280 2688 1280 2438 
Q 1280 2381 1299 2336 
Q 1318 2291 1376 2249 
Q 1434 2208 1533 2160 
Q 1632 2112 1786 2054 
Q 2099 1939 2304 1827 
Q 2509 1715 2627 1584 
Q 2746 1453 2794 1293 
Q 2842 1133 2842 922 
Q 2842 422 2467 166 
Q 2093 -90 1408 -90 
Q 960 -90 662 -13 
Q 365 64 250 115 
L 410 890 
Q 653 794 909 739 
Q 1165 685 1414 685 
z
" transform="scale(0.015625)"/>
      <path id="Ubuntu-Bold-65" d="M 288 1658 
Q 288 2106 425 2442 
Q 563 2778 787 3002 
Q 1011 3226 1302 3341 
Q 1594 3456 1901 3456 
Q 2618 3456 3034 3017 
Q 3450 2579 3450 1728 
Q 3450 1645 3443 1545 
Q 3437 1446 3430 1370 
L 1267 1370 
Q 1299 1075 1542 902 
Q 1786 730 2195 730 
Q 2458 730 2710 778 
Q 2963 826 3123 896 
L 3251 122 
Q 3174 83 3046 44 
Q 2918 6 2761 -22 
Q 2605 -51 2425 -70 
Q 2246 -90 2067 -90 
Q 1613 -90 1277 44 
Q 941 179 720 412 
Q 499 646 393 966 
Q 288 1286 288 1658 
z
M 2528 2022 
Q 2522 2144 2486 2259 
Q 2451 2374 2377 2464 
Q 2304 2554 2192 2611 
Q 2080 2669 1914 2669 
Q 1754 2669 1638 2614 
Q 1523 2560 1446 2470 
Q 1370 2381 1328 2262 
Q 1286 2144 1267 2022 
L 2528 2022 
z
" transform="scale(0.015625)"/>
      <path id="Ubuntu-Bold-69" d="M 1402 0 
L 448 0 
L 448 3366 
L 1402 3366 
L 1402 0 
z
M 1491 4339 
Q 1491 4077 1321 3926 
Q 1152 3776 922 3776 
Q 691 3776 521 3926 
Q 352 4077 352 4339 
Q 352 4602 521 4752 
Q 691 4902 922 4902 
Q 1152 4902 1321 4752 
Q 1491 4602 1491 4339 
z
" transform="scale(0.015625)"/>
      <path id="Ubuntu-Bold-6e" d="M 448 3251 
Q 691 3322 1075 3382 
Q 1459 3443 1882 3443 
Q 2310 3443 2595 3331 
Q 2880 3219 3046 3014 
Q 3213 2810 3283 2528 
Q 3354 2246 3354 1901 
L 3354 0 
L 2400 0 
L 2400 1786 
Q 2400 2246 2278 2438 
Q 2157 2630 1824 2630 
Q 1722 2630 1606 2620 
Q 1491 2611 1402 2598 
L 1402 0 
L 448 0 
L 448 3251 
z
" transform="scale(0.015625)"/>
      <path id="Ubuntu-Bold-74" d="M 416 4205 
L 1370 4358 
L 1370 3366 
L 2515 3366 
L 2515 2573 
L 1370 2573 
L 1370 1389 
Q 1370 1088 1475 909 
Q 1581 730 1901 730 
Q 2054 730 2217 758 
Q 2381 787 2515 838 
L 2650 96 
Q 2477 26 2265 -25 
Q 2054 -77 1747 -77 
Q 1357 -77 1101 28 
Q 845 134 691 323 
Q 538 512 477 781 
Q 416 1050 416 1376 
L 416 4205 
z
" transform="scale(0.015625)"/>
     </defs>
     <use xlink:href="#Ubuntu-Bold-63"/>
     <use xlink:href="#Ubuntu-Bold-6f" x="49.999985"/>
     <use xlink:href="#Ubuntu-Bold-76" x="110.699982"/>
     <use xlink:href="#Ubuntu-Bold-73" x="165.699966"/>
     <use xlink:href="#Ubuntu-Bold-65" x="214.199951"/>
     <use xlink:href="#Ubuntu-Bold-69" x="272.599945"/>
     <use xlink:href="#Ubuntu-Bold-73" x="301.499939"/>
     <use xlink:href="#Ubuntu-Bold-6e" x="349.999924"/>
     <use xlink:href="#Ubuntu-Bold-65" x="408.899918"/>
     <use xlink:href="#Ubuntu-Bold-74" x="467.299911"/>
    </g>
   </g>
  </g>
 </g>
 <defs>
  <clipPath id="pd3ac2a81c4">
   <rect x="34.92" y="34.92" width="196.56" height="196.56"/>
  </clipPath>
 </defs>
</svg>
